STARTFONT 2.1
FONT -FontForge-Barlow Condensed-Book-R-Condensed---56-540-75-75-P-212-ISO10646-1
SIZE 54 75 75
FONTBOUNDINGBOX 89 73 -34 -12
COMMENT "Generated by fontforge, http://fontforge.sourceforge.net"
COMMENT "Copyright 2017 The Barlow Project Authors (https://github.com/jpt/barlow)"
STARTPROPERTIES 40
FOUNDRY "FontForge"
FAMILY_NAME "Barlow Condensed"
WEIGHT_NAME "Book"
SLANT "R"
SETWIDTH_NAME "Condensed"
ADD_STYLE_NAME ""
PIXEL_SIZE 56
POINT_SIZE 540
RESOLUTION_X 75
RESOLUTION_Y 75
SPACING "P"
AVERAGE_WIDTH 212
CHARSET_REGISTRY "ISO10646"
CHARSET_ENCODING "1"
FONTNAME_REGISTRY ""
CHARSET_COLLECTIONS "ISO8859-2 ISO8859-9 ISO8859-4 ISO10646-1"
FONT_NAME "BarlowCondensed-Regular"
FACE_NAME "Barlow Condensed Regular"
COPYRIGHT "Copyright 2017 The Barlow Project Authors (https://github.com/jpt/barlow)"
FONT_VERSION "1.408"
FONT_ASCENT 45
FONT_DESCENT 11
UNDERLINE_POSITION -6
UNDERLINE_THICKNESS 3
X_HEIGHT 28
CAP_HEIGHT 39
DEFAULT_CHAR 1
RAW_ASCENT 800
RAW_DESCENT 200
NORM_SPACE 11
RELATIVE_WEIGHT 40
RELATIVE_SETWIDTH 30
SUPERSCRIPT_X 0
SUPERSCRIPT_Y 19
SUPERSCRIPT_SIZE 33
SUBSCRIPT_X 0
SUBSCRIPT_Y 4
SUBSCRIPT_SIZE 33
AVG_LOWERCASE_WIDTH 217
AVG_UPPERCASE_WIDTH 245
ENDPROPERTIES
CHARS 680
STARTCHAR NULL
ENCODING 0
SWIDTH 0 0
DWIDTH 0 0
BBX 1 1 0 0
BITMAP
00
ENDCHAR
STARTCHAR nonmarkingreturn
ENCODING 13
SWIDTH 200 0
DWIDTH 11 0
BBX 1 1 0 0
BITMAP
00
ENDCHAR
STARTCHAR space
ENCODING 32
SWIDTH 200 0
DWIDTH 11 0
BBX 1 1 0 0
BITMAP
00
ENDCHAR
STARTCHAR exclam
ENCODING 33
SWIDTH 251 0
DWIDTH 14 0
BBX 6 40 4 0
BITMAP
78
78
78
78
78
78
78
78
78
78
78
78
78
78
78
78
78
78
78
78
78
78
78
78
78
78
78
00
00
00
00
00
00
00
78
FC
FC
FC
FC
78
ENDCHAR
STARTCHAR quotedbl
ENCODING 34
SWIDTH 235 0
DWIDTH 13 0
BBX 11 12 1 28
BITMAP
F1E0
F1E0
F1E0
F1E0
F1E0
F1E0
F1E0
71E0
71E0
71C0
71C0
71C0
ENDCHAR
STARTCHAR numbersign
ENCODING 35
SWIDTH 589 0
DWIDTH 33 0
BBX 27 37 3 1
BITMAP
00F00780
00F00F00
00F00F00
00F00F00
01E00F00
01E00F00
01E00F00
01E00F00
01E01E00
01E01E00
3FFFFFC0
3FFFFFE0
3FFFFFE0
3FFFFFE0
03C03E00
03C03C00
03C03C00
07C03C00
07803C00
07803C00
07803C00
07807C00
07807800
7FFFFF80
FFFFFF80
FFFFFF80
FFFFFF80
0F007800
0F00F000
0F00F000
0F00F000
1E00F000
1E00F000
1E00F000
1E00F000
1E01E000
1E01E000
ENDCHAR
STARTCHAR dollar
ENCODING 36
SWIDTH 416 0
DWIDTH 23 0
BBX 19 50 2 -5
BITMAP
00E000
00E000
00E000
00E000
00E000
07F800
0FFE00
1FFF00
3E0F80
7C07C0
7803C0
7803C0
F001E0
F001E0
F001E0
F001E0
F801E0
780000
7C0000
7C0000
3E0000
1F8000
0FC000
07E000
03F000
01FC00
00FE00
003F00
001F80
000FC0
0007C0
0003E0
0003E0
0001E0
F001E0
F001E0
F001E0
7001E0
7801E0
7803C0
7C07C0
3E0F80
1FFF80
0FFF00
07FC00
00F000
00F000
00F000
00F000
00E000
ENDCHAR
STARTCHAR percent
ENCODING 37
SWIDTH 781 0
DWIDTH 44 0
BBX 36 40 4 0
BITMAP
07E0001C00
1FF8003800
3C3C007800
701C007000
600E00F000
E00600E000
E00701C000
E00701C000
E007038000
E006038000
600E070000
700E070000
3C3C0E0000
1FF80E0000
07E01C0000
00001C0000
0000380000
0000380000
0000700000
0000700000
0000E00000
0001E00000
0001C00000
0003C00000
0003807E00
000701FF80
000703C3C0
000E0781C0
000E0700E0
001C0E0060
001C0E0070
00380E0070
00380E0070
00700E0070
0070060060
00E00700E0
00E00701C0
01C003C3C0
03C001FF80
0380007E00
ENDCHAR
STARTCHAR ampersand
ENCODING 38
SWIDTH 542 0
DWIDTH 30 0
BBX 26 40 2 0
BITMAP
00FC0000
03FF0000
07FF8000
0FFF8000
1F07C000
1E03C000
1E01E000
1E01E000
1E01E000
1E01E000
1E01E000
1E03E000
1E03C000
0F07C000
0F8F8000
079F0000
03FF0000
03FE0000
01FC0000
01F00000
07F80000
0FF80000
0FBC0000
1F3E0000
3E1E0000
7C0F0300
78078780
7807CF80
F803CF00
F001FE00
F001FE00
F000FC00
F0007800
7800FC00
7801FC00
7E03FE00
3FFFCF00
1FFF8F00
0FFF0780
03F807C0
ENDCHAR
STARTCHAR quotesingle
ENCODING 39
SWIDTH 119 0
DWIDTH 7 0
BBX 4 12 1 28
BITMAP
F0
F0
F0
F0
F0
F0
F0
70
70
70
70
70
ENDCHAR
STARTCHAR parenleft
ENCODING 40
SWIDTH 222 0
DWIDTH 12 0
BBX 9 49 0 -6
BITMAP
0780
0F00
0F00
1F00
1E00
1E00
3E00
3C00
3C00
3C00
7C00
7C00
7800
7800
7800
F800
F800
F800
F800
F800
F000
F000
F000
F000
F000
F000
F000
F000
F000
F800
F800
F800
F800
F800
7800
7800
7800
7C00
7C00
3C00
3C00
3C00
3E00
1E00
1E00
1F00
0F00
0F00
0780
ENDCHAR
STARTCHAR parenright
ENCODING 41
SWIDTH 222 0
DWIDTH 12 0
BBX 9 49 4 -6
BITMAP
F000
F000
F800
7800
7800
7C00
3C00
3C00
3E00
3E00
1E00
1E00
1E00
1F00
1F00
1F00
0F00
0F00
0F00
0F00
0F00
0F00
0F80
0F80
0F80
0F80
0F80
0F00
0F00
0F00
0F00
0F00
0F00
1F00
1F00
1F00
1E00
1E00
1E00
3E00
3E00
3C00
3C00
7C00
7800
7800
F000
F000
F000
ENDCHAR
STARTCHAR asterisk
ENCODING 42
SWIDTH 361 0
DWIDTH 20 0
BBX 18 20 1 22
BITMAP
00C000
00C000
00C000
00C000
60C180
F0C3C0
7CCF80
1FDF00
0FFC00
03F000
03F000
0FFC00
1EDF00
7CCF80
F0C3C0
60C180
00C000
00C000
00C000
00C000
ENDCHAR
STARTCHAR plus
ENCODING 43
SWIDTH 442 0
DWIDTH 25 0
BBX 21 21 2 8
BITMAP
007000
007000
007000
007000
007000
007000
007000
007000
FFFFF0
FFFFF8
FFFFF8
FFFFF8
007000
007000
007000
007000
007000
007000
007000
007000
007000
ENDCHAR
STARTCHAR comma
ENCODING 44
SWIDTH 177 0
DWIDTH 10 0
BBX 5 13 2 -4
BITMAP
38
38
38
78
78
70
70
70
70
70
E0
E0
E0
ENDCHAR
STARTCHAR hyphen
ENCODING 45
SWIDTH 313 0
DWIDTH 18 0
BBX 14 4 2 16
BITMAP
FFF8
FFFC
FFFC
FFFC
ENDCHAR
STARTCHAR period
ENCODING 46
SWIDTH 190 0
DWIDTH 11 0
BBX 6 6 2 1
BITMAP
78
7C
FC
FC
7C
78
ENDCHAR
STARTCHAR slash
ENCODING 47
SWIDTH 334 0
DWIDTH 19 0
BBX 14 40 1 0
BITMAP
001C
003C
003C
003C
0078
0078
0078
0078
00F0
00F0
00F0
00F0
01E0
01E0
01E0
01E0
03C0
03C0
03C0
03C0
0780
0780
0780
0700
0F00
0F00
0F00
1E00
1E00
1E00
1E00
3C00
3C00
3C00
3C00
7800
7800
7800
7800
F000
ENDCHAR
STARTCHAR zero
ENCODING 48
SWIDTH 444 0
DWIDTH 25 0
BBX 19 41 3 0
BITMAP
03F800
0FFE00
1FFF00
3FFF80
7C07C0
7803C0
F803C0
F001E0
F001E0
F001E0
F001E0
F001E0
F001E0
F001E0
F001E0
F001E0
F001E0
F001E0
F001E0
F001E0
F001E0
F001E0
F001E0
F001E0
F001E0
F001E0
F001E0
F001E0
F001E0
F001E0
F001E0
F001E0
F001E0
F001E0
F803C0
7803C0
7C07C0
3FFF80
1FFF00
0FFE00
03F800
ENDCHAR
STARTCHAR one
ENCODING 49
SWIDTH 256 0
DWIDTH 14 0
BBX 10 40 1 0
BITMAP
07C0
1FC0
7FC0
FFC0
FFC0
F3C0
83C0
03C0
03C0
03C0
03C0
03C0
03C0
03C0
03C0
03C0
03C0
03C0
03C0
03C0
03C0
03C0
03C0
03C0
03C0
03C0
03C0
03C0
03C0
03C0
03C0
03C0
03C0
03C0
03C0
03C0
03C0
03C0
03C0
03C0
ENDCHAR
STARTCHAR two
ENCODING 50
SWIDTH 402 0
DWIDTH 23 0
BBX 19 40 2 0
BITMAP
03F000
0FFC00
1FFE00
3FFF00
7C0F80
780780
780780
F007C0
F003C0
F003C0
F003C0
F003C0
7007C0
000780
000780
000780
000F80
000F00
001F00
001E00
003E00
007C00
007C00
00F800
00F000
01F000
01E000
03E000
07C000
078000
0F8000
1F0000
1F0000
3E0000
3C0000
7C0000
FFFFC0
FFFFE0
FFFFE0
FFFFE0
ENDCHAR
STARTCHAR three
ENCODING 51
SWIDTH 408 0
DWIDTH 23 0
BBX 18 40 2 0
BITMAP
FFFFC0
FFFFC0
FFFFC0
7FFFC0
000F80
000F80
001F00
003E00
003E00
007C00
007800
00F800
01F000
01E000
03E000
07F800
03FC00
01FE00
000F00
000700
000780
000780
000380
0003C0
0003C0
0003C0
0003C0
0003C0
F003C0
F003C0
F003C0
F003C0
F80380
780780
780780
7C0F00
3FFF00
1FFE00
0FFC00
03F000
ENDCHAR
STARTCHAR four
ENCODING 52
SWIDTH 415 0
DWIDTH 23 0
BBX 21 40 1 0
BITMAP
007800
00F800
00F000
00F000
01F000
01E000
01E000
03E000
03C000
03C000
07C000
078000
078000
0F8000
0F0000
0F0000
1F01C0
1E01C0
1E01C0
3E01C0
3E01C0
3C01C0
7C01C0
7C01C0
7801C0
FFFFF8
FFFFF8
FFFFF8
FFFFF8
0001C0
0001C0
0001C0
0001C0
0001C0
0001C0
0001C0
0001C0
0001C0
0001C0
0001C0
ENDCHAR
STARTCHAR five
ENCODING 53
SWIDTH 409 0
DWIDTH 23 0
BBX 18 40 3 0
BITMAP
FFFF80
FFFF80
FFFF80
FFFF00
F00000
F00000
F00000
F00000
F00000
F00000
F00000
F00000
F00000
F00000
F00000
F1F800
F7FC00
FFFE00
FFFF00
FC0F80
F80780
F00780
F00780
0003C0
0003C0
0003C0
0003C0
0003C0
0003C0
0003C0
F003C0
F003C0
F00780
F80780
780F80
7C0F80
3FFF00
3FFE00
0FFC00
03F000
ENDCHAR
STARTCHAR six
ENCODING 54
SWIDTH 410 0
DWIDTH 23 0
BBX 18 40 3 0
BITMAP
03F000
0FFC00
1FFE00
3FFF00
7C1F00
780F80
F80780
F00780
F00780
F00780
F00780
F00000
F00000
F00000
F04000
F3F800
FFFE00
FFFE00
FE1F00
FC0F80
F80780
F80780
F00780
F003C0
F003C0
F003C0
F003C0
F003C0
F003C0
F003C0
F003C0
F003C0
F007C0
780780
780780
7C0F80
3FFF00
1FFE00
0FFC00
03F000
ENDCHAR
STARTCHAR seven
ENCODING 55
SWIDTH 366 0
DWIDTH 21 0
BBX 19 40 1 0
BITMAP
FFFFE0
FFFFE0
FFFFE0
FFFFC0
F003C0
F003C0
6007C0
000780
000780
000780
000F80
000F00
000F00
000F00
001F00
001E00
001E00
001E00
003E00
003C00
003C00
007C00
007800
007800
007800
00F800
00F000
00F000
00F000
01F000
01E000
01E000
01E000
03E000
03C000
03C000
07C000
078000
078000
078000
ENDCHAR
STARTCHAR eight
ENCODING 56
SWIDTH 422 0
DWIDTH 24 0
BBX 18 41 3 0
BITMAP
008000
0FF800
1FFE00
3FFF00
7E1F00
780F80
F80780
F00780
F003C0
F003C0
F003C0
F003C0
F003C0
F00780
F80780
780780
7C0F00
3FFF00
1FFC00
0FFC00
1FFE00
3E1F00
7C0F00
780780
F80780
F00780
F003C0
F003C0
F003C0
F003C0
F003C0
F003C0
F00780
F00780
780780
780F80
7C1F00
3FFF00
1FFE00
0FFC00
03F000
ENDCHAR
STARTCHAR nine
ENCODING 57
SWIDTH 403 0
DWIDTH 23 0
BBX 18 40 2 0
BITMAP
07F000
1FFC00
3FFE00
7FFF00
7C1F00
F80F80
F00780
F00780
F00780
F00780
F00780
F003C0
F003C0
F003C0
F007C0
F007C0
F007C0
F007C0
F007C0
780FC0
7C1FC0
3FFFC0
3FFFC0
0FFBC0
07E3C0
0003C0
0003C0
0003C0
0003C0
F003C0
F003C0
F007C0
F00780
780780
780F80
7C0F00
3FFF00
1FFE00
0FFC00
03F000
ENDCHAR
STARTCHAR colon
ENCODING 58
SWIDTH 211 0
DWIDTH 12 0
BBX 6 25 3 1
BITMAP
78
FC
FC
FC
FC
78
00
00
00
00
00
00
00
00
00
00
00
00
00
78
FC
FC
FC
FC
78
ENDCHAR
STARTCHAR semicolon
ENCODING 59
SWIDTH 193 0
DWIDTH 11 0
BBX 7 31 2 -4
BITMAP
38
7C
FC
FE
FC
7C
38
00
00
00
00
00
00
00
00
00
00
00
38
38
78
78
78
78
70
70
70
70
70
70
E0
ENDCHAR
STARTCHAR less
ENCODING 60
SWIDTH 442 0
DWIDTH 25 0
BBX 21 24 2 3
BITMAP
000018
000078
0001F8
000FF8
003FC0
00FF00
03FC00
0FF000
3FC000
FF0000
FC0000
F00000
FC0000
FF0000
3FC000
0FF000
03FC00
00FF00
003FC0
000FF0
0003F8
0000F8
000038
000008
ENDCHAR
STARTCHAR equal
ENCODING 61
SWIDTH 442 0
DWIDTH 25 0
BBX 21 15 2 11
BITMAP
FFFFF8
FFFFF8
FFFFF8
000000
000000
000000
000000
000000
000000
000000
000000
000000
FFFFF8
FFFFF8
FFFFF8
ENDCHAR
STARTCHAR greater
ENCODING 62
SWIDTH 442 0
DWIDTH 25 0
BBX 21 24 2 3
BITMAP
C00000
F00000
FC0000
FF0000
3FC000
0FF000
01FC00
007F00
001FC0
0007F8
0001F8
000078
0001F8
0007F8
001FE0
007F80
01FE00
07F800
1FE000
FF0000
FC0000
F00000
C00000
800000
ENDCHAR
STARTCHAR question
ENCODING 63
SWIDTH 370 0
DWIDTH 21 0
BBX 17 40 2 0
BITMAP
07F000
1FF800
3FFC00
7FFE00
7C1F00
F80F00
F00F80
F00780
F00780
F00780
F00780
F00780
000780
000F80
000F00
001F00
003E00
007E00
00FC00
00F800
01F000
03E000
03C000
03C000
03C000
03C000
03C000
03C000
03C000
000000
000000
000000
000000
000000
038000
07C000
07E000
0FE000
07C000
038000
ENDCHAR
STARTCHAR at
ENCODING 64
SWIDTH 761 0
DWIDTH 43 0
BBX 37 40 3 -5
BITMAP
00007F0000
0003FFF000
001FFFFC00
003F00FE00
00FC001F00
01F0000780
03C00003C0
07800001E0
07000000E0
0E000000F0
1E00F38070
1C03FB8070
3807FF8070
38070F8078
700F070038
700E070038
700E070038
E00E070038
E00C070038
E01C070038
E01C070070
E01C070070
E01C060070
E01C0E0070
E01C0E00E0
E01C0F00E0
E01C1F01C0
E01E3F87C0
F00FFBFF80
7007F1FE00
7003C0F800
7800000000
3C00000000
3E00000000
1F00008000
0F8001C000
07E00FC000
03FFFF8000
00FFFE0000
001FF00000
ENDCHAR
STARTCHAR A
ENCODING 65
SWIDTH 410 0
DWIDTH 23 0
BBX 21 40 1 0
BITMAP
00F800
00F800
00F800
01F800
01FC00
01FC00
01FC00
01DC00
03DC00
03DE00
03DE00
038E00
038E00
078F00
078F00
078F00
070700
0F0700
0F0780
0F0780
0F0780
0E0380
1E03C0
1E03C0
1E03C0
1E03C0
3C01C0
3C01E0
3C01E0
3FFFE0
3FFFE0
7FFFF0
7FFFF0
7800F0
7800F0
7800F0
F00078
F00078
F00078
F00078
ENDCHAR
STARTCHAR B
ENCODING 66
SWIDTH 449 0
DWIDTH 25 0
BBX 19 40 4 0
BITMAP
FFF000
FFFE00
FFFF00
FFFF80
F00FC0
F007C0
F003C0
F001E0
F001E0
F001E0
F001E0
F001E0
F001E0
F001E0
F003C0
F003C0
F00F80
FFFF80
FFFF00
FFFC00
FFFF00
F01F80
F00780
F003C0
F003C0
F001E0
F001E0
F001E0
F001E0
F001E0
F001E0
F001E0
F001E0
F003E0
F007C0
F00FC0
FFFF80
FFFF00
FFFE00
FFF800
ENDCHAR
STARTCHAR C
ENCODING 67
SWIDTH 446 0
DWIDTH 25 0
BBX 19 40 3 0
BITMAP
03F800
0FFE00
1FFF00
3FFF80
7C07C0
7803C0
F801E0
F001E0
F001E0
F001E0
F001E0
F00000
F00000
F00000
F00000
F00000
F00000
F00000
F00000
F00000
F00000
F00000
F00000
F00000
F00000
F00000
F00000
F00000
F00000
F001E0
F001E0
F001E0
F001E0
F801E0
7803C0
7C07C0
3FFF80
1FFF00
0FFE00
03F800
ENDCHAR
STARTCHAR D
ENCODING 68
SWIDTH 465 0
DWIDTH 26 0
BBX 19 40 4 0
BITMAP
FFF800
FFFE00
FFFF00
FFFF80
F00F80
F007C0
F003C0
F003C0
F003E0
F001E0
F001E0
F001E0
F001E0
F001E0
F001E0
F001E0
F001E0
F001E0
F001E0
F001E0
F001E0
F001E0
F001E0
F001E0
F001E0
F001E0
F001E0
F001E0
F001E0
F001E0
F001E0
F003E0
F003C0
F003C0
F007C0
F00F80
FFFF80
FFFF00
FFFE00
FFF000
ENDCHAR
STARTCHAR E
ENCODING 69
SWIDTH 429 0
DWIDTH 24 0
BBX 18 40 4 0
BITMAP
FFFFC0
FFFFC0
FFFFC0
FFFF80
F00000
F00000
F00000
F00000
F00000
F00000
F00000
F00000
F00000
F00000
F00000
F00000
F00000
F00000
FFF000
FFF800
FFF800
FFF800
F00000
F00000
F00000
F00000
F00000
F00000
F00000
F00000
F00000
F00000
F00000
F00000
F00000
F00000
FFFF80
FFFFC0
FFFFC0
FFFFC0
ENDCHAR
STARTCHAR F
ENCODING 70
SWIDTH 404 0
DWIDTH 23 0
BBX 18 40 4 0
BITMAP
FFFFC0
FFFFC0
FFFFC0
FFFF80
F00000
F00000
F00000
F00000
F00000
F00000
F00000
F00000
F00000
F00000
F00000
F00000
F00000
F00000
FFF000
FFF800
FFF800
FFF800
F00000
F00000
F00000
F00000
F00000
F00000
F00000
F00000
F00000
F00000
F00000
F00000
F00000
F00000
F00000
F00000
F00000
F00000
ENDCHAR
STARTCHAR G
ENCODING 71
SWIDTH 451 0
DWIDTH 25 0
BBX 19 40 3 0
BITMAP
03F800
0FFE00
1FFF00
3FFF80
7C07C0
7803C0
F801E0
F001E0
F001E0
F001E0
F001E0
F001E0
F00000
F00000
F00000
F00000
F00000
F00000
F00000
F03FE0
F03FE0
F03FE0
F03FE0
F001E0
F001E0
F001E0
F001E0
F001E0
F001E0
F001E0
F001E0
F001E0
F001E0
F803E0
7803C0
7C07C0
3FFF80
1FFF00
0FFE00
03F800
ENDCHAR
STARTCHAR H
ENCODING 72
SWIDTH 472 0
DWIDTH 26 0
BBX 18 40 4 0
BITMAP
F003C0
F003C0
F003C0
F003C0
F003C0
F003C0
F003C0
F003C0
F003C0
F003C0
F003C0
F003C0
F003C0
F003C0
F003C0
F003C0
F003C0
F003C0
FFFFC0
FFFFC0
FFFFC0
FFFFC0
F003C0
F003C0
F003C0
F003C0
F003C0
F003C0
F003C0
F003C0
F003C0
F003C0
F003C0
F003C0
F003C0
F003C0
F003C0
F003C0
F003C0
F003C0
ENDCHAR
STARTCHAR I
ENCODING 73
SWIDTH 215 0
DWIDTH 12 0
BBX 4 40 4 0
BITMAP
F0
F0
F0
F0
F0
F0
F0
F0
F0
F0
F0
F0
F0
F0
F0
F0
F0
F0
F0
F0
F0
F0
F0
F0
F0
F0
F0
F0
F0
F0
F0
F0
F0
F0
F0
F0
F0
F0
F0
F0
ENDCHAR
STARTCHAR J
ENCODING 74
SWIDTH 426 0
DWIDTH 24 0
BBX 19 40 1 0
BITMAP
0001E0
0001E0
0001E0
0001E0
0001E0
0001E0
0001E0
0001E0
0001E0
0001E0
0001E0
0001E0
0001E0
0001E0
0001E0
0001E0
0001E0
0001E0
0001E0
0001E0
0001E0
0001E0
0001E0
0001E0
0001E0
F001E0
F001E0
F001E0
F001E0
F001E0
F001E0
F001E0
F801E0
7803C0
7803C0
7C07C0
3FFF80
1FFF00
0FFE00
03F800
ENDCHAR
STARTCHAR K
ENCODING 75
SWIDTH 452 0
DWIDTH 25 0
BBX 20 40 4 0
BITMAP
F001E0
F003E0
F003C0
F007C0
F00780
F00F80
F00F00
F01F00
F03E00
F03C00
F07C00
F07800
F0F800
F0F000
F1F000
F3E000
F3E000
F7E000
F7E000
FFF000
FEF000
FEF800
FC7800
F87800
F83C00
F03C00
F03E00
F01E00
F01F00
F00F00
F00F00
F00780
F00780
F007C0
F003C0
F003E0
F001E0
F001E0
F001F0
F000F0
ENDCHAR
STARTCHAR L
ENCODING 76
SWIDTH 396 0
DWIDTH 22 0
BBX 18 40 4 0
BITMAP
F00000
F00000
F00000
F00000
F00000
F00000
F00000
F00000
F00000
F00000
F00000
F00000
F00000
F00000
F00000
F00000
F00000
F00000
F00000
F00000
F00000
F00000
F00000
F00000
F00000
F00000
F00000
F00000
F00000
F00000
F00000
F00000
F00000
F00000
F00000
F00000
FFFF80
FFFFC0
FFFFC0
FFFFC0
ENDCHAR
STARTCHAR M
ENCODING 77
SWIDTH 521 0
DWIDTH 29 0
BBX 21 40 4 0
BITMAP
F00078
F80078
F800F8
FC00F8
FC01F8
FE01F8
FE03F8
FE03F8
FF07F8
FF07F8
F78F78
F78F78
F3DE78
F3DE78
F1FC78
F1FC78
F0F878
F0F878
F07078
F07078
F02078
F02078
F00078
F00078
F00078
F00078
F00078
F00078
F00078
F00078
F00078
F00078
F00078
F00078
F00078
F00078
F00078
F00078
F00078
F00078
ENDCHAR
STARTCHAR N
ENCODING 78
SWIDTH 493 0
DWIDTH 28 0
BBX 20 40 4 0
BITMAP
F000F0
F800F0
F800F0
FC00F0
FC00F0
FC00F0
FE00F0
FE00F0
FE00F0
FF00F0
FF00F0
F780F0
F780F0
F780F0
F3C0F0
F3C0F0
F1C0F0
F1E0F0
F1E0F0
F0F0F0
F0F0F0
F0F0F0
F078F0
F078F0
F038F0
F03CF0
F03CF0
F01CF0
F01EF0
F01EF0
F00FF0
F00FF0
F007F0
F007F0
F007F0
F003F0
F003F0
F003F0
F001F0
F001F0
ENDCHAR
STARTCHAR O
ENCODING 79
SWIDTH 456 0
DWIDTH 26 0
BBX 19 40 3 0
BITMAP
03F800
0FFE00
1FFF80
3FFF80
7C07C0
7803E0
F801E0
F001E0
F001E0
F001E0
F001E0
F001E0
F001E0
F001E0
F001E0
F001E0
F001E0
F001E0
F001E0
F001E0
F001E0
F001E0
F001E0
F001E0
F001E0
F001E0
F001E0
F001E0
F001E0
F001E0
F001E0
F001E0
F001E0
F801E0
7803E0
7C07C0
3FFF80
1FFF80
0FFE00
03F800
ENDCHAR
STARTCHAR P
ENCODING 80
SWIDTH 442 0
DWIDTH 25 0
BBX 19 40 4 0
BITMAP
FFF800
FFFE00
FFFF00
FFFF80
F00F80
F007C0
F003C0
F003E0
F001E0
F001E0
F001E0
F001E0
F001E0
F001E0
F003E0
F003C0
F007C0
F00F80
FFFF80
FFFF00
FFFE00
FFF800
F00000
F00000
F00000
F00000
F00000
F00000
F00000
F00000
F00000
F00000
F00000
F00000
F00000
F00000
F00000
F00000
F00000
F00000
ENDCHAR
STARTCHAR Q
ENCODING 81
SWIDTH 443 0
DWIDTH 25 0
BBX 19 47 3 -7
BITMAP
03F800
0FFE00
1FFF00
3FFF80
7C0F80
7807C0
7803C0
F003C0
F001E0
F001E0
F001E0
F001E0
F001E0
F001E0
F001E0
F001E0
F001E0
F001E0
F001E0
F001E0
F001E0
F001E0
F001E0
F001E0
F001E0
F001E0
F001E0
F001E0
F001E0
F001E0
F001E0
F001E0
F001E0
F003C0
7803C0
7C07C0
3E0F80
3FFF80
1FFF00
07FC00
01F000
01E000
01E000
01E000
01E000
01E000
01E000
ENDCHAR
STARTCHAR R
ENCODING 82
SWIDTH 443 0
DWIDTH 25 0
BBX 19 40 4 0
BITMAP
FFF800
FFFE00
FFFF00
FFFF80
F00F80
F007C0
F003C0
F003E0
F001E0
F001E0
F001E0
F001E0
F001E0
F001E0
F003E0
F003C0
F007C0
F00F80
FFFF80
FFFF00
FFFE00
FFF800
F07800
F03C00
F03C00
F03C00
F01E00
F01E00
F01E00
F00F00
F00F00
F00F00
F00780
F00780
F00780
F003C0
F003C0
F003C0
F001E0
F001E0
ENDCHAR
STARTCHAR S
ENCODING 83
SWIDTH 416 0
DWIDTH 23 0
BBX 19 40 2 0
BITMAP
03F800
0FFE00
1FFF00
3FFF80
7C0F80
7807C0
7803C0
F003C0
F001E0
F001E0
F001E0
F001E0
780000
780000
7C0000
3E0000
1F0000
0FC000
07E000
03F000
01FC00
007E00
003F00
001F80
000FC0
0007C0
0003E0
0001E0
F001E0
F001E0
F001E0
F001E0
7801E0
7803E0
7C03C0
3E07C0
3FFF80
1FFF00
0FFE00
03F800
ENDCHAR
STARTCHAR T
ENCODING 84
SWIDTH 423 0
DWIDTH 24 0
BBX 20 40 2 0
BITMAP
FFFFF0
FFFFF0
FFFFF0
FFFFE0
00F000
00F000
00F000
00F000
00F000
00F000
00F000
00F000
00F000
00F000
00F000
00F000
00F000
00F000
00F000
00F000
00F000
00F000
00F000
00F000
00F000
00F000
00F000
00F000
00F000
00F000
00F000
00F000
00F000
00F000
00F000
00F000
00F000
00F000
00F000
00F000
ENDCHAR
STARTCHAR U
ENCODING 85
SWIDTH 476 0
DWIDTH 27 0
BBX 19 40 4 0
BITMAP
F001E0
F001E0
F001E0
F001E0
F001E0
F001E0
F001E0
F001E0
F001E0
F001E0
F001E0
F001E0
F001E0
F001E0
F001E0
F001E0
F001E0
F001E0
F001E0
F001E0
F001E0
F001E0
F001E0
F001E0
F001E0
F001E0
F001E0
F001E0
F001E0
F001E0
F001E0
F001E0
F001E0
F803C0
7807C0
7C0F80
3FFF80
1FFF00
0FFE00
03F800
ENDCHAR
STARTCHAR V
ENCODING 86
SWIDTH 439 0
DWIDTH 25 0
BBX 21 40 2 0
BITMAP
F000F8
F000F0
F800F0
F800F0
7800F0
7800F0
7801E0
7C01E0
3C01E0
3C01E0
3C01E0
3C03C0
3C03C0
1E03C0
1E03C0
1E03C0
1E0780
1E0780
0F0780
0F0780
0F0700
0F0700
0F0F00
078F00
078F00
078E00
078E00
039E00
03DE00
03DE00
03DC00
03DC00
01FC00
01FC00
01FC00
01F800
01F800
00F800
00F800
00F800
ENDCHAR
STARTCHAR W
ENCODING 87
SWIDTH 623 0
DWIDTH 35 0
BBX 31 40 2 0
BITMAP
F003801E
F003C01E
F007C01E
F007C01E
F007C01E
7807C03C
7807C03C
7807E03C
7807E03C
780EE03C
780EE03C
3C0EE078
3C0EE078
3C0EE078
3C0EF078
3C1E7078
1E1C7070
1E1C70F0
1E1C70F0
1E1C70F0
1E1C78F0
0E1C38F0
0F3838E0
0F3838E0
0F3839E0
0F3839E0
07383DE0
07381DC0
07B81DC0
07F01DC0
07F01FC0
07F01FC0
03F01FC0
03F01F80
03F00F80
03E00F80
03E00F80
01E00F80
01E00F80
01E00F00
ENDCHAR
STARTCHAR X
ENCODING 88
SWIDTH 434 0
DWIDTH 24 0
BBX 20 40 2 0
BITMAP
F000F0
F800F0
7801E0
7801E0
3C01E0
3C03C0
3C03C0
1E0780
1E0780
0F0780
0F0F00
070F00
078E00
079E00
039E00
03FC00
01FC00
01F800
01F800
00F800
00F000
01F800
01F800
01FC00
03FC00
03DC00
079E00
079E00
070F00
0F0F00
0F0780
1E0780
1E0780
1E03C0
3C03C0
3C01E0
7801E0
7801E0
F800F0
F000F0
ENDCHAR
STARTCHAR Y
ENCODING 89
SWIDTH 424 0
DWIDTH 24 0
BBX 20 40 2 0
BITMAP
F000F0
F801E0
7801E0
7801E0
7C03C0
3C03C0
3C03C0
1C0780
1E0780
1E0780
0E0F00
0F0F00
0F0E00
071E00
079E00
079C00
03BC00
03FC00
01F800
01F800
01F800
00F000
00F000
00F000
00F000
00F000
00F000
00F000
00F000
00F000
00F000
00F000
00F000
00F000
00F000
00F000
00F000
00F000
00F000
00F000
ENDCHAR
STARTCHAR Z
ENCODING 90
SWIDTH 395 0
DWIDTH 22 0
BBX 18 40 2 0
BITMAP
FFFFC0
FFFFC0
FFFFC0
FFFFC0
000780
000780
000F80
000F00
000F00
001E00
001E00
003E00
003C00
007C00
007800
007800
00F800
00F000
01F000
01E000
01E000
03C000
03C000
07C000
078000
0F8000
0F0000
0F0000
1F0000
1E0000
3E0000
3C0000
3C0000
780000
780000
F80000
FFFF80
FFFFC0
FFFFC0
FFFFC0
ENDCHAR
STARTCHAR bracketleft
ENCODING 91
SWIDTH 303 0
DWIDTH 17 0
BBX 10 51 1 -7
BITMAP
FFC0
FFC0
FFC0
FFC0
F000
F000
F000
F000
F000
F000
F000
F000
F000
F000
F000
F000
F000
F000
F000
F000
F000
F000
F000
F000
F000
F000
F000
F000
F000
F000
F000
F000
F000
F000
F000
F000
F000
F000
F000
F000
F000
F000
F000
F000
F000
F000
F000
FFC0
FFC0
FFC0
FFC0
ENDCHAR
STARTCHAR backslash
ENCODING 92
SWIDTH 334 0
DWIDTH 19 0
BBX 14 40 3 0
BITMAP
F000
F000
7800
7800
7800
3800
3C00
3C00
3C00
1E00
1E00
1E00
1E00
0F00
0F00
0F00
0F00
0780
0780
0780
0780
03C0
03C0
03C0
03C0
01E0
01E0
01E0
00E0
00F0
00F0
00F0
0070
0078
0078
0078
003C
003C
003C
003C
ENDCHAR
STARTCHAR bracketright
ENCODING 93
SWIDTH 303 0
DWIDTH 17 0
BBX 10 51 6 -7
BITMAP
FF80
FFC0
FFC0
FFC0
03C0
03C0
03C0
03C0
03C0
03C0
03C0
03C0
03C0
03C0
03C0
03C0
03C0
03C0
03C0
03C0
03C0
03C0
03C0
03C0
03C0
03C0
03C0
03C0
03C0
03C0
03C0
03C0
03C0
03C0
03C0
03C0
03C0
03C0
03C0
03C0
03C0
03C0
03C0
03C0
03C0
03C0
03C0
FFC0
FFC0
FFC0
FFC0
ENDCHAR
STARTCHAR asciicircum
ENCODING 94
SWIDTH 396 0
DWIDTH 22 0
BBX 18 23 2 17
BITMAP
00C000
01E000
01F000
03F000
03F000
03F800
07B800
073800
073C00
0F1C00
0E1C00
0E1E00
1E0E00
1C0E00
1C0F00
3C0F00
380700
380780
780780
700380
7003C0
F003C0
E001C0
ENDCHAR
STARTCHAR underscore
ENCODING 95
SWIDTH 376 0
DWIDTH 21 0
BBX 19 4 1 0
BITMAP
7FFFC0
FFFFE0
FFFFE0
FFFFE0
ENDCHAR
STARTCHAR grave
ENCODING 96
SWIDTH 180 0
DWIDTH 10 0
BBX 7 8 2 32
BITMAP
C0
E0
F0
70
38
3C
1C
0E
ENDCHAR
STARTCHAR a
ENCODING 97
SWIDTH 413 0
DWIDTH 23 0
BBX 18 29 2 0
BITMAP
03F800
0FFE00
1FFF00
3FFF80
3E0F80
7C07C0
7803C0
7803C0
0003C0
0003C0
0003C0
003FC0
07FFC0
1FFFC0
3FFFC0
7E03C0
7C03C0
7803C0
F803C0
F003C0
F003C0
F003C0
F803C0
F807C0
7C0FC0
7FFFC0
3FFFC0
1FFBC0
07E3C0
ENDCHAR
STARTCHAR b
ENCODING 98
SWIDTH 423 0
DWIDTH 24 0
BBX 18 40 3 0
BITMAP
F00000
F00000
F00000
F00000
F00000
F00000
F00000
F00000
F00000
F00000
F00000
F1F800
F3FE00
FFFF00
FFFF80
FC0F80
F80780
F807C0
F803C0
F003C0
F003C0
F003C0
F003C0
F003C0
F003C0
F003C0
F003C0
F003C0
F003C0
F003C0
F003C0
F003C0
F003C0
F807C0
F80780
FC0F80
FFFF80
FFFF00
F7FE00
F1F800
ENDCHAR
STARTCHAR c
ENCODING 99
SWIDTH 402 0
DWIDTH 23 0
BBX 17 29 3 0
BITMAP
07F000
1FFC00
3FFE00
7FFF00
7C0F80
F80780
F00780
F00780
F00780
F00000
F00000
F00000
F00000
F00000
F00000
F00000
F00000
F00000
F00000
F00000
F00780
F00780
F00780
F80780
7C0F80
7FFF00
3FFE00
1FFC00
07F000
ENDCHAR
STARTCHAR d
ENCODING 100
SWIDTH 423 0
DWIDTH 24 0
BBX 17 40 3 0
BITMAP
000780
000780
000780
000780
000780
000780
000780
000780
000780
000780
000780
07C780
1FF780
3FFF80
7FFF80
7C1F80
F80F80
F00780
F00780
F00780
F00780
F00780
F00780
F00780
F00780
F00780
F00780
F00780
F00780
F00780
F00780
F00780
F00780
F00780
F80F80
7C1F80
7FFF80
3FFF80
1FF780
07C780
ENDCHAR
STARTCHAR e
ENCODING 101
SWIDTH 407 0
DWIDTH 23 0
BBX 17 29 3 0
BITMAP
07F000
1FFC00
3FFE00
7FFF00
7C0F00
F80F80
F00780
F00780
F00780
F00780
F00780
F00780
FFFF80
FFFF80
FFFF80
FFFF80
F00000
F00000
F00000
F00000
F00000
F00780
F00780
F80F80
7C1F00
7FFF00
3FFE00
1FFC00
07F000
ENDCHAR
STARTCHAR f
ENCODING 102
SWIDTH 277 0
DWIDTH 16 0
BBX 12 40 2 0
BITMAP
01F0
07F0
0FF0
0FE0
1F00
1E00
1E00
1E00
1E00
1E00
1E00
FFF0
FFF0
FFF0
FFE0
1E00
1E00
1E00
1E00
1E00
1E00
1E00
1E00
1E00
1E00
1E00
1E00
1E00
1E00
1E00
1E00
1E00
1E00
1E00
1E00
1E00
1E00
1E00
1E00
1E00
ENDCHAR
STARTCHAR g
ENCODING 103
SWIDTH 413 0
DWIDTH 23 0
BBX 17 40 3 -11
BITMAP
07C780
1FF780
3FFF80
7FFF80
FC1F80
F80F80
F00780
F00780
F00780
F00780
F00780
F00780
F00780
F00780
F00780
F00780
F00780
F00780
F00780
F00780
F00780
F00780
F00780
F80F80
7C1F80
7FFF80
3FFF80
1FF780
07C780
000780
000780
000780
000780
000F00
001F00
003F00
07FE00
07FC00
07F800
07C000
ENDCHAR
STARTCHAR h
ENCODING 104
SWIDTH 424 0
DWIDTH 24 0
BBX 18 40 3 0
BITMAP
F00000
F00000
F00000
F00000
F00000
F00000
F00000
F00000
F00000
F00000
F00000
F0F800
F3FE00
F7FF00
FFFF80
FC0F80
F80780
F80780
F803C0
F003C0
F003C0
F003C0
F003C0
F003C0
F003C0
F003C0
F003C0
F003C0
F003C0
F003C0
F003C0
F003C0
F003C0
F003C0
F003C0
F003C0
F003C0
F003C0
F003C0
F003C0
ENDCHAR
STARTCHAR i
ENCODING 105
SWIDTH 208 0
DWIDTH 12 0
BBX 6 40 3 0
BITMAP
78
FC
FC
FC
FC
78
00
00
00
00
00
78
78
78
78
78
78
78
78
78
78
78
78
78
78
78
78
78
78
78
78
78
78
78
78
78
78
78
78
78
ENDCHAR
STARTCHAR j
ENCODING 106
SWIDTH 200 0
DWIDTH 11 0
BBX 11 52 -2 -11
BITMAP
0380
07C0
0FE0
0FC0
07C0
0380
0000
0000
0000
0000
0000
0000
0780
0780
0780
0780
0780
0780
0780
0780
0780
0780
0780
0780
0780
0780
0780
0780
0780
0780
0780
0780
0780
0780
0780
0780
0780
0780
0780
0780
0780
0780
0780
0780
0780
0780
0780
0F80
7F00
FF00
FE00
F800
ENDCHAR
STARTCHAR k
ENCODING 107
SWIDTH 405 0
DWIDTH 23 0
BBX 18 40 3 0
BITMAP
F00000
F00000
F00000
F00000
F00000
F00000
F00000
F00000
F00000
F00000
F00000
F00780
F00F00
F00F00
F01E00
F03C00
F03C00
F07800
F0F000
F0F000
F1E000
F3F000
F3F000
F7F000
FF7800
FE7800
FE3C00
FC3C00
F83C00
F81E00
F01E00
F01E00
F00F00
F00F00
F00F00
F00780
F00780
F00780
F003C0
F003C0
ENDCHAR
STARTCHAR l
ENCODING 108
SWIDTH 181 0
DWIDTH 10 0
BBX 4 40 3 0
BITMAP
F0
F0
F0
F0
F0
F0
F0
F0
F0
F0
F0
F0
F0
F0
F0
F0
F0
F0
F0
F0
F0
F0
F0
F0
F0
F0
F0
F0
F0
F0
F0
F0
F0
F0
F0
F0
F0
F0
F0
F0
ENDCHAR
STARTCHAR m
ENCODING 109
SWIDTH 648 0
DWIDTH 36 0
BBX 30 29 3 0
BITMAP
F0F807C0
F3FC1FE0
F7FE3FF0
FFFF7FF8
FC1FE0F8
F80FC07C
F807C03C
F807803C
F007803C
F007803C
F007803C
F007803C
F007803C
F007803C
F007803C
F007803C
F007803C
F007803C
F007803C
F007803C
F007803C
F007803C
F007803C
F007803C
F007803C
F007803C
F007803C
F007803C
F007803C
ENDCHAR
STARTCHAR n
ENCODING 110
SWIDTH 424 0
DWIDTH 24 0
BBX 18 29 3 0
BITMAP
F0F800
F3FE00
F7FF00
FFFF80
FC0F80
F80780
F80780
F803C0
F003C0
F003C0
F003C0
F003C0
F003C0
F003C0
F003C0
F003C0
F003C0
F003C0
F003C0
F003C0
F003C0
F003C0
F003C0
F003C0
F003C0
F003C0
F003C0
F003C0
F003C0
ENDCHAR
STARTCHAR o
ENCODING 111
SWIDTH 415 0
DWIDTH 23 0
BBX 17 29 3 0
BITMAP
07F000
1FFC00
3FFE00
7FFF00
7C0F80
F80F80
F00780
F00780
F00780
F00780
F00780
F00780
F00780
F00780
F00780
F00780
F00780
F00780
F00780
F00780
F00780
F00780
F00780
F80780
7C0F80
7FFF00
3FFE00
1FFC00
07F000
ENDCHAR
STARTCHAR p
ENCODING 112
SWIDTH 428 0
DWIDTH 24 0
BBX 17 40 4 -11
BITMAP
F1F000
F7FC00
FFFE00
FFFF00
FC1F00
F80F80
F00780
F00780
F00780
F00780
F00780
F00780
F00780
F00780
F00780
F00780
F00780
F00780
F00780
F00780
F00780
F00780
F00780
F80F80
F81F00
FFFF00
FFFE00
F7FC00
F1F000
F00000
F00000
F00000
F00000
F00000
F00000
F00000
F00000
F00000
F00000
F00000
ENDCHAR
STARTCHAR q
ENCODING 113
SWIDTH 428 0
DWIDTH 24 0
BBX 17 40 3 -11
BITMAP
07C780
1FF780
3FFF80
7FFF80
7C1F80
F80F80
F00780
F00780
F00780
F00780
F00780
F00780
F00780
F00780
F00780
F00780
F00780
F00780
F00780
F00780
F00780
F00780
F00780
F80F80
7C1F80
7FFF80
3FFF80
1FF780
07C780
000780
000780
000780
000780
000780
000780
000780
000780
000780
000780
000780
ENDCHAR
STARTCHAR r
ENCODING 114
SWIDTH 292 0
DWIDTH 16 0
BBX 13 29 3 0
BITMAP
F0F0
F3F8
F7F0
F7F0
FE00
FC00
F800
F800
F800
F000
F000
F000
F000
F000
F000
F000
F000
F000
F000
F000
F000
F000
F000
F000
F000
F000
F000
F000
F000
ENDCHAR
STARTCHAR s
ENCODING 115
SWIDTH 374 0
DWIDTH 21 0
BBX 17 29 2 0
BITMAP
07F000
1FFC00
3FFE00
3FFF00
7C0F00
780780
780780
700780
700780
780000
780000
7E0000
3F8000
1FE000
07F800
01FC00
007E00
001F00
000F80
000780
700780
F00780
F00780
780780
7C0F80
7FFF00
3FFE00
1FFC00
07F000
ENDCHAR
STARTCHAR t
ENCODING 116
SWIDTH 267 0
DWIDTH 15 0
BBX 12 36 1 0
BITMAP
1E00
1E00
1E00
1E00
1E00
1E00
1E00
FFF0
FFF0
FFF0
7FF0
1E00
1E00
1E00
1E00
1E00
1E00
1E00
1E00
1E00
1E00
1E00
1E00
1E00
1E00
1E00
1E00
1E00
1E00
1F00
1F00
0F00
0FF0
0FF0
07F0
01F0
ENDCHAR
STARTCHAR u
ENCODING 117
SWIDTH 424 0
DWIDTH 24 0
BBX 17 29 3 0
BITMAP
F00780
F00780
F00780
F00780
F00780
F00780
F00780
F00780
F00780
F00780
F00780
F00780
F00780
F00780
F00780
F00780
F00780
F00780
F00780
F00780
F00780
F00780
F00780
F80F80
7C1F80
7FFF80
3FFF80
1FF780
07C780
ENDCHAR
STARTCHAR v
ENCODING 118
SWIDTH 379 0
DWIDTH 21 0
BBX 19 29 1 0
BITMAP
F801E0
7803E0
7803C0
7803C0
7C03C0
3C07C0
3C0780
3C0780
3C0780
1E0780
1E0F00
1E0F00
1E0F00
0F0F00
0F1E00
0F1E00
0F1E00
071E00
079C00
07BC00
07BC00
03BC00
03F800
03F800
03F800
01F800
01F000
01F000
01F000
ENDCHAR
STARTCHAR w
ENCODING 119
SWIDTH 554 0
DWIDTH 31 0
BBX 29 29 1 0
BITMAP
F0070078
F00F8078
780F80F0
780F80F0
780F80F0
780F80F0
381F80E0
381FC0E0
3C1DC1E0
3C1DC1E0
3C1DC1E0
1C1DC1C0
1C39E1C0
1E38E3C0
1E38E3C0
1E38E3C0
0E38E380
0E70F380
0F707780
0F707780
07707700
07707700
07E07F00
07E03F00
07E03F00
03E03E00
03E03E00
03E03E00
03C01E00
ENDCHAR
STARTCHAR x
ENCODING 120
SWIDTH 376 0
DWIDTH 21 0
BBX 19 29 1 0
BITMAP
F801E0
7803C0
7803C0
3C0780
3C0780
1E0F00
1E0F00
0F1E00
0F1E00
07BC00
07BC00
03F800
03F800
01F000
01F000
01F000
03F800
03F800
07BC00
07BC00
0F1E00
0F1E00
1E0F00
1E0F00
3C0780
3C0780
7C03C0
7803C0
F801E0
ENDCHAR
STARTCHAR y
ENCODING 121
SWIDTH 368 0
DWIDTH 21 0
BBX 18 40 1 -11
BITMAP
F003C0
F003C0
7803C0
7803C0
7807C0
780780
3C0780
3C0780
3C0700
3C0F00
1C0F00
1E0F00
1E0E00
1E1E00
0E1E00
0F1E00
0F1C00
0F1C00
073C00
073C00
07B800
07B800
03B800
03F800
03F000
03F000
01F000
01F000
01E000
01E000
01E000
01E000
03C000
03C000
03C000
078000
3F8000
7F0000
7E0000
7C0000
ENDCHAR
STARTCHAR z
ENCODING 122
SWIDTH 361 0
DWIDTH 20 0
BBX 16 29 2 0
BITMAP
FFFF
FFFF
FFFF
7FFF
001F
003E
003E
007C
007C
00F8
00F8
01F0
01F0
03E0
03C0
07C0
0780
0F80
0F00
1F00
1E00
3E00
7C00
7C00
F800
FFFF
FFFF
FFFF
FFFF
ENDCHAR
STARTCHAR braceleft
ENCODING 123
SWIDTH 273 0
DWIDTH 15 0
BBX 13 51 1 -7
BITMAP
01F8
07F8
07F8
0FF0
0F80
0F00
0F00
0F00
0F00
0F00
0F00
0F00
0F00
0F00
0F00
0F00
0F00
0F00
0F00
0F00
0F00
1F00
1E00
7E00
FC00
F800
FC00
3E00
1E00
1F00
0F00
0F00
0F00
0F00
0F00
0F00
0F00
0F00
0F00
0F00
0F00
0F00
0F00
0F00
0F00
0F00
0F80
0FF0
07F8
07F8
01F8
ENDCHAR
STARTCHAR bar
ENCODING 124
SWIDTH 144 0
DWIDTH 8 0
BBX 4 48 2 -5
BITMAP
60
F0
F0
F0
F0
F0
F0
F0
F0
F0
F0
F0
F0
F0
F0
F0
F0
F0
F0
F0
F0
F0
F0
F0
F0
F0
F0
F0
F0
F0
F0
F0
F0
F0
F0
F0
F0
F0
F0
F0
F0
F0
F0
F0
F0
F0
F0
F0
ENDCHAR
STARTCHAR braceright
ENCODING 125
SWIDTH 273 0
DWIDTH 15 0
BBX 13 51 1 -7
BITMAP
FE00
FF00
FF80
7F80
0780
0780
0780
0780
0780
0780
0780
0780
0780
0780
0780
0780
0780
0780
0780
0780
03C0
03C0
03C0
03F0
01F8
00F8
01F8
03E0
03C0
03C0
03C0
0780
0780
0780
0780
0780
0780
0780
0780
0780
0780
0780
0780
0780
0780
0780
0780
7F80
FF80
FF00
FE00
ENDCHAR
STARTCHAR asciitilde
ENCODING 126
SWIDTH 461 0
DWIDTH 26 0
BBX 22 7 2 13
BITMAP
0F8000
3FE018
7FF03C
FFFFF8
F03FF8
601FF0
0007C0
ENDCHAR
STARTCHAR uni00A0
ENCODING 160
SWIDTH 200 0
DWIDTH 11 0
BBX 1 1 0 0
BITMAP
00
ENDCHAR
STARTCHAR exclamdown
ENCODING 161
SWIDTH 251 0
DWIDTH 14 0
BBX 6 39 4 1
BITMAP
78
FC
FC
FC
FC
78
00
00
00
00
00
00
78
78
78
78
78
78
78
78
78
78
78
78
78
78
78
78
78
78
78
78
78
78
78
78
78
78
78
ENDCHAR
STARTCHAR cent
ENCODING 162
SWIDTH 402 0
DWIDTH 23 0
BBX 17 39 3 0
BITMAP
01C000
01C000
01C000
01C000
01C000
0FF800
1FFC00
3FFF00
7C1F00
F80F80
F00780
F00780
F00780
F00380
F00000
F00000
F00000
F00000
F00000
F00000
F00000
F00000
F00000
F00000
F00000
F00380
F00780
F00780
F00780
F80F80
7C1F00
3FFF00
1FFE00
0FF800
01C000
01C000
01C000
01C000
01C000
ENDCHAR
STARTCHAR sterling
ENCODING 163
SWIDTH 503 0
DWIDTH 28 0
BBX 22 40 4 0
BITMAP
003F00
00FFC0
01FFE0
03FFF0
07C0F8
078078
078078
0F003C
0F0030
0F0000
0F0000
0F0000
0F0000
0F0000
0F0000
0F0000
0F0000
0F0000
0F0000
FFFF80
FFFF80
FFFF80
7FFF00
0F0000
0F0000
0F0000
0F0000
0F0000
0F0000
0F0000
0F0000
0F0000
0F0000
1E0000
1E0000
1E0000
3FFFFC
3FFFFC
3FFFFC
3FFFFC
ENDCHAR
STARTCHAR currency
ENCODING 164
SWIDTH 511 0
DWIDTH 29 0
BBX 26 26 1 5
BITMAP
20000080
700001C0
F83F03C0
7CFFE7C0
3FFFFF80
1FFFFF00
0F807E00
0F003E00
1E001E00
1C000F00
3C000F00
3C000700
38000700
38000700
3C000700
3C000F00
3C000F00
1E001E00
1E001E00
0F803C00
0FC0FE00
1FFFFF00
3FFFEF80
7CFFC7C0
780403C0
30000180
ENDCHAR
STARTCHAR yen
ENCODING 165
SWIDTH 523 0
DWIDTH 29 0
BBX 21 40 4 0
BITMAP
7800F0
7800F0
7801F0
3C01E0
3C01E0
3C03E0
1E03C0
1E03C0
0E0380
0F0780
0F0780
070700
078F00
078F00
038E00
03DE00
03DE00
01FC00
01FC00
00FC00
00F800
FFFFF8
FFFFF8
00F000
00F000
00F000
00F000
FFFFF8
FFFFF8
FFFFF8
00F000
00F000
00F000
00F000
00F000
00F000
00F000
00F000
00F000
007000
ENDCHAR
STARTCHAR brokenbar
ENCODING 166
SWIDTH 144 0
DWIDTH 8 0
BBX 4 48 2 -5
BITMAP
F0
F0
F0
F0
F0
F0
F0
F0
F0
F0
F0
F0
F0
F0
F0
F0
F0
F0
F0
F0
F0
00
00
00
00
00
00
F0
F0
F0
F0
F0
F0
F0
F0
F0
F0
F0
F0
F0
F0
F0
F0
F0
F0
F0
F0
F0
ENDCHAR
STARTCHAR section
ENCODING 167
SWIDTH 388 0
DWIDTH 22 0
BBX 17 51 2 -11
BITMAP
03F000
0FFC00
1FFE00
3FFE00
7C1F00
780F00
780F80
780780
780780
780780
780000
780000
780000
3C0000
3F0000
1F8000
0FE000
07F800
1FFE00
3FFF00
3C1F00
780F80
780780
780780
F00780
F00780
F00780
F80780
780780
780780
7C0F00
3F3F00
1FFE00
0FFC00
07F800
01FC00
007E00
001F00
000F00
000780
000780
780780
780780
780780
780780
7C0F80
7C1F00
3FFF00
1FFE00
0FFC00
03F000
ENDCHAR
STARTCHAR dieresis
ENCODING 168
SWIDTH 306 0
DWIDTH 17 0
BBX 15 6 1 34
BITMAP
383C
7C7E
FE7E
FE7E
7C7E
383C
ENDCHAR
STARTCHAR copyright
ENCODING 169
SWIDTH 835 0
DWIDTH 47 0
BBX 41 40 3 0
BITMAP
0003FFE00000
001FFFF80000
003F007E0000
00F8000F8000
01E00003C000
03C00001E000
07000000F000
0E0000007800
1E0000003800
1C0000001C00
380000000C00
38003E000E00
7000FF000600
7000E3800700
6000C1800700
E000C1800300
E000C0000300
E000C0000300
E000C0000380
E000C0000380
E000C0000380
E000C0000380
E000C0000300
E000C0000300
6000C1800700
7000C1800700
7000E3800700
3000FF000E00
38003E000E00
380000001C00
1C0000001C00
0E0000003800
0F0000007000
07800000E000
03C00003C000
01F000078000
007C003F0000
003FF7FC0000
000FFFF00000
0000FF800000
ENDCHAR
STARTCHAR ordfeminine
ENCODING 170
SWIDTH 276 0
DWIDTH 15 0
BBX 13 24 1 15
BITMAP
1F80
3FE0
78E0
7070
6070
0070
0070
0070
1FF0
3FF0
7870
F070
E070
E070
E070
E070
71F0
7FF0
1F30
0000
0000
FFF8
FFF8
FFF8
ENDCHAR
STARTCHAR guillemotleft
ENCODING 171
SWIDTH 472 0
DWIDTH 26 0
BBX 18 20 4 6
BITMAP
03C3C0
078380
070780
0F0F00
1E0F00
1E1E00
3C3C00
783C00
787800
F0F000
F0F000
787800
783800
3C3C00
1C1E00
1E0E00
0F0F00
070780
078380
03C3C0
ENDCHAR
STARTCHAR logicalnot
ENCODING 172
SWIDTH 442 0
DWIDTH 25 0
BBX 21 10 2 10
BITMAP
FFFFF0
FFFFF8
FFFFF8
FFFFF8
000038
000038
000038
000038
000038
000038
ENDCHAR
STARTCHAR uni00AD
ENCODING 173
SWIDTH 313 0
DWIDTH 18 0
BBX 14 4 2 16
BITMAP
FFF8
FFFC
FFFC
FFFC
ENDCHAR
STARTCHAR registered
ENCODING 174
SWIDTH 438 0
DWIDTH 25 0
BBX 22 22 1 18
BITMAP
00FE00
03FF80
0F03C0
1C00E0
380070
300038
60FC18
60FC0C
E0C60C
C0C60C
C0CE0C
C0FC0C
C0C80C
60CC0C
60CC1C
70C618
300038
380070
1C00E0
0F83C0
03FF80
00FE00
ENDCHAR
STARTCHAR macron
ENCODING 175
SWIDTH 491 0
DWIDTH 28 0
BBX 11 4 8 34
BITMAP
7FE0
FFE0
FFE0
FFE0
ENDCHAR
STARTCHAR degree
ENCODING 176
SWIDTH 358 0
DWIDTH 20 0
BBX 18 18 1 28
BITMAP
03F000
0FFC00
1FFE00
3C0F00
780780
700380
700180
E001C0
E001C0
E001C0
E001C0
700180
700380
780780
3C0F00
1FFE00
0FFC00
03F000
ENDCHAR
STARTCHAR plusminus
ENCODING 177
SWIDTH 442 0
DWIDTH 25 0
BBX 21 30 2 1
BITMAP
007000
007000
007000
007000
007000
007000
007000
007000
FFFFF0
FFFFF8
FFFFF8
FFFFF8
007000
007000
007000
007000
007000
007000
007000
007000
007000
000000
000000
000000
000000
000000
000000
FFFFF8
FFFFF8
FFFFF8
ENDCHAR
STARTCHAR uni00B2
ENCODING 178
SWIDTH 245 0
DWIDTH 14 0
BBX 12 24 1 25
BITMAP
1F00
3FC0
7FC0
71E0
E0E0
E0E0
E0E0
E0E0
00E0
00E0
01C0
01C0
0380
0780
0700
0F00
1E00
1E00
3C00
7800
7800
FFF0
FFF0
FFF0
ENDCHAR
STARTCHAR uni00B3
ENCODING 179
SWIDTH 263 0
DWIDTH 15 0
BBX 12 24 1 25
BITMAP
7FF0
7FF0
7FF0
00E0
01C0
03C0
0380
0700
0F00
0F80
0FC0
00E0
00E0
0060
0070
0070
6070
E070
E070
70E0
70E0
7FE0
3FC0
0F80
ENDCHAR
STARTCHAR acute
ENCODING 180
SWIDTH 180 0
DWIDTH 10 0
BBX 8 8 1 32
BITMAP
07
0E
1E
1C
38
38
70
F0
ENDCHAR
STARTCHAR uni00B5
ENCODING 181
SWIDTH 429 0
DWIDTH 24 0
BBX 18 40 3 -11
BITMAP
F003C0
F003C0
F003C0
F003C0
F003C0
F003C0
F003C0
F003C0
F003C0
F003C0
F003C0
F003C0
F003C0
F003C0
F003C0
F003C0
F003C0
F003C0
F003C0
F003C0
F003C0
F807C0
F807C0
F807C0
FC0FC0
FFFFC0
FFFBC0
FFF3C0
FFE3C0
F00000
F00000
F00000
F00000
F00000
F00000
F00000
F00000
F00000
F00000
F00000
ENDCHAR
STARTCHAR paragraph
ENCODING 182
SWIDTH 470 0
DWIDTH 26 0
BBX 20 51 2 -11
BITMAP
01FFF0
07FFF0
0FFFF0
1FFFF0
3FF070
7FF070
7FF070
7FF070
FFF070
FFF070
FFF070
FFF070
FFF070
FFF070
FFF070
FFF070
FFF070
FFF070
7FF070
7FF070
7FF070
3FF070
1FF070
0FF070
07F070
01F070
007070
007070
007070
007070
007070
007070
007070
007070
007070
007070
007070
007070
007070
007070
007070
007070
007070
007070
007070
007070
007070
007070
007070
007070
007070
ENDCHAR
STARTCHAR periodcentered
ENCODING 183
SWIDTH 196 0
DWIDTH 11 0
BBX 7 6 2 13
BITMAP
38
7C
FE
FE
7C
38
ENDCHAR
STARTCHAR cedilla
ENCODING 184
SWIDTH 121 0
DWIDTH 7 0
BBX 7 10 0 -10
BITMAP
70
38
1C
0C
0E
0E
0E
1E
FC
F8
ENDCHAR
STARTCHAR uni00B9
ENCODING 185
SWIDTH 145 0
DWIDTH 8 0
BBX 5 24 1 25
BITMAP
38
F8
F8
18
18
18
18
18
18
18
18
18
18
18
18
18
18
18
18
18
18
18
18
18
ENDCHAR
STARTCHAR ordmasculine
ENCODING 186
SWIDTH 280 0
DWIDTH 16 0
BBX 13 24 1 15
BITMAP
0FC0
3FE0
38F0
7070
7038
7038
7038
7038
7038
7038
7038
7038
7038
7038
7038
7070
38F0
1FE0
0F80
0000
0000
FFF8
FFF8
FFF8
ENDCHAR
STARTCHAR guillemotright
ENCODING 187
SWIDTH 472 0
DWIDTH 26 0
BBX 18 20 4 6
BITMAP
F07800
787800
383C00
3C1C00
1E1E00
0E0F00
0F0F00
078780
0783C0
03C3C0
03C1C0
0383C0
078780
0F0700
0E0F00
1E1E00
3C1C00
383C00
787800
F07800
ENDCHAR
STARTCHAR onequarter
ENCODING 188
SWIDTH 662 0
DWIDTH 37 0
BBX 35 40 1 0
BITMAP
3800001C00
F800003800
F800003800
1800007000
180000E000
180000E000
180001C000
180001C000
1800038000
1800070000
1800070000
18000E0000
18001E0000
18001C0000
1800380000
1800380000
1800700E00
1800E01C00
1800E01C00
1801C01C00
1801C03800
1803803800
1807003800
1807007000
000E007000
001C007000
001C00F1C0
003800E1C0
003800E1C0
007001E1C0
00E001C1C0
00E001FFE0
01C001FFE0
03C001FFE0
03800001C0
07000001C0
07000001C0
0E000001C0
1C000001C0
1C000001C0
ENDCHAR
STARTCHAR onehalf
ENCODING 189
SWIDTH 665 0
DWIDTH 37 0
BBX 35 40 1 0
BITMAP
3800001C00
F800003800
F800003800
1800007000
180000E000
180000E000
180001C000
180001C000
1800038000
1800070000
1800070000
18000E0000
18001E0000
18001C0000
1800380000
1800380000
1800701F00
1800E07F80
1800E07FC0
1801C0F1C0
1801C0E0E0
180380E0E0
180700E0E0
180700C0E0
000E0001C0
001C0001C0
001C0001C0
0038000380
0038000380
0070000700
00E0000F00
00E0000E00
01C0001E00
03C0003C00
0380003800
0700007800
070000F000
0E0000FFE0
1C0000FFE0
1C0000FFE0
ENDCHAR
STARTCHAR threequarters
ENCODING 190
SWIDTH 732 0
DWIDTH 41 0
BBX 39 40 1 0
BITMAP
7FF00001C0
7FF0000380
7FF0000380
00E0000700
01C0000E00
03C0000E00
0380001C00
0700003C00
0F00003800
0F80007000
0FC0007000
00E000E000
00E001C000
006001C000
0070038000
0070078000
60700700E0
E0700E01C0
E0700E01C0
70E01C01C0
70E0380380
7FE0380380
3FC0700380
0F80700700
0000E00700
0001C00700
0001C00E1C
0003800E1C
0007000E1C
0007001C1C
000E001C1C
000E001FFE
001C001FFE
0038001FFE
003800001C
007000001C
00F000001C
00E000001C
01C000001C
01C000001C
ENDCHAR
STARTCHAR questiondown
ENCODING 191
SWIDTH 370 0
DWIDTH 21 0
BBX 17 40 2 -11
BITMAP
01E000
03F000
03F000
03F000
03F000
01E000
000000
000000
000000
000000
000000
01E000
01E000
01E000
01E000
01E000
01E000
03E000
03C000
07C000
0F8000
1F0000
3E0000
7C0000
7C0000
F80000
F00000
F00000
F00780
F00780
F00780
F00780
F00780
F00780
F80F00
7C1F00
7FFE00
3FFC00
1FF800
07E000
ENDCHAR
STARTCHAR Agrave
ENCODING 192
SWIDTH 410 0
DWIDTH 23 0
BBX 21 51 1 0
BITMAP
070000
078000
038000
03C000
01C000
00E000
00E000
007000
000000
000000
000000
00F800
00F800
00F800
01F800
01FC00
01FC00
01FC00
01DC00
03DC00
03DE00
03DE00
038E00
038E00
078F00
078F00
078F00
070700
0F0700
0F0780
0F0780
0F0780
0E0380
1E03C0
1E03C0
1E03C0
1E03C0
3C01C0
3C01E0
3C01E0
3FFFE0
3FFFE0
7FFFF0
7FFFF0
7800F0
7800F0
7800F0
F00078
F00078
F00078
F00078
ENDCHAR
STARTCHAR Aacute
ENCODING 193
SWIDTH 410 0
DWIDTH 23 0
BBX 21 51 1 0
BITMAP
000E00
001E00
001C00
003C00
003800
007000
007000
00E000
000000
000000
000000
00F800
00F800
00F800
01F800
01FC00
01FC00
01FC00
01DC00
03DC00
03DE00
03DE00
038E00
038E00
078F00
078F00
078F00
070700
0F0700
0F0780
0F0780
0F0780
0E0380
1E03C0
1E03C0
1E03C0
1E03C0
3C01C0
3C01E0
3C01E0
3FFFE0
3FFFE0
7FFFF0
7FFFF0
7800F0
7800F0
7800F0
F00078
F00078
F00078
F00078
ENDCHAR
STARTCHAR Acircumflex
ENCODING 194
SWIDTH 410 0
DWIDTH 23 0
BBX 21 51 1 0
BITMAP
00F800
01F800
01DC00
03DE00
078E00
070F00
0F0780
000000
000000
000000
000000
00F800
00F800
00F800
01F800
01FC00
01FC00
01FC00
01DC00
03DC00
03DE00
03DE00
038E00
038E00
078F00
078F00
078F00
070700
0F0700
0F0780
0F0780
0F0780
0E0380
1E03C0
1E03C0
1E03C0
1E03C0
3C01C0
3C01E0
3C01E0
3FFFE0
3FFFE0
7FFFF0
7FFFF0
7800F0
7800F0
7800F0
F00078
F00078
F00078
F00078
ENDCHAR
STARTCHAR Atilde
ENCODING 195
SWIDTH 410 0
DWIDTH 23 0
BBX 21 51 1 0
BITMAP
03C080
07F0C0
0FFFC0
0E3F80
040F00
000000
000000
000000
000000
000000
000000
00F800
00F800
00F800
01F800
01FC00
01FC00
01FC00
01DC00
03DC00
03DE00
03DE00
038E00
038E00
078F00
078F00
078F00
070700
0F0700
0F0780
0F0780
0F0780
0E0380
1E03C0
1E03C0
1E03C0
1E03C0
3C01C0
3C01E0
3C01E0
3FFFE0
3FFFE0
7FFFF0
7FFFF0
7800F0
7800F0
7800F0
F00078
F00078
F00078
F00078
ENDCHAR
STARTCHAR Adieresis
ENCODING 196
SWIDTH 410 0
DWIDTH 23 0
BBX 21 51 1 0
BITMAP
0F0700
1F8F80
1F9FC0
1F8FC0
1F8F80
0F0700
000000
000000
000000
000000
000000
00F800
00F800
00F800
01F800
01FC00
01FC00
01FC00
01DC00
03DC00
03DE00
03DE00
038E00
038E00
078F00
078F00
078F00
070700
0F0700
0F0780
0F0780
0F0780
0E0380
1E03C0
1E03C0
1E03C0
1E03C0
3C01C0
3C01E0
3C01E0
3FFFE0
3FFFE0
7FFFF0
7FFFF0
7800F0
7800F0
7800F0
F00078
F00078
F00078
F00078
ENDCHAR
STARTCHAR Aring
ENCODING 197
SWIDTH 410 0
DWIDTH 23 0
BBX 21 56 1 0
BITMAP
00F800
03FE00
038E00
070700
060300
060300
060300
060300
070700
038E00
01FC00
00F800
000000
000000
000000
000000
00F800
00F800
00F800
01F800
01FC00
01FC00
01FC00
01DC00
03DC00
03DE00
03DE00
038E00
038E00
078F00
078F00
078F00
070700
0F0700
0F0780
0F0780
0F0780
0E0380
1E03C0
1E03C0
1E03C0
1E03C0
3C01C0
3C01E0
3C01E0
3FFFE0
3FFFE0
7FFFF0
7FFFF0
7800F0
7800F0
7800F0
F00078
F00078
F00078
F00078
ENDCHAR
STARTCHAR AE
ENCODING 198
SWIDTH 699 0
DWIDTH 39 0
BBX 36 40 1 0
BITMAP
0000FFFFF0
0000FFFFF0
0000FFFFF0
0001FFFFE0
0001FC0000
0003FC0000
0003FC0000
0007BC0000
0007BC0000
0007BC0000
000F3C0000
000F3C0000
001E3C0000
001E3C0000
003E3C0000
003C3C0000
003C3C0000
00783C0000
00783FFE00
00F03FFE00
00F03FFE00
01F03FFE00
01E03C0000
01E03C0000
03C03C0000
03C03C0000
07C03C0000
07803C0000
07803C0000
0FFFFC0000
0FFFFC0000
1FFFFC0000
1FFFFC0000
3E003C0000
3C003C0000
3C003C0000
78003FFFE0
78003FFFF0
F0003FFFF0
F0003FFFF0
ENDCHAR
STARTCHAR Ccedilla
ENCODING 199
SWIDTH 446 0
DWIDTH 25 0
BBX 19 50 3 -10
BITMAP
03F800
0FFE00
1FFF00
3FFF80
7C07C0
7803C0
F801E0
F001E0
F001E0
F001E0
F001E0
F00000
F00000
F00000
F00000
F00000
F00000
F00000
F00000
F00000
F00000
F00000
F00000
F00000
F00000
F00000
F00000
F00000
F00000
F001E0
F001E0
F001E0
F001E0
F001E0
7803E0
7C07C0
3E0FC0
3FFF80
0FFF00
07FC00
00E000
007000
003800
003800
001800
001C00
003C00
007800
01F800
01E000
ENDCHAR
STARTCHAR Egrave
ENCODING 200
SWIDTH 429 0
DWIDTH 24 0
BBX 18 51 4 0
BITMAP
0C0000
1E0000
0F0000
070000
078000
038000
01C000
01C000
000000
000000
000000
FFFFC0
FFFFC0
FFFFC0
FFFF80
F00000
F00000
F00000
F00000
F00000
F00000
F00000
F00000
F00000
F00000
F00000
F00000
F00000
F00000
FFF000
FFF800
FFF800
FFF800
F00000
F00000
F00000
F00000
F00000
F00000
F00000
F00000
F00000
F00000
F00000
F00000
F00000
F00000
FFFF80
FFFFC0
FFFFC0
FFFFC0
ENDCHAR
STARTCHAR Eacute
ENCODING 201
SWIDTH 429 0
DWIDTH 24 0
BBX 18 51 4 0
BITMAP
001800
003800
007800
007000
00E000
00E000
01C000
03C000
000000
000000
000000
FFFFC0
FFFFC0
FFFFC0
FFFF80
F00000
F00000
F00000
F00000
F00000
F00000
F00000
F00000
F00000
F00000
F00000
F00000
F00000
F00000
FFF000
FFF800
FFF800
FFF800
F00000
F00000
F00000
F00000
F00000
F00000
F00000
F00000
F00000
F00000
F00000
F00000
F00000
F00000
FFFF80
FFFFC0
FFFFC0
FFFFC0
ENDCHAR
STARTCHAR Ecircumflex
ENCODING 202
SWIDTH 429 0
DWIDTH 24 0
BBX 18 51 4 0
BITMAP
03E000
03F000
07F800
073800
0F3C00
1E1C00
1C1E00
000000
000000
000000
000000
FFFFC0
FFFFC0
FFFFC0
FFFF80
F00000
F00000
F00000
F00000
F00000
F00000
F00000
F00000
F00000
F00000
F00000
F00000
F00000
F00000
FFF000
FFF800
FFF800
FFF800
F00000
F00000
F00000
F00000
F00000
F00000
F00000
F00000
F00000
F00000
F00000
F00000
F00000
F00000
FFFF80
FFFFC0
FFFFC0
FFFFC0
ENDCHAR
STARTCHAR Edieresis
ENCODING 203
SWIDTH 429 0
DWIDTH 24 0
BBX 18 51 4 0
BITMAP
1E1E00
3F3F00
3F3F00
3F3F00
3E3F00
1C1E00
000000
000000
000000
000000
000000
FFFFC0
FFFFC0
FFFFC0
FFFF80
F00000
F00000
F00000
F00000
F00000
F00000
F00000
F00000
F00000
F00000
F00000
F00000
F00000
F00000
FFF000
FFF800
FFF800
FFF800
F00000
F00000
F00000
F00000
F00000
F00000
F00000
F00000
F00000
F00000
F00000
F00000
F00000
F00000
FFFF80
FFFFC0
FFFFC0
FFFFC0
ENDCHAR
STARTCHAR Igrave
ENCODING 204
SWIDTH 215 0
DWIDTH 12 0
BBX 8 51 0 0
BITMAP
60
F0
78
38
3C
1C
0E
0E
00
00
00
0F
0F
0F
0F
0F
0F
0F
0F
0F
0F
0F
0F
0F
0F
0F
0F
0F
0F
0F
0F
0F
0F
0F
0F
0F
0F
0F
0F
0F
0F
0F
0F
0F
0F
0F
0F
0F
0F
0F
0F
ENDCHAR
STARTCHAR Iacute
ENCODING 205
SWIDTH 215 0
DWIDTH 12 0
BBX 7 51 4 0
BITMAP
0E
1C
3C
38
70
70
E0
E0
00
00
00
F0
F0
F0
F0
F0
F0
F0
F0
F0
F0
F0
F0
F0
F0
F0
F0
F0
F0
F0
F0
F0
F0
F0
F0
F0
F0
F0
F0
F0
F0
F0
F0
F0
F0
F0
F0
F0
F0
F0
F0
ENDCHAR
STARTCHAR Icircumflex
ENCODING 206
SWIDTH 215 0
DWIDTH 12 0
BBX 12 51 0 0
BITMAP
0F00
1F80
3FC0
39C0
79E0
F0F0
E0F0
0000
0000
0000
0000
0F00
0F00
0F00
0F00
0F00
0F00
0F00
0F00
0F00
0F00
0F00
0F00
0F00
0F00
0F00
0F00
0F00
0F00
0F00
0F00
0F00
0F00
0F00
0F00
0F00
0F00
0F00
0F00
0F00
0F00
0F00
0F00
0F00
0F00
0F00
0F00
0F00
0F00
0F00
0F00
ENDCHAR
STARTCHAR Idieresis
ENCODING 207
SWIDTH 215 0
DWIDTH 12 0
BBX 14 51 -1 0
BITMAP
7878
FCFC
FCFC
FCFC
FCFC
7878
0000
0000
0000
0000
0000
0780
0780
0780
0780
0780
0780
0780
0780
0780
0780
0780
0780
0780
0780
0780
0780
0780
0780
0780
0780
0780
0780
0780
0780
0780
0780
0780
0780
0780
0780
0780
0780
0780
0780
0780
0780
0780
0780
0780
0780
ENDCHAR
STARTCHAR Eth
ENCODING 208
SWIDTH 509 0
DWIDTH 29 0
BBX 21 40 4 0
BITMAP
3FFE00
3FFF80
3FFFC0
3FFFE0
3C01F0
3C00F0
3C00F8
3C0078
3C0078
3C0078
3C0078
3C0078
3C0078
3C0078
3C0078
3C0078
3C0078
3C0078
FFE078
FFE078
FFE078
3C0078
3C0078
3C0078
3C0078
3C0078
3C0078
3C0078
3C0078
3C0078
3C0078
3C0078
3C0078
3C00F8
3C00F0
3C01F0
3FFFE0
3FFFC0
3FFF80
3FFE00
ENDCHAR
STARTCHAR Ntilde
ENCODING 209
SWIDTH 493 0
DWIDTH 28 0
BBX 20 51 4 0
BITMAP
07C080
0FE1C0
0FFF80
1C3F80
081E00
000000
000000
000000
000000
000000
000000
F000F0
F800F0
F800F0
FC00F0
FC00F0
FC00F0
FE00F0
FE00F0
FE00F0
FF00F0
FF00F0
F780F0
F780F0
F780F0
F3C0F0
F3C0F0
F1C0F0
F1E0F0
F1E0F0
F0F0F0
F0F0F0
F0F0F0
F078F0
F078F0
F038F0
F03CF0
F03CF0
F01CF0
F01EF0
F01EF0
F00FF0
F00FF0
F007F0
F007F0
F007F0
F003F0
F003F0
F003F0
F001F0
F001F0
ENDCHAR
STARTCHAR Ograve
ENCODING 210
SWIDTH 456 0
DWIDTH 26 0
BBX 19 51 3 0
BITMAP
0E0000
0F0000
070000
038000
038000
01C000
01C000
00E000
000000
000000
000000
03F800
0FFE00
1FFF80
3FFF80
7C07C0
7803E0
F801E0
F001E0
F001E0
F001E0
F001E0
F001E0
F001E0
F001E0
F001E0
F001E0
F001E0
F001E0
F001E0
F001E0
F001E0
F001E0
F001E0
F001E0
F001E0
F001E0
F001E0
F001E0
F001E0
F001E0
F001E0
F001E0
F001E0
F801E0
7803E0
7C07C0
3FFF80
1FFF80
0FFE00
03F800
ENDCHAR
STARTCHAR Oacute
ENCODING 211
SWIDTH 456 0
DWIDTH 26 0
BBX 19 51 3 0
BITMAP
000C00
001C00
003800
007800
007000
00F000
00E000
01C000
000000
000000
000000
03F800
0FFE00
1FFF80
3FFF80
7C07C0
7803E0
F801E0
F001E0
F001E0
F001E0
F001E0
F001E0
F001E0
F001E0
F001E0
F001E0
F001E0
F001E0
F001E0
F001E0
F001E0
F001E0
F001E0
F001E0
F001E0
F001E0
F001E0
F001E0
F001E0
F001E0
F001E0
F001E0
F001E0
F801E0
7803E0
7C07C0
3FFF80
1FFF80
0FFE00
03F800
ENDCHAR
STARTCHAR Ocircumflex
ENCODING 212
SWIDTH 456 0
DWIDTH 26 0
BBX 19 51 3 0
BITMAP
01F000
01F800
03F800
07BC00
071E00
0F0E00
0E0F00
000000
000000
000000
000000
03F800
0FFE00
1FFF80
3FFF80
7C07C0
7803E0
F801E0
F001E0
F001E0
F001E0
F001E0
F001E0
F001E0
F001E0
F001E0
F001E0
F001E0
F001E0
F001E0
F001E0
F001E0
F001E0
F001E0
F001E0
F001E0
F001E0
F001E0
F001E0
F001E0
F001E0
F001E0
F001E0
F001E0
F801E0
7803E0
7C07C0
3FFF80
1FFF80
0FFE00
03F800
ENDCHAR
STARTCHAR Otilde
ENCODING 213
SWIDTH 456 0
DWIDTH 26 0
BBX 19 51 3 0
BITMAP
07C080
0FE1C0
1FFF80
1C3F80
081E00
000000
000000
000000
000000
000000
000000
03F800
0FFE00
1FFF80
3FFF80
7C07C0
7803E0
F801E0
F001E0
F001E0
F001E0
F001E0
F001E0
F001E0
F001E0
F001E0
F001E0
F001E0
F001E0
F001E0
F001E0
F001E0
F001E0
F001E0
F001E0
F001E0
F001E0
F001E0
F001E0
F001E0
F001E0
F001E0
F001E0
F001E0
F801E0
7803E0
7C07C0
3FFF80
1FFF80
0FFE00
03F800
ENDCHAR
STARTCHAR Odieresis
ENCODING 214
SWIDTH 456 0
DWIDTH 26 0
BBX 19 51 3 0
BITMAP
0E0F00
1F1F80
3F9F80
3F9F80
1F1F80
0E0F00
000000
000000
000000
000000
000000
03F800
0FFE00
1FFF80
3FFF80
7C07C0
7803E0
F801E0
F001E0
F001E0
F001E0
F001E0
F001E0
F001E0
F001E0
F001E0
F001E0
F001E0
F001E0
F001E0
F001E0
F001E0
F001E0
F001E0
F001E0
F001E0
F001E0
F001E0
F001E0
F001E0
F001E0
F001E0
F001E0
F001E0
F801E0
7803E0
7C07C0
3FFF80
1FFF80
0FFE00
03F800
ENDCHAR
STARTCHAR multiply
ENCODING 215
SWIDTH 370 0
DWIDTH 21 0
BBX 17 17 2 9
BITMAP
400200
E00700
F00F80
781F00
3C3E00
1E7C00
0FF800
07F000
03E000
07E000
0FF000
1F7800
3E3C00
7C1E00
F80F80
F00700
600200
ENDCHAR
STARTCHAR Oslash
ENCODING 216
SWIDTH 524 0
DWIDTH 29 0
BBX 20 43 3 -2
BITMAP
000060
03F870
0FFEE0
1FFFE0
3FFFE0
7E07C0
7803C0
7803E0
F003E0
F007E0
F007E0
F00FF0
F00EF0
F00EF0
F01CF0
F01CF0
F038F0
F038F0
F078F0
F070F0
F070F0
F0E0F0
F0E0F0
F1C0F0
F1C0F0
F3C0F0
F380F0
F380F0
F700F0
F700F0
FE00F0
FE00F0
FE01E0
FC01E0
7C01E0
7803E0
7C07C0
7FFFC0
7FFF80
FFFE00
E3F800
E00000
200000
ENDCHAR
STARTCHAR Ugrave
ENCODING 217
SWIDTH 476 0
DWIDTH 27 0
BBX 19 51 4 0
BITMAP
0C0000
0E0000
070000
070000
038000
03C000
01C000
00E000
000000
000000
000000
F001E0
F001E0
F001E0
F001E0
F001E0
F001E0
F001E0
F001E0
F001E0
F001E0
F001E0
F001E0
F001E0
F001E0
F001E0
F001E0
F001E0
F001E0
F001E0
F001E0
F001E0
F001E0
F001E0
F001E0
F001E0
F001E0
F001E0
F001E0
F001E0
F001E0
F001E0
F001E0
F001E0
F803C0
7807C0
7C0F80
3FFF80
1FFF00
0FFE00
03F800
ENDCHAR
STARTCHAR Uacute
ENCODING 218
SWIDTH 476 0
DWIDTH 27 0
BBX 19 51 4 0
BITMAP
001800
003C00
003800
007000
00F000
00E000
01E000
01C000
000000
000000
000000
F001E0
F001E0
F001E0
F001E0
F001E0
F001E0
F001E0
F001E0
F001E0
F001E0
F001E0
F001E0
F001E0
F001E0
F001E0
F001E0
F001E0
F001E0
F001E0
F001E0
F001E0
F001E0
F001E0
F001E0
F001E0
F001E0
F001E0
F001E0
F001E0
F001E0
F001E0
F001E0
F001E0
F803C0
7807C0
7C0F80
3FFF80
1FFF00
0FFE00
03F800
ENDCHAR
STARTCHAR Ucircumflex
ENCODING 219
SWIDTH 476 0
DWIDTH 27 0
BBX 19 51 4 0
BITMAP
01F000
03F000
03F800
07BC00
0F1C00
0E1E00
1E0E00
000000
000000
000000
000000
F001E0
F001E0
F001E0
F001E0
F001E0
F001E0
F001E0
F001E0
F001E0
F001E0
F001E0
F001E0
F001E0
F001E0
F001E0
F001E0
F001E0
F001E0
F001E0
F001E0
F001E0
F001E0
F001E0
F001E0
F001E0
F001E0
F001E0
F001E0
F001E0
F001E0
F001E0
F001E0
F001E0
F803C0
7807C0
7C0F80
3FFF80
1FFF00
0FFE00
03F800
ENDCHAR
STARTCHAR Udieresis
ENCODING 220
SWIDTH 476 0
DWIDTH 27 0
BBX 19 51 4 0
BITMAP
1E0E00
3F1F00
3F3F80
3F3F80
3F1F00
1E0E00
000000
000000
000000
000000
000000
F001E0
F001E0
F001E0
F001E0
F001E0
F001E0
F001E0
F001E0
F001E0
F001E0
F001E0
F001E0
F001E0
F001E0
F001E0
F001E0
F001E0
F001E0
F001E0
F001E0
F001E0
F001E0
F001E0
F001E0
F001E0
F001E0
F001E0
F001E0
F001E0
F001E0
F001E0
F001E0
F001E0
F803C0
7807C0
7C0F80
3FFF80
1FFF00
0FFE00
03F800
ENDCHAR
STARTCHAR Yacute
ENCODING 221
SWIDTH 424 0
DWIDTH 24 0
BBX 20 51 2 0
BITMAP
000C00
001C00
003C00
003800
007000
007000
00E000
01E000
000000
000000
000000
F000F0
F801E0
7801E0
7801E0
7C03C0
3C03C0
3C03C0
1C0780
1E0780
1E0780
0E0F00
0F0F00
0F0E00
071E00
079E00
079C00
03BC00
03FC00
01F800
01F800
01F800
00F000
00F000
00F000
00F000
00F000
00F000
00F000
00F000
00F000
00F000
00F000
00F000
00F000
00F000
00F000
00F000
00F000
00F000
00F000
ENDCHAR
STARTCHAR Thorn
ENCODING 222
SWIDTH 442 0
DWIDTH 25 0
BBX 19 40 4 0
BITMAP
F00000
F00000
F00000
F00000
F00000
F00000
F00000
F00000
F00000
FFF800
FFFE00
FFFF00
FFFF80
F00F80
F007C0
F003C0
F003E0
F001E0
F001E0
F001E0
F001E0
F001E0
F001E0
F003E0
F003C0
F007C0
F00F80
FFFF80
FFFF00
FFFE00
FFF800
F00000
F00000
F00000
F00000
F00000
F00000
F00000
F00000
F00000
ENDCHAR
STARTCHAR germandbls
ENCODING 223
SWIDTH 430 0
DWIDTH 24 0
BBX 18 40 3 0
BITMAP
03F000
0FFC00
1FFE00
3FFF00
3C0F80
7C0780
780780
7803C0
7803C0
F003C0
F003C0
F003C0
F003C0
F003C0
F00780
F00780
F00F80
F0FF00
F1FE00
F1FC00
F1FF00
F00F00
F00780
F00780
F003C0
F003C0
F003C0
F003C0
F003C0
F003C0
F003C0
F003C0
F003C0
F007C0
F00780
F00F80
F1FF00
F1FE00
F1FC00
F1F000
ENDCHAR
STARTCHAR agrave
ENCODING 224
SWIDTH 411 0
DWIDTH 23 0
BBX 18 40 2 0
BITMAP
0E0000
0F0000
070000
078000
038000
01C000
01C000
00E000
000000
000000
000000
03F800
0FFE00
1FFF00
3FFF80
3E0F80
7C07C0
7803C0
7803C0
0003C0
0003C0
0003C0
003FC0
07FFC0
1FFFC0
3FFFC0
7E03C0
7C03C0
7803C0
F803C0
F003C0
F003C0
F003C0
F803C0
F807C0
7C0FC0
7FFFC0
3FFFC0
1FFBC0
07E3C0
ENDCHAR
STARTCHAR aacute
ENCODING 225
SWIDTH 411 0
DWIDTH 23 0
BBX 18 40 2 0
BITMAP
001C00
003C00
003800
007800
007000
00E000
00E000
01C000
000000
000000
000000
03F800
0FFE00
1FFF00
3FFF80
3E0F80
7C07C0
7803C0
7803C0
0003C0
0003C0
0003C0
003FC0
07FFC0
1FFFC0
3FFFC0
7E03C0
7C03C0
7803C0
F803C0
F003C0
F003C0
F003C0
F803C0
F807C0
7C0FC0
7FFFC0
3FFFC0
1FFBC0
07E3C0
ENDCHAR
STARTCHAR acircumflex
ENCODING 226
SWIDTH 411 0
DWIDTH 23 0
BBX 18 40 2 0
BITMAP
01F000
03F000
03B800
07BC00
071C00
0F1E00
1E0F00
000000
000000
000000
000000
03F800
0FFE00
1FFF00
3FFF80
3E0F80
7C07C0
7803C0
7803C0
0003C0
0003C0
0003C0
003FC0
07FFC0
1FFFC0
3FFFC0
7E03C0
7C03C0
7803C0
F803C0
F003C0
F003C0
F003C0
F803C0
F807C0
7C0FC0
7FFFC0
3FFFC0
1FFBC0
07E3C0
ENDCHAR
STARTCHAR atilde
ENCODING 227
SWIDTH 411 0
DWIDTH 23 0
BBX 18 40 2 0
BITMAP
078100
0FE180
1FFF80
1C7F00
081E00
000000
000000
000000
000000
000000
000000
03F800
0FFE00
1FFF00
3FFF80
3E0F80
7C07C0
7803C0
7803C0
0003C0
0003C0
0003C0
003FC0
07FFC0
1FFFC0
3FFFC0
7E03C0
7C03C0
7803C0
F803C0
F003C0
F003C0
F003C0
F803C0
F807C0
7C0FC0
7FFFC0
3FFFC0
1FFBC0
07E3C0
ENDCHAR
STARTCHAR adieresis
ENCODING 228
SWIDTH 411 0
DWIDTH 23 0
BBX 18 40 2 0
BITMAP
0E0F00
1F1F80
3F1F80
3F9F80
1F1F00
0E0E00
000000
000000
000000
000000
000000
03F800
0FFE00
1FFF00
3FFF80
3E0F80
7C07C0
7803C0
7803C0
0003C0
0003C0
0003C0
003FC0
07FFC0
1FFFC0
3FFFC0
7E03C0
7C03C0
7803C0
F803C0
F003C0
F003C0
F003C0
F803C0
F807C0
7C0FC0
7FFFC0
3FFFC0
1FFBC0
07E3C0
ENDCHAR
STARTCHAR aring
ENCODING 229
SWIDTH 411 0
DWIDTH 23 0
BBX 18 45 2 0
BITMAP
01F000
07FC00
071C00
0E0E00
0C0600
0C0600
0C0600
0C0600
0E0E00
071C00
03F800
01F000
000000
000000
000000
000000
03F800
0FFE00
1FFF00
3FFF80
3E0F80
7C07C0
7803C0
7803C0
0003C0
0003C0
0003C0
003FC0
07FFC0
1FFFC0
3FFFC0
7E03C0
7C03C0
7803C0
F803C0
F003C0
F003C0
F003C0
F803C0
F807C0
7C0FC0
7FFFC0
3FFFC0
1FFBC0
07E3C0
ENDCHAR
STARTCHAR ae
ENCODING 230
SWIDTH 652 0
DWIDTH 37 0
BBX 32 29 2 0
BITMAP
03F00FE0
0FFC3FF8
1FFE7FFC
3FFF7FFE
7C0FF03E
7807E01F
7803E00F
7803E00F
0003C00F
0003C00F
0003C00F
0003C00F
03FFFFFF
0FFFFFFF
3FFFFFFF
7FFFFFFF
7C03C000
7803C000
F803C000
F003C000
F003C000
F003E00E
F003E00F
F807E01F
7C0FF03E
7FFFFFFE
3FFE7FFC
1FFC3FF8
07E00FE0
ENDCHAR
STARTCHAR ccedilla
ENCODING 231
SWIDTH 402 0
DWIDTH 23 0
BBX 17 39 3 -10
BITMAP
07F000
1FFC00
3FFE00
7FFF00
7C0F80
F80780
F00780
F00780
F00780
F00000
F00000
F00000
F00000
F00000
F00000
F00000
F00000
F00000
F00000
F00000
F00380
F00780
F00780
F00780
780F80
7C1F00
3FFF00
1FFE00
07F800
00C000
00E000
007000
007000
003000
003800
007000
00F000
03F000
03C000
ENDCHAR
STARTCHAR egrave
ENCODING 232
SWIDTH 408 0
DWIDTH 23 0
BBX 17 40 3 0
BITMAP
1C0000
1E0000
0E0000
0F0000
070000
078000
038000
01C000
000000
000000
000000
07F000
1FFC00
3FFE00
7FFF00
7C0F00
F80F80
F00780
F00780
F00780
F00780
F00780
F00780
FFFF80
FFFF80
FFFF80
FFFF80
F00000
F00000
F00000
F00000
F00000
F00780
F00780
F80F80
7C1F00
7FFF00
3FFE00
1FFC00
07F000
ENDCHAR
STARTCHAR eacute
ENCODING 233
SWIDTH 408 0
DWIDTH 23 0
BBX 17 40 3 0
BITMAP
003800
007800
007000
00F000
00E000
01C000
01C000
038000
000000
000000
000000
07F000
1FFC00
3FFE00
7FFF00
7C0F00
F80F80
F00780
F00780
F00780
F00780
F00780
F00780
FFFF80
FFFF80
FFFF80
FFFF80
F00000
F00000
F00000
F00000
F00000
F00780
F00780
F80F80
7C1F00
7FFF00
3FFE00
1FFC00
07F000
ENDCHAR
STARTCHAR ecircumflex
ENCODING 234
SWIDTH 408 0
DWIDTH 23 0
BBX 17 40 3 0
BITMAP
03E000
07E000
077000
0F7800
1E3800
1C3C00
3C1E00
000000
000000
000000
000000
07F000
1FFC00
3FFE00
7FFF00
7C0F00
F80F80
F00780
F00780
F00780
F00780
F00780
F00780
FFFF80
FFFF80
FFFF80
FFFF80
F00000
F00000
F00000
F00000
F00000
F00780
F00780
F80F80
7C1F00
7FFF00
3FFE00
1FFC00
07F000
ENDCHAR
STARTCHAR edieresis
ENCODING 235
SWIDTH 408 0
DWIDTH 23 0
BBX 17 40 3 0
BITMAP
3C1C00
7E3E00
7E7F00
7E3F00
7E3E00
3C1C00
000000
000000
000000
000000
000000
07F000
1FFC00
3FFE00
7FFF00
7C0F00
F80F80
F00780
F00780
F00780
F00780
F00780
F00780
FFFF80
FFFF80
FFFF80
FFFF80
F00000
F00000
F00000
F00000
F00000
F00780
F00780
F80F80
7C1F00
7FFF00
3FFE00
1FFC00
07F000
ENDCHAR
STARTCHAR igrave
ENCODING 236
SWIDTH 169 0
DWIDTH 9 0
BBX 8 40 -1 0
BITMAP
E0
F0
70
38
38
1C
1E
0E
00
00
00
0F
0F
0F
0F
0F
0F
0F
0F
0F
0F
0F
0F
0F
0F
0F
0F
0F
0F
0F
0F
0F
0F
0F
0F
0F
0F
0F
0F
0F
ENDCHAR
STARTCHAR iacute
ENCODING 237
SWIDTH 169 0
DWIDTH 9 0
BBX 7 40 2 0
BITMAP
06
0E
1C
3C
38
78
70
E0
00
00
00
78
78
78
78
78
78
78
78
78
78
78
78
78
78
78
78
78
78
78
78
78
78
78
78
78
78
78
78
78
ENDCHAR
STARTCHAR icircumflex
ENCODING 238
SWIDTH 169 0
DWIDTH 9 0
BBX 12 40 -1 0
BITMAP
1F00
1F80
3F80
7BC0
71E0
F0E0
E0F0
0000
0000
0000
0000
0F00
0F00
0F00
0F00
0F00
0F00
0F00
0F00
0F00
0F00
0F00
0F00
0F00
0F00
0F00
0F00
0F00
0F00
0F00
0F00
0F00
0F00
0F00
0F00
0F00
0F00
0F00
0F00
0F00
ENDCHAR
STARTCHAR idieresis
ENCODING 239
SWIDTH 169 0
DWIDTH 9 0
BBX 15 40 -3 0
BITMAP
383C
7C7E
FE7E
FE7E
7C7E
383C
0000
0000
0000
0000
0000
03C0
03C0
03C0
03C0
03C0
03C0
03C0
03C0
03C0
03C0
03C0
03C0
03C0
03C0
03C0
03C0
03C0
03C0
03C0
03C0
03C0
03C0
03C0
03C0
03C0
03C0
03C0
03C0
03C0
ENDCHAR
STARTCHAR eth
ENCODING 240
SWIDTH 432 0
DWIDTH 24 0
BBX 18 40 3 0
BITMAP
03C000
01E000
00F000
00F3C0
007FC0
01FE00
07FC00
031E00
000E00
000F00
000F00
07E700
1FF780
3FFF80
7FFF80
7C1F80
F80F80
F00780
F00780
F00780
F00780
F00780
F00780
F00780
F00780
F00780
F00780
F00780
F00780
F00780
F00780
F00780
F00780
F00780
F80F80
7C0F80
7FFF00
3FFE00
1FFC00
07F000
ENDCHAR
STARTCHAR ntilde
ENCODING 241
SWIDTH 424 0
DWIDTH 24 0
BBX 18 40 3 0
BITMAP
078000
0FC200
1FE700
1C7F00
083E00
001800
000000
000000
000000
000000
000000
F0F800
F3FE00
F7FF00
FFFF80
FC0F80
F80780
F80780
F803C0
F003C0
F003C0
F003C0
F003C0
F003C0
F003C0
F003C0
F003C0
F003C0
F003C0
F003C0
F003C0
F003C0
F003C0
F003C0
F003C0
F003C0
F003C0
F003C0
F003C0
F003C0
ENDCHAR
STARTCHAR ograve
ENCODING 242
SWIDTH 414 0
DWIDTH 23 0
BBX 17 40 3 0
BITMAP
1C0000
1E0000
0E0000
0F0000
070000
038000
038000
01C000
000000
000000
000000
07F000
1FFC00
3FFE00
7FFF00
7C0F80
F80F80
F00780
F00780
F00780
F00780
F00780
F00780
F00780
F00780
F00780
F00780
F00780
F00780
F00780
F00780
F00780
F00780
F00780
F80780
7C0F80
7FFF00
3FFE00
1FFC00
07F000
ENDCHAR
STARTCHAR oacute
ENCODING 243
SWIDTH 414 0
DWIDTH 23 0
BBX 17 40 3 0
BITMAP
003800
007800
007000
00F000
00E000
01C000
01C000
038000
000000
000000
000000
07F000
1FFC00
3FFE00
7FFF00
7C0F80
F80F80
F00780
F00780
F00780
F00780
F00780
F00780
F00780
F00780
F00780
F00780
F00780
F00780
F00780
F00780
F00780
F00780
F00780
F80780
7C0F80
7FFF00
3FFE00
1FFC00
07F000
ENDCHAR
STARTCHAR ocircumflex
ENCODING 244
SWIDTH 414 0
DWIDTH 23 0
BBX 17 40 3 0
BITMAP
03E000
07F000
077000
0F7800
0E3800
1E1C00
3C1E00
000000
000000
000000
000000
07F000
1FFC00
3FFE00
7FFF00
7C0F80
F80F80
F00780
F00780
F00780
F00780
F00780
F00780
F00780
F00780
F00780
F00780
F00780
F00780
F00780
F00780
F00780
F00780
F00780
F80780
7C0F80
7FFF00
3FFE00
1FFC00
07F000
ENDCHAR
STARTCHAR otilde
ENCODING 245
SWIDTH 414 0
DWIDTH 23 0
BBX 17 40 3 0
BITMAP
0F0100
1FC380
3FFF00
38FE00
103C00
000000
000000
000000
000000
000000
000000
07F000
1FFC00
3FFE00
7FFF00
7C0F80
F80F80
F00780
F00780
F00780
F00780
F00780
F00780
F00780
F00780
F00780
F00780
F00780
F00780
F00780
F00780
F00780
F00780
F00780
F80780
7C0F80
7FFF00
3FFE00
1FFC00
07F000
ENDCHAR
STARTCHAR odieresis
ENCODING 246
SWIDTH 414 0
DWIDTH 23 0
BBX 17 40 3 0
BITMAP
1C1E00
3E3F00
7F3F00
7F3F00
3E3F00
1C1E00
000000
000000
000000
000000
000000
07F000
1FFC00
3FFE00
7FFF00
7C0F80
F80F80
F00780
F00780
F00780
F00780
F00780
F00780
F00780
F00780
F00780
F00780
F00780
F00780
F00780
F00780
F00780
F00780
F00780
F80780
7C0F80
7FFF00
3FFE00
1FFC00
07F000
ENDCHAR
STARTCHAR divide
ENCODING 247
SWIDTH 442 0
DWIDTH 25 0
BBX 21 23 2 7
BITMAP
007000
00F800
01F800
01F800
00F800
007000
000000
000000
000000
000000
FFFFF8
FFFFF8
FFFFF8
FFFFF0
000000
000000
000000
007000
00F800
01F800
01F800
00F800
007000
ENDCHAR
STARTCHAR oslash
ENCODING 248
SWIDTH 430 0
DWIDTH 24 0
BBX 18 33 3 -2
BITMAP
000380
0003C0
03F780
1FFF80
3FFF00
7FFF00
7C1F80
F81F80
F01F80
F03F80
F03F80
F07BC0
F07BC0
F0F3C0
F0F3C0
F0E3C0
F1E3C0
F1C3C0
F3C3C0
F383C0
F783C0
F783C0
FF07C0
FF0780
FE0780
FE0780
7C0F80
7FFF00
3FFE00
7FFC00
77F000
F00000
600000
ENDCHAR
STARTCHAR ugrave
ENCODING 249
SWIDTH 424 0
DWIDTH 24 0
BBX 17 40 3 0
BITMAP
1C0000
1E0000
0E0000
0F0000
070000
038000
038000
01C000
000000
000000
000000
F00780
F00780
F00780
F00780
F00780
F00780
F00780
F00780
F00780
F00780
F00780
F00780
F00780
F00780
F00780
F00780
F00780
F00780
F00780
F00780
F00780
F00780
F00780
F80F80
7C1F80
7FFF80
3FFF80
1FF780
07C780
ENDCHAR
STARTCHAR uacute
ENCODING 250
SWIDTH 424 0
DWIDTH 24 0
BBX 17 40 3 0
BITMAP
003800
007800
007000
00F000
00E000
01E000
01C000
038000
000000
000000
000000
F00780
F00780
F00780
F00780
F00780
F00780
F00780
F00780
F00780
F00780
F00780
F00780
F00780
F00780
F00780
F00780
F00780
F00780
F00780
F00780
F00780
F00780
F00780
F80F80
7C1F80
7FFF80
3FFF80
1FF780
07C780
ENDCHAR
STARTCHAR ucircumflex
ENCODING 251
SWIDTH 424 0
DWIDTH 24 0
BBX 17 40 3 0
BITMAP
03E000
03F000
077000
0F7800
0E3C00
1E1C00
3C1E00
000000
000000
000000
000000
F00780
F00780
F00780
F00780
F00780
F00780
F00780
F00780
F00780
F00780
F00780
F00780
F00780
F00780
F00780
F00780
F00780
F00780
F00780
F00780
F00780
F00780
F00780
F80F80
7C1F80
7FFF80
3FFF80
1FF780
07C780
ENDCHAR
STARTCHAR udieresis
ENCODING 252
SWIDTH 424 0
DWIDTH 24 0
BBX 17 40 3 0
BITMAP
1C1E00
3E3F00
7F3F00
7F3F00
3E3F00
1C1E00
000000
000000
000000
000000
000000
F00780
F00780
F00780
F00780
F00780
F00780
F00780
F00780
F00780
F00780
F00780
F00780
F00780
F00780
F00780
F00780
F00780
F00780
F00780
F00780
F00780
F00780
F00780
F80F80
7C1F80
7FFF80
3FFF80
1FF780
07C780
ENDCHAR
STARTCHAR yacute
ENCODING 253
SWIDTH 367 0
DWIDTH 21 0
BBX 18 51 1 -11
BITMAP
001800
003C00
003800
007000
00F000
00E000
01C000
01C000
000000
000000
000000
F003C0
F003C0
7803C0
7803C0
7807C0
780780
3C0780
3C0780
3C0700
3C0F00
1C0F00
1E0F00
1E0E00
1E1E00
0E1E00
0F1E00
0F1C00
0F1C00
073C00
073C00
07B800
07B800
03B800
03F800
03F000
03F000
01F000
01F000
01E000
01E000
01E000
01E000
03C000
03C000
03C000
078000
3F8000
7F0000
7E0000
7C0000
ENDCHAR
STARTCHAR thorn
ENCODING 254
SWIDTH 417 0
DWIDTH 23 0
BBX 18 51 3 -11
BITMAP
F00000
F00000
F00000
F00000
F00000
F00000
F00000
F00000
F00000
F00000
F00000
F1F800
F3FE00
F7FF00
FFFF00
FC0F80
F80780
F00780
F007C0
F003C0
F003C0
F003C0
F003C0
F003C0
F003C0
F003C0
F003C0
F003C0
F003C0
F003C0
F003C0
F003C0
F007C0
F00780
F80780
FC0F80
FFFF00
F7FF00
F3FE00
F1F800
F00000
F00000
F00000
F00000
F00000
F00000
F00000
F00000
F00000
F00000
F00000
ENDCHAR
STARTCHAR ydieresis
ENCODING 255
SWIDTH 367 0
DWIDTH 21 0
BBX 18 51 1 -11
BITMAP
1E0E00
3F1F00
3F3F80
3F3F80
3F1F00
1E0E00
000000
000000
000000
000000
000000
F003C0
F003C0
7803C0
7803C0
7807C0
780780
3C0780
3C0780
3C0700
3C0F00
1C0F00
1E0F00
1E0E00
1E1E00
0E1E00
0F1E00
0F1C00
0F1C00
073C00
073C00
07B800
07B800
03B800
03F800
03F000
03F000
01F000
01F000
01E000
01E000
01E000
01E000
03C000
03C000
03C000
078000
3F8000
7F0000
7E0000
7C0000
ENDCHAR
STARTCHAR Amacron
ENCODING 256
SWIDTH 410 0
DWIDTH 23 0
BBX 21 49 1 0
BITMAP
07FF00
07FF00
07FF00
07FF00
000000
000000
000000
000000
000000
00F800
00F800
00F800
01F800
01FC00
01FC00
01FC00
01DC00
03DC00
03DE00
03DE00
038E00
038E00
078F00
078F00
078F00
070700
0F0700
0F0780
0F0780
0F0780
0E0380
1E03C0
1E03C0
1E03C0
1E03C0
3C01C0
3C01E0
3C01E0
3FFFE0
3FFFE0
7FFFF0
7FFFF0
7800F0
7800F0
7800F0
F00078
F00078
F00078
F00078
ENDCHAR
STARTCHAR amacron
ENCODING 257
SWIDTH 411 0
DWIDTH 23 0
BBX 18 38 2 0
BITMAP
0FFE00
0FFE00
0FFE00
0FFE00
000000
000000
000000
000000
000000
03F800
0FFE00
1FFF00
3FFF80
3E0F80
7C07C0
7803C0
7803C0
0003C0
0003C0
0003C0
003FC0
07FFC0
1FFFC0
3FFFC0
7E03C0
7C03C0
7803C0
F803C0
F003C0
F003C0
F003C0
F803C0
F807C0
7C0FC0
7FFFC0
3FFFC0
1FFBC0
07E3C0
ENDCHAR
STARTCHAR Abreve
ENCODING 258
SWIDTH 410 0
DWIDTH 23 0
BBX 21 49 1 0
BITMAP
060300
060300
070700
038E00
03FE00
00F800
000000
000000
000000
00F800
00F800
00F800
01F800
01FC00
01FC00
01FC00
01DC00
03DC00
03DE00
03DE00
038E00
038E00
078F00
078F00
078F00
070700
0F0700
0F0780
0F0780
0F0780
0E0380
1E03C0
1E03C0
1E03C0
1E03C0
3C01C0
3C01E0
3C01E0
3FFFE0
3FFFE0
7FFFF0
7FFFF0
7800F0
7800F0
7800F0
F00078
F00078
F00078
F00078
ENDCHAR
STARTCHAR abreve
ENCODING 259
SWIDTH 411 0
DWIDTH 23 0
BBX 18 38 2 0
BITMAP
0C0600
0C0600
0E0E00
071C00
03FC00
01F000
000000
000000
000000
03F800
0FFE00
1FFF00
3FFF80
3E0F80
7C07C0
7803C0
7803C0
0003C0
0003C0
0003C0
003FC0
07FFC0
1FFFC0
3FFFC0
7E03C0
7C03C0
7803C0
F803C0
F003C0
F003C0
F003C0
F803C0
F807C0
7C0FC0
7FFFC0
3FFFC0
1FFBC0
07E3C0
ENDCHAR
STARTCHAR Aogonek
ENCODING 260
SWIDTH 410 0
DWIDTH 23 0
BBX 22 50 1 -10
BITMAP
00F800
00F800
00F800
01F800
01FC00
01FC00
01FC00
01DC00
03DC00
03DE00
03DE00
038E00
038E00
078F00
078F00
078F00
070700
0F0700
0F0780
0F0780
0F0780
0E0380
1E03C0
1E03C0
1E03C0
1E03C0
3C01C0
3C01E0
3C01E0
3FFFE0
3FFFE0
7FFFF0
7FFFF0
7800F0
7800F0
7800F0
F00078
F00078
F00078
F00078
000070
000070
0000E0
0000E0
0000C0
0000C0
0000E0
0000F4
0000FC
00003C
ENDCHAR
STARTCHAR aogonek
ENCODING 261
SWIDTH 411 0
DWIDTH 23 0
BBX 19 39 2 -10
BITMAP
03F800
0FFE00
1FFF00
3FFF80
3E0F80
7C07C0
7803C0
7803C0
0003C0
0003C0
0003C0
003FC0
07FFC0
1FFFC0
3FFFC0
7E03C0
7C03C0
7803C0
F803C0
F003C0
F003C0
F003C0
F803C0
F807C0
7C0FC0
7FFFC0
3FFFC0
1FFBC0
07E1C0
000380
000380
000700
000600
000E00
000E00
000600
000700
0007E0
0001E0
ENDCHAR
STARTCHAR Cacute
ENCODING 262
SWIDTH 446 0
DWIDTH 25 0
BBX 19 51 3 0
BITMAP
001C00
003C00
003800
007800
007000
00E000
00E000
01C000
000000
000000
000000
03F800
0FFE00
1FFF00
3FFF80
7C07C0
7803C0
F801E0
F001E0
F001E0
F001E0
F001E0
F00000
F00000
F00000
F00000
F00000
F00000
F00000
F00000
F00000
F00000
F00000
F00000
F00000
F00000
F00000
F00000
F00000
F00000
F001E0
F001E0
F001E0
F001E0
F801E0
7803C0
7C07C0
3FFF80
1FFF00
0FFE00
03F800
ENDCHAR
STARTCHAR cacute
ENCODING 263
SWIDTH 402 0
DWIDTH 23 0
BBX 17 40 3 0
BITMAP
003800
007800
007000
00F000
00E000
01C000
01C000
038000
000000
000000
000000
07F000
1FFC00
3FFE00
7FFF00
7C0F80
F80780
F00780
F00780
F00780
F00000
F00000
F00000
F00000
F00000
F00000
F00000
F00000
F00000
F00000
F00000
F00780
F00780
F00780
F80780
7C0F80
7FFF00
3FFE00
1FFC00
07F000
ENDCHAR
STARTCHAR Ccircumflex
ENCODING 264
SWIDTH 446 0
DWIDTH 25 0
BBX 19 51 3 0
BITMAP
01F000
03F800
03B800
07BC00
071E00
0F0E00
0E0F00
000000
000000
000000
000000
03F800
0FFE00
1FFF00
3FFF80
7C07C0
7803C0
F801E0
F001E0
F001E0
F001E0
F001E0
F00000
F00000
F00000
F00000
F00000
F00000
F00000
F00000
F00000
F00000
F00000
F00000
F00000
F00000
F00000
F00000
F00000
F00000
F001E0
F001E0
F001E0
F001E0
F801E0
7803C0
7C07C0
3FFF80
1FFF00
0FFE00
03F800
ENDCHAR
STARTCHAR ccircumflex
ENCODING 265
SWIDTH 402 0
DWIDTH 23 0
BBX 17 40 3 0
BITMAP
03E000
07F000
077000
0F7800
0E3800
1E3C00
3C1E00
000000
000000
000000
000000
07F000
1FFC00
3FFE00
7FFF00
7C0F80
F80780
F00780
F00780
F00780
F00000
F00000
F00000
F00000
F00000
F00000
F00000
F00000
F00000
F00000
F00000
F00780
F00780
F00780
F80780
7C0F80
7FFF00
3FFE00
1FFC00
07F000
ENDCHAR
STARTCHAR Cdotaccent
ENCODING 266
SWIDTH 446 0
DWIDTH 25 0
BBX 19 51 3 0
BITMAP
00E000
01F000
01F800
01F800
01F000
00E000
000000
000000
000000
000000
000000
03F800
0FFE00
1FFF00
3FFF80
7C07C0
7803C0
F801E0
F001E0
F001E0
F001E0
F001E0
F00000
F00000
F00000
F00000
F00000
F00000
F00000
F00000
F00000
F00000
F00000
F00000
F00000
F00000
F00000
F00000
F00000
F00000
F001E0
F001E0
F001E0
F001E0
F801E0
7803C0
7C07C0
3FFF80
1FFF00
0FFE00
03F800
ENDCHAR
STARTCHAR cdotaccent
ENCODING 267
SWIDTH 402 0
DWIDTH 23 0
BBX 17 40 3 0
BITMAP
01C000
03E000
07F000
07F000
03E000
01C000
000000
000000
000000
000000
000000
07F000
1FFC00
3FFE00
7FFF00
7C0F80
F80780
F00780
F00780
F00780
F00000
F00000
F00000
F00000
F00000
F00000
F00000
F00000
F00000
F00000
F00000
F00780
F00780
F00780
F80780
7C0F80
7FFF00
3FFE00
1FFC00
07F000
ENDCHAR
STARTCHAR Ccaron
ENCODING 268
SWIDTH 446 0
DWIDTH 25 0
BBX 19 51 3 0
BITMAP
0E0F00
0F0E00
071E00
079C00
03B800
01F800
01F000
000000
000000
000000
000000
03F800
0FFE00
1FFF00
3FFF80
7C07C0
7803C0
F801E0
F001E0
F001E0
F001E0
F001E0
F00000
F00000
F00000
F00000
F00000
F00000
F00000
F00000
F00000
F00000
F00000
F00000
F00000
F00000
F00000
F00000
F00000
F00000
F001E0
F001E0
F001E0
F001E0
F801E0
7803C0
7C07C0
3FFF80
1FFF00
0FFE00
03F800
ENDCHAR
STARTCHAR ccaron
ENCODING 269
SWIDTH 402 0
DWIDTH 23 0
BBX 17 40 3 0
BITMAP
3C1E00
1E1C00
0E3C00
0F7800
077000
03F000
03E000
000000
000000
000000
000000
07F000
1FFC00
3FFE00
7FFF00
7C0F80
F80780
F00780
F00780
F00780
F00000
F00000
F00000
F00000
F00000
F00000
F00000
F00000
F00000
F00000
F00000
F00780
F00780
F00780
F80780
7C0F80
7FFF00
3FFE00
1FFC00
07F000
ENDCHAR
STARTCHAR Dcaron
ENCODING 270
SWIDTH 465 0
DWIDTH 26 0
BBX 19 51 4 0
BITMAP
1C1E00
1E1C00
0F3C00
073800
07F800
03F000
03E000
000000
000000
000000
000000
FFF800
FFFE00
FFFF00
FFFF80
F00F80
F007C0
F003C0
F003C0
F003E0
F001E0
F001E0
F001E0
F001E0
F001E0
F001E0
F001E0
F001E0
F001E0
F001E0
F001E0
F001E0
F001E0
F001E0
F001E0
F001E0
F001E0
F001E0
F001E0
F001E0
F001E0
F001E0
F003E0
F003C0
F003C0
F007C0
F00F80
FFFF80
FFFF00
FFFE00
FFF000
ENDCHAR
STARTCHAR dcaron
ENCODING 271
SWIDTH 423 0
DWIDTH 24 0
BBX 28 40 3 0
BITMAP
00078070
000780E0
000781E0
000781C0
000783C0
00078380
00078700
00078700
00078000
00078000
00078000
07C78000
1FF78000
3FFF8000
7FFF8000
7C1F8000
F80F8000
F0078000
F0078000
F0078000
F0078000
F0078000
F0078000
F0078000
F0078000
F0078000
F0078000
F0078000
F0078000
F0078000
F0078000
F0078000
F0078000
F0078000
F80F8000
7C1F8000
7FFF8000
3FFF8000
1FF78000
07C78000
ENDCHAR
STARTCHAR Dcroat
ENCODING 272
SWIDTH 509 0
DWIDTH 29 0
BBX 21 40 4 0
BITMAP
3FFE00
3FFF80
3FFFC0
3FFFE0
3C01F0
3C00F0
3C00F8
3C0078
3C0078
3C0078
3C0078
3C0078
3C0078
3C0078
3C0078
3C0078
3C0078
3C0078
FFE078
FFE078
FFE078
3C0078
3C0078
3C0078
3C0078
3C0078
3C0078
3C0078
3C0078
3C0078
3C0078
3C0078
3C0078
3C00F8
3C00F0
3C01F0
3FFFE0
3FFFC0
3FFF80
3FFE00
ENDCHAR
STARTCHAR dcroat
ENCODING 273
SWIDTH 423 0
DWIDTH 24 0
BBX 20 40 3 0
BITMAP
000780
000780
000780
000780
000780
07FFF0
07FFF0
07FFF0
000780
000780
000780
07C780
1FF780
3FFF80
7FFF80
7C1F80
F80F80
F00780
F00780
F00780
F00780
F00780
F00780
F00780
F00780
F00780
F00780
F00780
F00780
F00780
F00780
F00780
F00780
F00780
F80F80
7C1F80
7FFF80
3FFF80
1FF780
07C780
ENDCHAR
STARTCHAR Emacron
ENCODING 274
SWIDTH 429 0
DWIDTH 24 0
BBX 18 49 4 0
BITMAP
0FFC00
1FFE00
1FFE00
1FFE00
000000
000000
000000
000000
000000
FFFFC0
FFFFC0
FFFFC0
FFFF80
F00000
F00000
F00000
F00000
F00000
F00000
F00000
F00000
F00000
F00000
F00000
F00000
F00000
F00000
FFF000
FFF800
FFF800
FFF800
F00000
F00000
F00000
F00000
F00000
F00000
F00000
F00000
F00000
F00000
F00000
F00000
F00000
F00000
FFFF80
FFFFC0
FFFFC0
FFFFC0
ENDCHAR
STARTCHAR emacron
ENCODING 275
SWIDTH 408 0
DWIDTH 23 0
BBX 17 39 3 0
BITMAP
1FFC00
1FFC00
1FFC00
1FFC00
000000
000000
000000
000000
000000
000000
07F000
1FFC00
3FFE00
7FFF00
7C0F00
F80F80
F00780
F00780
F00780
F00780
F00780
F00780
FFFF80
FFFF80
FFFF80
FFFF80
F00000
F00000
F00000
F00000
F00000
F00780
F00780
F80F80
7C1F00
7FFF00
3FFE00
1FFC00
07F000
ENDCHAR
STARTCHAR Edotaccent
ENCODING 278
SWIDTH 429 0
DWIDTH 24 0
BBX 18 51 4 0
BITMAP
01E000
03F000
03F000
03F000
03F000
01E000
000000
000000
000000
000000
000000
FFFFC0
FFFFC0
FFFFC0
FFFF80
F00000
F00000
F00000
F00000
F00000
F00000
F00000
F00000
F00000
F00000
F00000
F00000
F00000
F00000
FFF000
FFF800
FFF800
FFF800
F00000
F00000
F00000
F00000
F00000
F00000
F00000
F00000
F00000
F00000
F00000
F00000
F00000
F00000
FFFF80
FFFFC0
FFFFC0
FFFFC0
ENDCHAR
STARTCHAR edotaccent
ENCODING 279
SWIDTH 408 0
DWIDTH 23 0
BBX 17 40 3 0
BITMAP
01C000
03E000
07F000
07F000
03E000
01C000
000000
000000
000000
000000
000000
07F000
1FFC00
3FFE00
7FFF00
7C0F00
F80F80
F00780
F00780
F00780
F00780
F00780
F00780
FFFF80
FFFF80
FFFF80
FFFF80
F00000
F00000
F00000
F00000
F00000
F00780
F00780
F80F80
7C1F00
7FFF00
3FFE00
1FFC00
07F000
ENDCHAR
STARTCHAR Eogonek
ENCODING 280
SWIDTH 429 0
DWIDTH 24 0
BBX 18 50 4 -10
BITMAP
FFFFC0
FFFFC0
FFFFC0
FFFF80
F00000
F00000
F00000
F00000
F00000
F00000
F00000
F00000
F00000
F00000
F00000
F00000
F00000
F00000
FFF000
FFF800
FFF800
FFF800
F00000
F00000
F00000
F00000
F00000
F00000
F00000
F00000
F00000
F00000
F00000
F00000
F00000
F00000
FFFF80
FFFFC0
FFFFC0
FFFFC0
01C000
038000
070000
070000
070000
070000
070000
078000
03E000
01E000
ENDCHAR
STARTCHAR eogonek
ENCODING 281
SWIDTH 408 0
DWIDTH 23 0
BBX 17 39 3 -10
BITMAP
07F000
1FFC00
3FFE00
7FFF00
7C1F00
F80F80
F00780
F00780
F00780
F00780
F00780
F00780
F00780
FFFF80
FFFF80
FFFF80
FFFF80
F00000
F00000
F00000
F00000
F00000
F00780
F00780
F80F80
7C1F00
7FFF00
3FFE00
1FF800
03E000
038000
070000
070000
060000
0E0000
0E0000
070000
07E000
03E000
ENDCHAR
STARTCHAR Ecaron
ENCODING 282
SWIDTH 429 0
DWIDTH 24 0
BBX 18 51 4 0
BITMAP
1C0E00
1E1E00
0F3C00
073800
07F800
03F000
01E000
000000
000000
000000
000000
FFFFC0
FFFFC0
FFFFC0
FFFF80
F00000
F00000
F00000
F00000
F00000
F00000
F00000
F00000
F00000
F00000
F00000
F00000
F00000
F00000
FFF000
FFF800
FFF800
FFF800
F00000
F00000
F00000
F00000
F00000
F00000
F00000
F00000
F00000
F00000
F00000
F00000
F00000
F00000
FFFF80
FFFFC0
FFFFC0
FFFFC0
ENDCHAR
STARTCHAR ecaron
ENCODING 283
SWIDTH 408 0
DWIDTH 23 0
BBX 17 40 3 0
BITMAP
3C1E00
1E3C00
0E3800
0F7800
077000
07F000
03E000
000000
000000
000000
000000
07F000
1FFC00
3FFE00
7FFF00
7C0F00
F80F80
F00780
F00780
F00780
F00780
F00780
F00780
FFFF80
FFFF80
FFFF80
FFFF80
F00000
F00000
F00000
F00000
F00000
F00780
F00780
F80F80
7C1F00
7FFF00
3FFE00
1FFC00
07F000
ENDCHAR
STARTCHAR Gcircumflex
ENCODING 284
SWIDTH 451 0
DWIDTH 25 0
BBX 19 51 3 0
BITMAP
01F000
03F800
03B800
07BC00
071E00
0F0E00
0E0F00
000000
000000
000000
000000
03F800
0FFE00
1FFF00
3FFF80
7C07C0
7803C0
F801E0
F001E0
F001E0
F001E0
F001E0
F001E0
F00000
F00000
F00000
F00000
F00000
F00000
F00000
F03FE0
F03FE0
F03FE0
F03FE0
F001E0
F001E0
F001E0
F001E0
F001E0
F001E0
F001E0
F001E0
F001E0
F001E0
F803E0
7803C0
7C07C0
3FFF80
1FFF00
0FFE00
03F800
ENDCHAR
STARTCHAR gcircumflex
ENCODING 285
SWIDTH 413 0
DWIDTH 23 0
BBX 17 51 3 -11
BITMAP
03E000
07F000
077000
0F7800
0E3800
1E1C00
3C1E00
000000
000000
000000
000000
07C780
1FF780
3FFF80
7FFF80
FC1F80
F80F80
F00780
F00780
F00780
F00780
F00780
F00780
F00780
F00780
F00780
F00780
F00780
F00780
F00780
F00780
F00780
F00780
F00780
F80F80
7C1F80
7FFF80
3FFF80
1FF780
07C780
000780
000780
000780
000780
000F00
001F00
003F00
07FE00
07FC00
07F800
07C000
ENDCHAR
STARTCHAR Gbreve
ENCODING 286
SWIDTH 451 0
DWIDTH 25 0
BBX 19 49 3 0
BITMAP
0C0600
0C0600
0E0E00
071C00
03FC00
01F000
000000
000000
000000
03F800
0FFE00
1FFF00
3FFF80
7C07C0
7803C0
F801E0
F001E0
F001E0
F001E0
F001E0
F001E0
F00000
F00000
F00000
F00000
F00000
F00000
F00000
F03FE0
F03FE0
F03FE0
F03FE0
F001E0
F001E0
F001E0
F001E0
F001E0
F001E0
F001E0
F001E0
F001E0
F001E0
F803E0
7803C0
7C07C0
3FFF80
1FFF00
0FFE00
03F800
ENDCHAR
STARTCHAR gbreve
ENCODING 287
SWIDTH 413 0
DWIDTH 23 0
BBX 17 49 3 -11
BITMAP
180C00
180C00
1C1C00
0E3800
07F800
03E000
000000
000000
000000
07C780
1FF780
3FFF80
7FFF80
FC1F80
F80F80
F00780
F00780
F00780
F00780
F00780
F00780
F00780
F00780
F00780
F00780
F00780
F00780
F00780
F00780
F00780
F00780
F00780
F80F80
7C1F80
7FFF80
3FFF80
1FF780
07C780
000780
000780
000780
000780
000F00
001F00
003F00
07FE00
07FC00
07F800
07C000
ENDCHAR
STARTCHAR Gdotaccent
ENCODING 288
SWIDTH 451 0
DWIDTH 25 0
BBX 19 51 3 0
BITMAP
00E000
01F000
01F800
01F800
01F000
00E000
000000
000000
000000
000000
000000
03F800
0FFE00
1FFF00
3FFF80
7C07C0
7803C0
F801E0
F001E0
F001E0
F001E0
F001E0
F001E0
F00000
F00000
F00000
F00000
F00000
F00000
F00000
F03FE0
F03FE0
F03FE0
F03FE0
F001E0
F001E0
F001E0
F001E0
F001E0
F001E0
F001E0
F001E0
F001E0
F001E0
F803E0
7803C0
7C07C0
3FFF80
1FFF00
0FFE00
03F800
ENDCHAR
STARTCHAR gdotaccent
ENCODING 289
SWIDTH 413 0
DWIDTH 23 0
BBX 17 51 3 -11
BITMAP
01C000
03E000
03F000
03F000
03E000
01C000
000000
000000
000000
000000
000000
07C780
1FF780
3FFF80
7FFF80
FC1F80
F80F80
F00780
F00780
F00780
F00780
F00780
F00780
F00780
F00780
F00780
F00780
F00780
F00780
F00780
F00780
F00780
F00780
F00780
F80F80
7C1F80
7FFF80
3FFF80
1FF780
07C780
000780
000780
000780
000780
000F00
001F00
003F00
07FE00
07FC00
07F800
07C000
ENDCHAR
STARTCHAR uni0122
ENCODING 290
SWIDTH 451 0
DWIDTH 25 0
BBX 19 51 3 -11
BITMAP
03F800
0FFE00
1FFF00
3FFF80
7C07C0
7803C0
F801E0
F001E0
F001E0
F001E0
F001E0
F001E0
F00000
F00000
F00000
F00000
F00000
F00000
F00000
F03FE0
F03FE0
F03FE0
F03FE0
F001E0
F001E0
F001E0
F001E0
F001E0
F001E0
F001E0
F001E0
F001E0
F001E0
F803E0
7803C0
7C07C0
3FFF80
1FFF00
0FFE00
03F800
000000
000000
000000
001800
003C00
007800
007000
00F000
00E000
01C000
01C000
ENDCHAR
STARTCHAR uni0123
ENCODING 291
SWIDTH 413 0
DWIDTH 23 0
BBX 17 51 3 -11
BITMAP
00E000
00E000
01C000
01C000
038000
078000
070000
0F0000
000000
000000
000000
07C780
1FF780
3FFF80
7FFF80
FC1F80
F80F80
F00780
F00780
F00780
F00780
F00780
F00780
F00780
F00780
F00780
F00780
F00780
F00780
F00780
F00780
F00780
F00780
F00780
F80F80
7C1F80
7FFF80
3FFF80
1FF780
07C780
000780
000780
000780
000780
000F00
001F00
003F00
07FE00
07FC00
07F800
07C000
ENDCHAR
STARTCHAR Hcircumflex
ENCODING 292
SWIDTH 472 0
DWIDTH 26 0
BBX 18 51 4 0
BITMAP
01E000
03F000
07F800
073800
0F3C00
1E1E00
1E0E00
000000
000000
000000
000000
F003C0
F003C0
F003C0
F003C0
F003C0
F003C0
F003C0
F003C0
F003C0
F003C0
F003C0
F003C0
F003C0
F003C0
F003C0
F003C0
F003C0
F003C0
FFFFC0
FFFFC0
FFFFC0
FFFFC0
F003C0
F003C0
F003C0
F003C0
F003C0
F003C0
F003C0
F003C0
F003C0
F003C0
F003C0
F003C0
F003C0
F003C0
F003C0
F003C0
F003C0
F003C0
ENDCHAR
STARTCHAR hcircumflex
ENCODING 293
SWIDTH 424 0
DWIDTH 24 0
BBX 18 50 3 0
BITMAP
01F000
03F000
07F800
073800
0F1C00
0E1E00
1E0E00
000000
000000
000000
F00000
F00000
F00000
F00000
F00000
F00000
F00000
F00000
F00000
F00000
F00000
F0F800
F3FE00
F7FF00
FFFF80
FC0F80
F80780
F80780
F803C0
F003C0
F003C0
F003C0
F003C0
F003C0
F003C0
F003C0
F003C0
F003C0
F003C0
F003C0
F003C0
F003C0
F003C0
F003C0
F003C0
F003C0
F003C0
F003C0
F003C0
F003C0
ENDCHAR
STARTCHAR Hbar
ENCODING 294
SWIDTH 472 0
DWIDTH 26 0
BBX 24 40 1 0
BITMAP
1E0078
1E0078
1E0078
1E0078
1E0078
1E0078
1E0078
1E0078
FFFFFF
FFFFFF
FFFFFF
1E0078
1E0078
1E0078
1E0078
1E0078
1E0078
1E0078
1FFFF8
1FFFF8
1FFFF8
1FFFF8
1E0078
1E0078
1E0078
1E0078
1E0078
1E0078
1E0078
1E0078
1E0078
1E0078
1E0078
1E0078
1E0078
1E0078
1E0078
1E0078
1E0078
1E0078
ENDCHAR
STARTCHAR hbar
ENCODING 295
SWIDTH 424 0
DWIDTH 24 0
BBX 21 40 0 0
BITMAP
1E0000
1E0000
1E0000
1E0000
1E0000
1E0000
FFFE00
FFFE00
FFFE00
1E0000
1E0000
1E1F00
1E7FC0
1EFFE0
1FFFF0
1F81F0
1F00F0
1F00F0
1F0078
1E0078
1E0078
1E0078
1E0078
1E0078
1E0078
1E0078
1E0078
1E0078
1E0078
1E0078
1E0078
1E0078
1E0078
1E0078
1E0078
1E0078
1E0078
1E0078
1E0078
1E0078
ENDCHAR
STARTCHAR Itilde
ENCODING 296
SWIDTH 215 0
DWIDTH 12 0
BBX 15 51 -1 0
BITMAP
1E04
7F8E
7FFE
E1FC
2078
0000
0000
0000
0000
0000
0000
0780
0780
0780
0780
0780
0780
0780
0780
0780
0780
0780
0780
0780
0780
0780
0780
0780
0780
0780
0780
0780
0780
0780
0780
0780
0780
0780
0780
0780
0780
0780
0780
0780
0780
0780
0780
0780
0780
0780
0780
ENDCHAR
STARTCHAR itilde
ENCODING 297
SWIDTH 169 0
DWIDTH 9 0
BBX 15 40 -2 0
BITMAP
3E04
7F0E
FFFC
E1FC
40F0
0000
0000
0000
0000
0000
0000
0780
0780
0780
0780
0780
0780
0780
0780
0780
0780
0780
0780
0780
0780
0780
0780
0780
0780
0780
0780
0780
0780
0780
0780
0780
0780
0780
0780
0780
ENDCHAR
STARTCHAR Imacron
ENCODING 298
SWIDTH 215 0
DWIDTH 12 0
BBX 12 49 0 0
BITMAP
7FE0
FFF0
FFF0
FFF0
0000
0000
0000
0000
0000
0F00
0F00
0F00
0F00
0F00
0F00
0F00
0F00
0F00
0F00
0F00
0F00
0F00
0F00
0F00
0F00
0F00
0F00
0F00
0F00
0F00
0F00
0F00
0F00
0F00
0F00
0F00
0F00
0F00
0F00
0F00
0F00
0F00
0F00
0F00
0F00
0F00
0F00
0F00
0F00
ENDCHAR
STARTCHAR imacron
ENCODING 299
SWIDTH 169 0
DWIDTH 9 0
BBX 11 38 -1 0
BITMAP
FFE0
FFE0
FFE0
FFE0
0000
0000
0000
0000
0000
0F00
0F00
0F00
0F00
0F00
0F00
0F00
0F00
0F00
0F00
0F00
0F00
0F00
0F00
0F00
0F00
0F00
0F00
0F00
0F00
0F00
0F00
0F00
0F00
0F00
0F00
0F00
0F00
0F00
ENDCHAR
STARTCHAR ibreve
ENCODING 301
SWIDTH 169 0
DWIDTH 9 0
BBX 12 39 -1 0
BITMAP
C070
C060
E0E0
71E0
3FC0
1F00
0000
0000
0000
0000
0F00
0F00
0F00
0F00
0F00
0F00
0F00
0F00
0F00
0F00
0F00
0F00
0F00
0F00
0F00
0F00
0F00
0F00
0F00
0F00
0F00
0F00
0F00
0F00
0F00
0F00
0F00
0F00
0F00
ENDCHAR
STARTCHAR Iogonek
ENCODING 302
SWIDTH 186 0
DWIDTH 10 0
BBX 7 50 1 -10
BITMAP
3C
3C
3C
3C
3C
3C
3C
3C
3C
3C
3C
3C
3C
3C
3C
3C
3C
3C
3C
3C
3C
3C
3C
3C
3C
3C
3C
3C
3C
3C
3C
3C
3C
3C
3C
3C
3C
3C
3C
3C
38
30
70
60
E0
E0
70
7A
7E
1E
ENDCHAR
STARTCHAR iogonek
ENCODING 303
SWIDTH 224 0
DWIDTH 13 0
BBX 7 50 3 -10
BITMAP
3C
7E
7E
7E
7E
3C
00
00
00
00
00
3C
3C
3C
3C
3C
3C
3C
3C
3C
3C
3C
3C
3C
3C
3C
3C
3C
3C
3C
3C
3C
3C
3C
3C
3C
3C
3C
3C
3C
38
70
60
E0
E0
E0
E0
F4
7C
3C
ENDCHAR
STARTCHAR Idotaccent
ENCODING 304
SWIDTH 215 0
DWIDTH 12 0
BBX 6 51 3 0
BITMAP
78
FC
FC
FC
FC
78
00
00
00
00
00
78
78
78
78
78
78
78
78
78
78
78
78
78
78
78
78
78
78
78
78
78
78
78
78
78
78
78
78
78
78
78
78
78
78
78
78
78
78
78
78
ENDCHAR
STARTCHAR dotlessi
ENCODING 305
SWIDTH 169 0
DWIDTH 9 0
BBX 4 29 3 0
BITMAP
F0
F0
F0
F0
F0
F0
F0
F0
F0
F0
F0
F0
F0
F0
F0
F0
F0
F0
F0
F0
F0
F0
F0
F0
F0
F0
F0
F0
F0
ENDCHAR
STARTCHAR ij
ENCODING 307
SWIDTH 409 0
DWIDTH 23 0
BBX 17 52 3 -11
BITMAP
000F00
781F80
FC1F80
FC1F80
FC1F80
FC0F00
780000
000000
000000
000000
000000
000000
780F00
780F00
780F00
780F00
780F00
780F00
780F00
780F00
780F00
780F00
780F00
780F00
780F00
780F00
780F00
780F00
780F00
780F00
780F00
780F00
780F00
780F00
780F00
780F00
780F00
780F00
780F00
780F00
780F00
000F00
000F00
000F00
000F00
000F00
001F00
001E00
00FE00
01FC00
01F800
01E000
ENDCHAR
STARTCHAR Jcircumflex
ENCODING 308
SWIDTH 426 0
DWIDTH 24 0
BBX 23 51 1 0
BITMAP
0003E0
0003F0
0007F0
000F38
000E3C
001E1C
001C1E
000000
000000
000000
000000
0001E0
0001E0
0001E0
0001E0
0001E0
0001E0
0001E0
0001E0
0001E0
0001E0
0001E0
0001E0
0001E0
0001E0
0001E0
0001E0
0001E0
0001E0
0001E0
0001E0
0001E0
0001E0
0001E0
0001E0
0001E0
F001E0
F001E0
F001E0
F001E0
F001E0
F001E0
F001E0
F801E0
7803C0
7803C0
7C07C0
3FFF80
1FFF00
0FFE00
03F800
ENDCHAR
STARTCHAR jcircumflex
ENCODING 309
SWIDTH 198 0
DWIDTH 11 0
BBX 14 51 -2 -11
BITMAP
07C0
0FC0
0EE0
1EF0
3C70
3878
783C
0000
0000
0000
0000
0780
0780
0780
0780
0780
0780
0780
0780
0780
0780
0780
0780
0780
0780
0780
0780
0780
0780
0780
0780
0780
0780
0780
0780
0780
0780
0780
0780
0780
0780
0780
0780
0780
0780
0780
0F80
7F00
FF00
FE00
F800
ENDCHAR
STARTCHAR uni0136
ENCODING 310
SWIDTH 452 0
DWIDTH 25 0
BBX 20 51 4 -11
BITMAP
F001E0
F003E0
F003C0
F007C0
F00780
F00F80
F00F00
F01F00
F03E00
F03C00
F07C00
F07800
F0F800
F0F000
F1F000
F3E000
F3E000
F7E000
F7E000
FFF000
FEF000
FEF800
FC7800
F87800
F83C00
F03C00
F03E00
F01E00
F01F00
F00F00
F00F00
F00780
F00780
F007C0
F003C0
F003E0
F001E0
F001E0
F001F0
F000F0
000000
000000
000000
001C00
003C00
003800
007800
007000
00E000
00E000
01C000
ENDCHAR
STARTCHAR uni0137
ENCODING 311
SWIDTH 405 0
DWIDTH 23 0
BBX 18 51 3 -11
BITMAP
F00000
F00000
F00000
F00000
F00000
F00000
F00000
F00000
F00000
F00000
F00000
F00780
F00F00
F00F00
F01E00
F03C00
F03C00
F07800
F0F000
F0F000
F1E000
F3F000
F3F000
F7F000
FF7800
FE7800
FE3C00
FC3C00
F83C00
F81E00
F01E00
F01E00
F00F00
F00F00
F00F00
F00780
F00780
F00780
F003C0
F003C0
000000
000000
000000
003800
007800
007000
00F000
00E000
01C000
01C000
038000
ENDCHAR
STARTCHAR Lacute
ENCODING 313
SWIDTH 396 0
DWIDTH 22 0
BBX 18 51 4 0
BITMAP
0E0000
1C0000
3C0000
380000
700000
700000
E00000
E00000
000000
000000
000000
F00000
F00000
F00000
F00000
F00000
F00000
F00000
F00000
F00000
F00000
F00000
F00000
F00000
F00000
F00000
F00000
F00000
F00000
F00000
F00000
F00000
F00000
F00000
F00000
F00000
F00000
F00000
F00000
F00000
F00000
F00000
F00000
F00000
F00000
F00000
F00000
FFFF80
FFFFC0
FFFFC0
FFFFC0
ENDCHAR
STARTCHAR lacute
ENCODING 314
SWIDTH 181 0
DWIDTH 10 0
BBX 7 51 3 0
BITMAP
0E
1C
3C
38
78
70
E0
E0
00
00
00
F0
F0
F0
F0
F0
F0
F0
F0
F0
F0
F0
F0
F0
F0
F0
F0
F0
F0
F0
F0
F0
F0
F0
F0
F0
F0
F0
F0
F0
F0
F0
F0
F0
F0
F0
F0
F0
F0
F0
F0
ENDCHAR
STARTCHAR uni013B
ENCODING 315
SWIDTH 396 0
DWIDTH 22 0
BBX 18 51 4 -11
BITMAP
F00000
F00000
F00000
F00000
F00000
F00000
F00000
F00000
F00000
F00000
F00000
F00000
F00000
F00000
F00000
F00000
F00000
F00000
F00000
F00000
F00000
F00000
F00000
F00000
F00000
F00000
F00000
F00000
F00000
F00000
F00000
F00000
F00000
F00000
F00000
F00000
FFFF80
FFFFC0
FFFFC0
FFFFC0
000000
000000
000000
006000
00E000
01C000
01C000
038000
078000
070000
0E0000
ENDCHAR
STARTCHAR uni013C
ENCODING 316
SWIDTH 181 0
DWIDTH 10 0
BBX 8 51 -1 -11
BITMAP
0F
0F
0F
0F
0F
0F
0F
0F
0F
0F
0F
0F
0F
0F
0F
0F
0F
0F
0F
0F
0F
0F
0F
0F
0F
0F
0F
0F
0F
0F
0F
0F
0F
0F
0F
0F
0F
0F
0F
0F
00
00
00
0E
1E
1C
3C
38
70
70
E0
ENDCHAR
STARTCHAR Lcaron
ENCODING 317
SWIDTH 397 0
DWIDTH 22 0
BBX 18 40 4 0
BITMAP
F01800
F03C00
F03800
F07000
F0F000
F0E000
F1E000
F1C000
F00000
F00000
F00000
F00000
F00000
F00000
F00000
F00000
F00000
F00000
F00000
F00000
F00000
F00000
F00000
F00000
F00000
F00000
F00000
F00000
F00000
F00000
F00000
F00000
F00000
F00000
F00000
F00000
FFFF80
FFFFC0
FFFFC0
FFFFC0
ENDCHAR
STARTCHAR lcaron
ENCODING 318
SWIDTH 331 0
DWIDTH 19 0
BBX 13 40 3 0
BITMAP
F018
F038
F070
F0F0
F0E0
F1E0
F1C0
F380
F000
F000
F000
F000
F000
F000
F000
F000
F000
F000
F000
F000
F000
F000
F000
F000
F000
F000
F000
F000
F000
F000
F000
F000
F000
F000
F000
F000
F000
F000
F000
F000
ENDCHAR
STARTCHAR ldot
ENCODING 320
SWIDTH 223 0
DWIDTH 12 0
BBX 6 51 3 0
BITMAP
78
FC
FC
FC
FC
78
00
00
00
00
00
78
78
78
78
78
78
78
78
78
78
78
78
78
78
78
78
78
78
78
78
78
78
78
78
78
78
78
78
78
78
78
78
78
78
78
78
78
78
78
78
ENDCHAR
STARTCHAR Lslash
ENCODING 321
SWIDTH 423 0
DWIDTH 24 0
BBX 24 40 -1 0
BITMAP
01C000
01E000
01E000
01E000
01E000
01E000
01E000
01E000
01E000
01E000
01E000
01E000
01E010
01E038
01E07C
01E1F8
01E3E0
01E7C0
01FF80
01FE00
01FC00
01F800
03E000
07E000
1FE000
3FE000
FDE000
79E000
61E000
01E000
01E000
01E000
01E000
01E000
01E000
01E000
01FFFF
01FFFF
01FFFF
01FFFF
ENDCHAR
STARTCHAR lslash
ENCODING 322
SWIDTH 292 0
DWIDTH 16 0
BBX 14 40 1 0
BITMAP
0780
0780
0780
0780
0780
0780
0780
0780
0780
0780
0780
0780
0780
0780
0780
0780
0798
07BC
07FC
07F0
0FE0
1F80
7F80
FF80
7780
4780
0780
0780
0780
0780
0780
0780
0780
0780
0780
0780
0780
0780
0780
0780
ENDCHAR
STARTCHAR Nacute
ENCODING 323
SWIDTH 493 0
DWIDTH 28 0
BBX 20 51 4 0
BITMAP
000C00
001C00
003800
003800
007000
00F000
00E000
01C000
000000
000000
000000
F000F0
F800F0
F800F0
FC00F0
FC00F0
FC00F0
FE00F0
FE00F0
FE00F0
FF00F0
FF00F0
F780F0
F780F0
F780F0
F3C0F0
F3C0F0
F1C0F0
F1E0F0
F1E0F0
F0F0F0
F0F0F0
F0F0F0
F078F0
F078F0
F038F0
F03CF0
F03CF0
F01CF0
F01EF0
F01EF0
F00FF0
F00FF0
F007F0
F007F0
F007F0
F003F0
F003F0
F003F0
F001F0
F001F0
ENDCHAR
STARTCHAR nacute
ENCODING 324
SWIDTH 424 0
DWIDTH 24 0
BBX 18 40 3 0
BITMAP
001C00
003800
007800
007000
00F000
00E000
01C000
01C000
000000
000000
000000
F0F800
F3FE00
F7FF00
FFFF80
FC0F80
F80780
F80780
F803C0
F003C0
F003C0
F003C0
F003C0
F003C0
F003C0
F003C0
F003C0
F003C0
F003C0
F003C0
F003C0
F003C0
F003C0
F003C0
F003C0
F003C0
F003C0
F003C0
F003C0
F003C0
ENDCHAR
STARTCHAR uni0145
ENCODING 325
SWIDTH 493 0
DWIDTH 28 0
BBX 20 51 4 -11
BITMAP
F000F0
F800F0
F800F0
FC00F0
FC00F0
FC00F0
FE00F0
FE00F0
FE00F0
FF00F0
FF00F0
F780F0
F780F0
F780F0
F3C0F0
F3C0F0
F1C0F0
F1E0F0
F1E0F0
F0F0F0
F0F0F0
F0F0F0
F078F0
F078F0
F038F0
F03CF0
F03CF0
F01CF0
F01EF0
F01EF0
F00FF0
F00FF0
F007F0
F007F0
F007F0
F003F0
F003F0
F003F0
F001F0
F001F0
000000
000000
000000
001C00
003C00
003800
007800
007000
00E000
00E000
01C000
ENDCHAR
STARTCHAR uni0146
ENCODING 326
SWIDTH 424 0
DWIDTH 24 0
BBX 18 40 3 -11
BITMAP
F0F800
F3FE00
F7FF00
FFFF80
FC0F80
F80780
F80780
F803C0
F003C0
F003C0
F003C0
F003C0
F003C0
F003C0
F003C0
F003C0
F003C0
F003C0
F003C0
F003C0
F003C0
F003C0
F003C0
F003C0
F003C0
F003C0
F003C0
F003C0
F003C0
000000
000000
000000
001800
003800
007800
007000
00E000
00E000
01C000
03C000
ENDCHAR
STARTCHAR Ncaron
ENCODING 327
SWIDTH 493 0
DWIDTH 28 0
BBX 20 51 4 0
BITMAP
0E0F00
0F0E00
071E00
039C00
03FC00
01F800
01F000
000000
000000
000000
000000
F000F0
F800F0
F800F0
FC00F0
FC00F0
FC00F0
FE00F0
FE00F0
FE00F0
FF00F0
FF00F0
F780F0
F780F0
F780F0
F3C0F0
F3C0F0
F1C0F0
F1E0F0
F1E0F0
F0F0F0
F0F0F0
F0F0F0
F078F0
F078F0
F038F0
F03CF0
F03CF0
F01CF0
F01EF0
F01EF0
F00FF0
F00FF0
F007F0
F007F0
F007F0
F003F0
F003F0
F003F0
F001F0
F001F0
ENDCHAR
STARTCHAR ncaron
ENCODING 328
SWIDTH 424 0
DWIDTH 24 0
BBX 18 40 3 0
BITMAP
1E0E00
0E1E00
0F1C00
073800
03F800
03F000
01F000
000000
000000
000000
000000
F0F800
F3FE00
F7FF00
FFFF80
FC0F80
F80780
F80780
F803C0
F003C0
F003C0
F003C0
F003C0
F003C0
F003C0
F003C0
F003C0
F003C0
F003C0
F003C0
F003C0
F003C0
F003C0
F003C0
F003C0
F003C0
F003C0
F003C0
F003C0
F003C0
ENDCHAR
STARTCHAR Eng
ENCODING 330
SWIDTH 493 0
DWIDTH 28 0
BBX 20 49 4 -9
BITMAP
F000F0
F800F0
F800F0
FC00F0
FC00F0
FC00F0
FE00F0
FE00F0
FE00F0
FF00F0
FF00F0
F780F0
F780F0
F781F0
F3C1F0
F3C1F0
F1C1F0
F1E1F0
F1E1F0
F0F1F0
F0F1F0
F0F1F0
F079F0
F079F0
F039F0
F03DF0
F03DF0
F01DF0
F01FF0
F01FF0
F00FF0
F00FF0
F007F0
F007F0
F007F0
F003F0
F003F0
F003F0
F001F0
F001F0
0001F0
0001F0
0001F0
0001E0
0001E0
000FE0
000FE0
000FC0
000F00
ENDCHAR
STARTCHAR eng
ENCODING 331
SWIDTH 424 0
DWIDTH 24 0
BBX 18 39 3 -10
BITMAP
F0F800
F3FE00
F7FF00
FFFF00
FC0F80
F80780
F80780
F803C0
F003C0
F003C0
F003C0
F003C0
F003C0
F003C0
F003C0
F003C0
F003C0
F003C0
F003C0
F003C0
F003C0
F003C0
F003C0
F003C0
F003C0
F003C0
F003C0
F003C0
F003C0
0003C0
0003C0
0003C0
000780
000780
000F80
007F80
007F00
007E00
006000
ENDCHAR
STARTCHAR Omacron
ENCODING 332
SWIDTH 456 0
DWIDTH 26 0
BBX 19 49 3 0
BITMAP
0FFE00
0FFE00
0FFE00
0FFE00
000000
000000
000000
000000
000000
03F800
0FFE00
1FFF80
3FFF80
7C07C0
7803E0
F801E0
F001E0
F001E0
F001E0
F001E0
F001E0
F001E0
F001E0
F001E0
F001E0
F001E0
F001E0
F001E0
F001E0
F001E0
F001E0
F001E0
F001E0
F001E0
F001E0
F001E0
F001E0
F001E0
F001E0
F001E0
F001E0
F001E0
F801E0
7803E0
7C07C0
3FFF80
1FFF80
0FFE00
03F800
ENDCHAR
STARTCHAR omacron
ENCODING 333
SWIDTH 414 0
DWIDTH 23 0
BBX 17 38 3 0
BITMAP
1FFC00
1FFC00
1FFC00
1FFC00
000000
000000
000000
000000
000000
07F000
1FFC00
3FFE00
7FFF00
7C0F80
F80F80
F00780
F00780
F00780
F00780
F00780
F00780
F00780
F00780
F00780
F00780
F00780
F00780
F00780
F00780
F00780
F00780
F00780
F80780
7C0F80
7FFF00
3FFE00
1FFC00
07F000
ENDCHAR
STARTCHAR obreve
ENCODING 335
SWIDTH 414 0
DWIDTH 23 0
BBX 17 39 3 0
BITMAP
180C00
180C00
1C1C00
0E3800
07F800
03E000
000000
000000
000000
000000
07F000
1FFC00
3FFE00
7FFF00
7C0F80
F80F80
F00780
F00780
F00780
F00780
F00780
F00780
F00780
F00780
F00780
F00780
F00780
F00780
F00780
F00780
F00780
F00780
F00780
F80780
7C0F80
7FFF00
3FFE00
1FFC00
07F000
ENDCHAR
STARTCHAR Ohungarumlaut
ENCODING 336
SWIDTH 456 0
DWIDTH 26 0
BBX 19 51 3 0
BITMAP
0070E0
00E1C0
01E3C0
01C380
03C780
038700
078F00
070E00
000000
000000
000000
03F800
0FFE00
1FFF80
3FFF80
7C07C0
7803E0
F801E0
F001E0
F001E0
F001E0
F001E0
F001E0
F001E0
F001E0
F001E0
F001E0
F001E0
F001E0
F001E0
F001E0
F001E0
F001E0
F001E0
F001E0
F001E0
F001E0
F001E0
F001E0
F001E0
F001E0
F001E0
F001E0
F001E0
F801E0
7803E0
7C07C0
3FFF80
1FFF80
0FFE00
03F800
ENDCHAR
STARTCHAR ohungarumlaut
ENCODING 337
SWIDTH 414 0
DWIDTH 23 0
BBX 17 40 3 0
BITMAP
00C180
01C380
03C780
038700
078F00
070E00
0F1E00
0E1C00
000000
000000
000000
07F000
1FFC00
3FFE00
7FFF00
7C0F80
F80F80
F00780
F00780
F00780
F00780
F00780
F00780
F00780
F00780
F00780
F00780
F00780
F00780
F00780
F00780
F00780
F00780
F00780
F80780
7C0F80
7FFF00
3FFE00
1FFC00
07F000
ENDCHAR
STARTCHAR OE
ENCODING 338
SWIDTH 687 0
DWIDTH 38 0
BBX 33 40 3 0
BITMAP
03F0FFFF80
0FFDFFFF80
1FFFFFFF80
3FFFFFFF80
7C07E00000
7803E00000
F801E00000
F001E00000
F001E00000
F001E00000
F001E00000
F001E00000
F001E00000
F001E00000
F001E00000
F001E00000
F001E00000
F001E00000
F001FFF000
F001FFF000
F001FFF000
F001FFF000
F001E00000
F001E00000
F001E00000
F001E00000
F001E00000
F001E00000
F001E00000
F001E00000
F001E00000
F001E00000
F001E00000
F801E00000
7803E00000
7C07E00000
3FFFFFFF80
1FFFFFFF80
0FFDFFFF80
03F0FFFF80
ENDCHAR
STARTCHAR oe
ENCODING 339
SWIDTH 658 0
DWIDTH 37 0
BBX 31 29 3 0
BITMAP
07F00FC0
1FF83FF0
3FFC7FF8
7FFEFFFC
7C0FF03E
F807E01E
F007C01E
F007C01E
F007C01E
F007C01E
F007C01E
F007C01E
F007FFFE
F007FFFE
F007FFFE
F007C000
F007C000
F007C000
F007C000
F007C000
F007C000
F007C01E
F007C01E
F807E03E
7C0FF07C
7FFEFFFC
3FFE7FF8
1FF83FF0
07F00FC0
ENDCHAR
STARTCHAR Racute
ENCODING 340
SWIDTH 443 0
DWIDTH 25 0
BBX 19 51 4 0
BITMAP
003800
007800
007000
00F000
00E000
01C000
01C000
038000
000000
000000
000000
FFF800
FFFE00
FFFF00
FFFF80
F00F80
F007C0
F003C0
F003E0
F001E0
F001E0
F001E0
F001E0
F001E0
F001E0
F003E0
F003C0
F007C0
F00F80
FFFF80
FFFF00
FFFE00
FFF800
F07800
F03C00
F03C00
F03C00
F01E00
F01E00
F01E00
F00F00
F00F00
F00F00
F00780
F00780
F00780
F003C0
F003C0
F003C0
F001E0
F001E0
ENDCHAR
STARTCHAR racute
ENCODING 341
SWIDTH 292 0
DWIDTH 16 0
BBX 13 40 3 0
BITMAP
0060
00E0
01C0
03C0
0380
0780
0700
0E00
0000
0000
0000
F0F0
F3F8
F7F0
F7F0
FE00
FC00
F800
F800
F800
F000
F000
F000
F000
F000
F000
F000
F000
F000
F000
F000
F000
F000
F000
F000
F000
F000
F000
F000
F000
ENDCHAR
STARTCHAR uni0156
ENCODING 342
SWIDTH 443 0
DWIDTH 25 0
BBX 19 51 4 -11
BITMAP
FFF800
FFFE00
FFFF00
FFFF80
F00F80
F007C0
F003C0
F003E0
F001E0
F001E0
F001E0
F001E0
F001E0
F001E0
F003E0
F003C0
F007C0
F00F80
FFFF80
FFFF00
FFFE00
FFF800
F07800
F03C00
F03C00
F03C00
F01E00
F01E00
F01E00
F00F00
F00F00
F00F00
F00780
F00780
F00780
F003C0
F003C0
F003C0
F001E0
F001E0
000000
000000
000000
001800
003800
007000
007000
00E000
01E000
01C000
038000
ENDCHAR
STARTCHAR uni0157
ENCODING 343
SWIDTH 292 0
DWIDTH 16 0
BBX 16 40 0 -11
BITMAP
1E1E
1E7F
1EFE
1EFE
1FC0
1F80
1F00
1F00
1F00
1E00
1E00
1E00
1E00
1E00
1E00
1E00
1E00
1E00
1E00
1E00
1E00
1E00
1E00
1E00
1E00
1E00
1E00
1E00
1E00
0000
0000
0000
0E00
1C00
3C00
3800
7000
7000
E000
E000
ENDCHAR
STARTCHAR Rcaron
ENCODING 344
SWIDTH 443 0
DWIDTH 25 0
BBX 19 51 4 0
BITMAP
3C1E00
1E1C00
0E3C00
0F7800
077000
03F000
03E000
000000
000000
000000
000000
FFF800
FFFE00
FFFF00
FFFF80
F00F80
F007C0
F003C0
F003E0
F001E0
F001E0
F001E0
F001E0
F001E0
F001E0
F003E0
F003C0
F007C0
F00F80
FFFF80
FFFF00
FFFE00
FFF800
F07800
F03C00
F03C00
F03C00
F01E00
F01E00
F01E00
F00F00
F00F00
F00F00
F00780
F00780
F00780
F003C0
F003C0
F003C0
F001E0
F001E0
ENDCHAR
STARTCHAR rcaron
ENCODING 345
SWIDTH 292 0
DWIDTH 16 0
BBX 13 40 3 0
BITMAP
7078
7870
38F0
3CE0
1FC0
0FC0
0F80
0000
0000
0000
0000
F0F0
F3F8
F7F0
F7F0
FE00
FC00
F800
F800
F800
F000
F000
F000
F000
F000
F000
F000
F000
F000
F000
F000
F000
F000
F000
F000
F000
F000
F000
F000
F000
ENDCHAR
STARTCHAR Sacute
ENCODING 346
SWIDTH 416 0
DWIDTH 23 0
BBX 19 51 2 0
BITMAP
001800
003C00
003800
007000
007000
00E000
01E000
01C000
000000
000000
000000
03F800
0FFE00
1FFF00
3FFF80
7C0F80
7807C0
7803C0
F003C0
F001E0
F001E0
F001E0
F001E0
780000
780000
7C0000
3E0000
1F0000
0FC000
07E000
03F000
01FC00
007E00
003F00
001F80
000FC0
0007C0
0003E0
0001E0
F001E0
F001E0
F001E0
F001E0
7801E0
7803E0
7C03C0
3E07C0
3FFF80
1FFF00
0FFE00
03F800
ENDCHAR
STARTCHAR sacute
ENCODING 347
SWIDTH 375 0
DWIDTH 21 0
BBX 17 40 2 0
BITMAP
001800
003800
007000
00F000
00E000
01E000
01C000
038000
000000
000000
000000
07F000
1FFC00
3FFE00
3FFF00
7C0F00
780780
780780
700780
700780
780000
780000
7E0000
3F8000
1FE000
07F800
01FC00
007E00
001F00
000F80
000780
700780
F00780
F00780
780780
7C0F80
7FFF00
3FFE00
1FFC00
07F000
ENDCHAR
STARTCHAR Scircumflex
ENCODING 348
SWIDTH 416 0
DWIDTH 23 0
BBX 19 51 2 0
BITMAP
01F000
03F000
03F800
07BC00
0F1C00
0E1E00
1E0E00
000000
000000
000000
000000
03F800
0FFE00
1FFF00
3FFF80
7C0F80
7807C0
7803C0
F003C0
F001E0
F001E0
F001E0
F001E0
780000
780000
7C0000
3E0000
1F0000
0FC000
07E000
03F000
01FC00
007E00
003F00
001F80
000FC0
0007C0
0003E0
0001E0
F001E0
F001E0
F001E0
F001E0
7801E0
7803E0
7C03C0
3E07C0
3FFF80
1FFF00
0FFE00
03F800
ENDCHAR
STARTCHAR scircumflex
ENCODING 349
SWIDTH 375 0
DWIDTH 21 0
BBX 17 40 2 0
BITMAP
03E000
03F000
07F000
0F7800
0E3C00
1E1C00
1C1E00
000000
000000
000000
000000
07F000
1FFC00
3FFE00
3FFF00
7C0F00
780780
780780
700780
700780
780000
780000
7E0000
3F8000
1FE000
07F800
01FC00
007E00
001F00
000F80
000780
700780
F00780
F00780
780780
7C0F80
7FFF00
3FFE00
1FFC00
07F000
ENDCHAR
STARTCHAR Scedilla
ENCODING 350
SWIDTH 416 0
DWIDTH 23 0
BBX 19 50 2 -10
BITMAP
03F800
0FFE00
1FFF00
3FFF80
7C0F80
7807C0
7803C0
F003C0
F001E0
F001E0
F001E0
F001E0
780000
780000
7C0000
3E0000
1F0000
1F8000
0FE000
03F000
01F800
00FE00
003F00
001F80
000F80
0007C0
0003C0
0003E0
0001E0
F001E0
F001E0
F001E0
F001E0
7801E0
7803C0
7C07C0
3F0F80
1FFF80
0FFF00
07FC00
00E000
007000
003800
003800
001800
001C00
001C00
003800
01F800
01F000
ENDCHAR
STARTCHAR scedilla
ENCODING 351
SWIDTH 375 0
DWIDTH 21 0
BBX 17 39 2 -10
BITMAP
07F000
1FFC00
3FFE00
3FFF00
7C0F00
780780
780780
700780
700780
780000
780000
7C0000
3F0000
1FC000
0FF000
03FC00
00FE00
003F00
000F80
000780
000780
F00780
F00780
F00780
780780
7C0F00
3FFF00
1FFE00
0FF800
00E000
00E000
007000
003000
003800
003800
003800
007800
03F000
03E000
ENDCHAR
STARTCHAR Scaron
ENCODING 352
SWIDTH 416 0
DWIDTH 23 0
BBX 19 51 2 0
BITMAP
1E0F00
0E1E00
071C00
07BC00
03B800
03F000
01F000
000000
000000
000000
000000
03F800
0FFE00
1FFF00
3FFF80
7C0F80
7807C0
7803C0
F003C0
F001E0
F001E0
F001E0
F001E0
780000
780000
7C0000
3E0000
1F0000
0FC000
07E000
03F000
01FC00
007E00
003F00
001F80
000FC0
0007C0
0003E0
0001E0
F001E0
F001E0
F001E0
F001E0
7801E0
7803E0
7C03C0
3E07C0
3FFF80
1FFF00
0FFE00
03F800
ENDCHAR
STARTCHAR scaron
ENCODING 353
SWIDTH 375 0
DWIDTH 21 0
BBX 17 40 2 0
BITMAP
1C1E00
1E1C00
0E3C00
0F3800
07F000
03F000
03E000
000000
000000
000000
000000
07F000
1FFC00
3FFE00
3FFF00
7C0F00
780780
780780
700780
700780
780000
780000
7E0000
3F8000
1FE000
07F800
01FC00
007E00
001F00
000F80
000780
700780
F00780
F00780
780780
7C0F80
7FFF00
3FFE00
1FFC00
07F000
ENDCHAR
STARTCHAR uni0162
ENCODING 354
SWIDTH 423 0
DWIDTH 24 0
BBX 20 50 2 -10
BITMAP
FFFFF0
FFFFF0
FFFFF0
FFFFE0
00F000
00F000
00F000
00F000
00F000
00F000
00F000
00F000
00F000
00F000
00F000
00F000
00F000
00F000
00F000
00F000
00F000
00F000
00F000
00F000
00F000
00F000
00F000
00F000
00F000
00F000
00F000
00F000
00F000
00F000
00F000
00F000
00F000
00F000
00F000
00F000
007000
003800
001C00
001C00
000C00
000E00
001C00
003C00
00FC00
00F000
ENDCHAR
STARTCHAR uni0163
ENCODING 355
SWIDTH 267 0
DWIDTH 15 0
BBX 12 45 1 -9
BITMAP
1E00
1E00
1E00
1E00
1E00
1E00
1E00
FFF0
FFF0
FFF0
7FF0
1E00
1E00
1E00
1E00
1E00
1E00
1E00
1E00
1E00
1E00
1E00
1E00
1E00
1E00
1E00
1E00
1E00
1E00
1F00
1F00
0F00
0FF0
0FF0
07F0
03F0
01C0
00E0
0070
0070
0070
0070
00F0
07E0
07C0
ENDCHAR
STARTCHAR Tcaron
ENCODING 356
SWIDTH 423 0
DWIDTH 24 0
BBX 20 51 2 0
BITMAP
0E0F00
0F0E00
071E00
039C00
03F800
01F800
01F000
000000
000000
000000
000000
FFFFF0
FFFFF0
FFFFF0
FFFFE0
00F000
00F000
00F000
00F000
00F000
00F000
00F000
00F000
00F000
00F000
00F000
00F000
00F000
00F000
00F000
00F000
00F000
00F000
00F000
00F000
00F000
00F000
00F000
00F000
00F000
00F000
00F000
00F000
00F000
00F000
00F000
00F000
00F000
00F000
00F000
00F000
ENDCHAR
STARTCHAR tcaron
ENCODING 357
SWIDTH 267 0
DWIDTH 15 0
BBX 16 40 1 0
BITMAP
0007
000E
001E
001C
1E38
1E38
1E70
1E70
1E00
1E00
1E00
FFF0
FFF0
FFF0
7FF0
1E00
1E00
1E00
1E00
1E00
1E00
1E00
1E00
1E00
1E00
1E00
1E00
1E00
1E00
1E00
1E00
1E00
1E00
1F00
1F00
0F00
0FF0
0FF0
07F0
01F0
ENDCHAR
STARTCHAR Tbar
ENCODING 358
SWIDTH 423 0
DWIDTH 24 0
BBX 20 40 2 0
BITMAP
FFFFF0
FFFFF0
FFFFF0
FFFFE0
00F000
00F000
00F000
00F000
00F000
00F000
00F000
00F000
00F000
00F000
00F000
00F000
3FFF80
3FFF80
3FFF80
00F000
00F000
00F000
00F000
00F000
00F000
00F000
00F000
00F000
00F000
00F000
00F000
00F000
00F000
00F000
00F000
00F000
00F000
00F000
00F000
00F000
ENDCHAR
STARTCHAR tbar
ENCODING 359
SWIDTH 267 0
DWIDTH 15 0
BBX 12 36 1 0
BITMAP
1E00
1E00
1E00
1E00
1E00
1E00
1E00
FFF0
FFF0
FFF0
7FF0
1E00
1E00
1E00
1E00
1E00
7FF0
7FF0
7FF0
1E00
1E00
1E00
1E00
1E00
1E00
1E00
1E00
1E00
1E00
1E00
1F00
0F00
0FF0
0FF0
07F0
01F0
ENDCHAR
STARTCHAR Utilde
ENCODING 360
SWIDTH 476 0
DWIDTH 27 0
BBX 19 51 4 0
BITMAP
078100
0FE180
1FFF80
187F00
081E00
000000
000000
000000
000000
000000
000000
F001E0
F001E0
F001E0
F001E0
F001E0
F001E0
F001E0
F001E0
F001E0
F001E0
F001E0
F001E0
F001E0
F001E0
F001E0
F001E0
F001E0
F001E0
F001E0
F001E0
F001E0
F001E0
F001E0
F001E0
F001E0
F001E0
F001E0
F001E0
F001E0
F001E0
F001E0
F001E0
F001E0
F803C0
7807C0
7C0F80
3FFF80
1FFF00
0FFE00
03F800
ENDCHAR
STARTCHAR utilde
ENCODING 361
SWIDTH 424 0
DWIDTH 24 0
BBX 17 40 3 0
BITMAP
0F0100
1FC380
3FFF00
387F00
103C00
000000
000000
000000
000000
000000
000000
F00780
F00780
F00780
F00780
F00780
F00780
F00780
F00780
F00780
F00780
F00780
F00780
F00780
F00780
F00780
F00780
F00780
F00780
F00780
F00780
F00780
F00780
F00780
F80F80
7C1F80
7FFF80
3FFF80
1FF780
07C780
ENDCHAR
STARTCHAR Umacron
ENCODING 362
SWIDTH 476 0
DWIDTH 27 0
BBX 19 49 4 0
BITMAP
0FFC00
0FFE00
0FFE00
0FFE00
000000
000000
000000
000000
000000
F001E0
F001E0
F001E0
F001E0
F001E0
F001E0
F001E0
F001E0
F001E0
F001E0
F001E0
F001E0
F001E0
F001E0
F001E0
F001E0
F001E0
F001E0
F001E0
F001E0
F001E0
F001E0
F001E0
F001E0
F001E0
F001E0
F001E0
F001E0
F001E0
F001E0
F001E0
F001E0
F001E0
F803C0
7807C0
7C0F80
3FFF80
1FFF00
0FFE00
03F800
ENDCHAR
STARTCHAR umacron
ENCODING 363
SWIDTH 424 0
DWIDTH 24 0
BBX 17 38 3 0
BITMAP
1FFC00
1FFC00
1FFC00
1FFC00
000000
000000
000000
000000
000000
F00780
F00780
F00780
F00780
F00780
F00780
F00780
F00780
F00780
F00780
F00780
F00780
F00780
F00780
F00780
F00780
F00780
F00780
F00780
F00780
F00780
F00780
F00780
F80F80
7C1F80
7FFF80
3FFF80
1FF780
07C780
ENDCHAR
STARTCHAR Ubreve
ENCODING 364
SWIDTH 476 0
DWIDTH 27 0
BBX 19 50 4 0
BITMAP
1C0600
0C0E00
0E0E00
0F1C00
07F800
01F000
000000
000000
000000
000000
F001E0
F001E0
F001E0
F001E0
F001E0
F001E0
F001E0
F001E0
F001E0
F001E0
F001E0
F001E0
F001E0
F001E0
F001E0
F001E0
F001E0
F001E0
F001E0
F001E0
F001E0
F001E0
F001E0
F001E0
F001E0
F001E0
F001E0
F001E0
F001E0
F001E0
F001E0
F001E0
F001E0
F803C0
7807C0
7C0F80
3FFF80
1FFF00
0FFE00
03F800
ENDCHAR
STARTCHAR ubreve
ENCODING 365
SWIDTH 424 0
DWIDTH 24 0
BBX 17 39 3 0
BITMAP
180E00
180C00
1C1C00
0E3C00
07F800
03E000
000000
000000
000000
000000
F00780
F00780
F00780
F00780
F00780
F00780
F00780
F00780
F00780
F00780
F00780
F00780
F00780
F00780
F00780
F00780
F00780
F00780
F00780
F00780
F00780
F00780
F00780
F80F80
7C1F80
7FFF80
3FFF80
1FF780
07C780
ENDCHAR
STARTCHAR Uring
ENCODING 366
SWIDTH 476 0
DWIDTH 27 0
BBX 19 56 4 0
BITMAP
01F000
07F800
0F1C00
0E0E00
1C0600
1C0600
1C0600
1C0600
0E0E00
0F1C00
07F800
01F000
000000
000000
000000
000000
F001E0
F001E0
F001E0
F001E0
F001E0
F001E0
F001E0
F001E0
F001E0
F001E0
F001E0
F001E0
F001E0
F001E0
F001E0
F001E0
F001E0
F001E0
F001E0
F001E0
F001E0
F001E0
F001E0
F001E0
F001E0
F001E0
F001E0
F001E0
F001E0
F001E0
F001E0
F001E0
F001E0
F803C0
7807C0
7C0F80
3FFF80
1FFF00
0FFE00
03F800
ENDCHAR
STARTCHAR uring
ENCODING 367
SWIDTH 424 0
DWIDTH 24 0
BBX 17 45 3 0
BITMAP
03E000
07F800
0E3C00
1C1C00
180C00
180E00
180E00
180C00
1C1C00
0E3C00
07F800
03E000
000000
000000
000000
000000
F00780
F00780
F00780
F00780
F00780
F00780
F00780
F00780
F00780
F00780
F00780
F00780
F00780
F00780
F00780
F00780
F00780
F00780
F00780
F00780
F00780
F00780
F00780
F80F80
7C1F80
7FFF80
3FFF80
1FF780
07C780
ENDCHAR
STARTCHAR Uhungarumlaut
ENCODING 368
SWIDTH 476 0
DWIDTH 27 0
BBX 19 51 4 0
BITMAP
00E1C0
01E3C0
01C380
03C780
038700
078F00
070E00
0F1E00
000000
000000
000000
F001E0
F001E0
F001E0
F001E0
F001E0
F001E0
F001E0
F001E0
F001E0
F001E0
F001E0
F001E0
F001E0
F001E0
F001E0
F001E0
F001E0
F001E0
F001E0
F001E0
F001E0
F001E0
F001E0
F001E0
F001E0
F001E0
F001E0
F001E0
F001E0
F001E0
F001E0
F001E0
F001E0
F803C0
7807C0
7C0F80
3FFF80
1FFF00
0FFE00
03F800
ENDCHAR
STARTCHAR uhungarumlaut
ENCODING 369
SWIDTH 424 0
DWIDTH 24 0
BBX 18 40 3 0
BITMAP
00E1C0
01C380
03C780
038700
078F00
070E00
0F1E00
0E1C00
000000
000000
000000
F00780
F00780
F00780
F00780
F00780
F00780
F00780
F00780
F00780
F00780
F00780
F00780
F00780
F00780
F00780
F00780
F00780
F00780
F00780
F00780
F00780
F00780
F00780
F80F80
7C1F80
7FFF80
3FFF80
1FF780
07C780
ENDCHAR
STARTCHAR Uogonek
ENCODING 370
SWIDTH 476 0
DWIDTH 27 0
BBX 19 50 4 -10
BITMAP
F001E0
F001E0
F001E0
F001E0
F001E0
F001E0
F001E0
F001E0
F001E0
F001E0
F001E0
F001E0
F001E0
F001E0
F001E0
F001E0
F001E0
F001E0
F001E0
F001E0
F001E0
F001E0
F001E0
F001E0
F001E0
F001E0
F001E0
F001E0
F001E0
F001E0
F001E0
F001E0
F001E0
F003C0
7803C0
7C07C0
3F1F80
3FFF00
0FFE00
07F800
01C000
018000
038000
030000
070000
070000
070000
03D000
03F000
00F000
ENDCHAR
STARTCHAR uogonek
ENCODING 371
SWIDTH 424 0
DWIDTH 24 0
BBX 18 39 3 -10
BITMAP
F00780
F00780
F00780
F00780
F00780
F00780
F00780
F00780
F00780
F00780
F00780
F00780
F00780
F00780
F00780
F00780
F00780
F00780
F00780
F00780
F00780
F00780
F00780
F80F80
7C1F80
7FFF80
3FFF80
1FF780
07C780
000380
000700
000E00
000E00
000C00
001C00
000E00
000F00
000FC0
0003C0
ENDCHAR
STARTCHAR Wcircumflex
ENCODING 372
SWIDTH 619 0
DWIDTH 35 0
BBX 31 51 2 0
BITMAP
0007C000
000FC000
000EE000
001EF000
003C7000
00387800
00783C00
00000000
00000000
00000000
00000000
F003801E
F003C01E
F007C01E
F007C01E
F007C01E
7807C03C
7807C03C
7807E03C
7807E03C
780EE03C
780EE03C
3C0EE078
3C0EE078
3C0EE078
3C0EF078
3C1E7078
1E1C7070
1E1C70F0
1E1C70F0
1E1C70F0
1E1C78F0
0E1C38F0
0F3838E0
0F3838E0
0F3839E0
0F3839E0
07383DE0
07381DC0
07B81DC0
07F01DC0
07F01FC0
07F01FC0
03F01FC0
03F01F80
03F00F80
03E00F80
03E00F80
01E00F80
01E00F80
01E00F00
ENDCHAR
STARTCHAR wcircumflex
ENCODING 373
SWIDTH 554 0
DWIDTH 31 0
BBX 29 40 1 0
BITMAP
000F8000
001F8000
001DC000
003DE000
0038E000
0078F000
00F07800
00000000
00000000
00000000
00000000
F0070078
F00F8078
780F80F0
780F80F0
780F80F0
780F80F0
381F80E0
381FC0E0
3C1DC1E0
3C1DC1E0
3C1DC1E0
1C1DC1C0
1C39E1C0
1E38E3C0
1E38E3C0
1E38E3C0
0E38E380
0E70F380
0F707780
0F707780
07707700
07707700
07E07F00
07E03F00
07E03F00
03E03E00
03E03E00
03E03E00
03C01E00
ENDCHAR
STARTCHAR Ycircumflex
ENCODING 374
SWIDTH 424 0
DWIDTH 24 0
BBX 20 51 2 0
BITMAP
01F000
01F800
03F800
039C00
079E00
0F0E00
0E0F00
000000
000000
000000
000000
F000F0
F801E0
7801E0
7801E0
7C03C0
3C03C0
3C03C0
1C0780
1E0780
1E0780
0E0F00
0F0F00
0F0E00
071E00
079E00
079C00
03BC00
03FC00
01F800
01F800
01F800
00F000
00F000
00F000
00F000
00F000
00F000
00F000
00F000
00F000
00F000
00F000
00F000
00F000
00F000
00F000
00F000
00F000
00F000
00F000
ENDCHAR
STARTCHAR ycircumflex
ENCODING 375
SWIDTH 367 0
DWIDTH 21 0
BBX 18 51 1 -11
BITMAP
01F000
03F000
03F800
073C00
0F1C00
0E1E00
1E0E00
000000
000000
000000
000000
F003C0
F003C0
7803C0
7803C0
7807C0
780780
3C0780
3C0780
3C0700
3C0F00
1C0F00
1E0F00
1E0E00
1E1E00
0E1E00
0F1E00
0F1C00
0F1C00
073C00
073C00
07B800
07B800
03B800
03F800
03F000
03F000
01F000
01F000
01E000
01E000
01E000
01E000
03C000
03C000
03C000
078000
3F8000
7F0000
7E0000
7C0000
ENDCHAR
STARTCHAR Ydieresis
ENCODING 376
SWIDTH 424 0
DWIDTH 24 0
BBX 20 51 2 0
BITMAP
0F0F00
1F9F80
1F9F80
1F9F80
1F1F80
0E0F00
000000
000000
000000
000000
000000
F000F0
F801E0
7801E0
7801E0
7C03C0
3C03C0
3C03C0
1C0780
1E0780
1E0780
0E0F00
0F0F00
0F0E00
071E00
079E00
079C00
03BC00
03FC00
01F800
01F800
01F800
00F000
00F000
00F000
00F000
00F000
00F000
00F000
00F000
00F000
00F000
00F000
00F000
00F000
00F000
00F000
00F000
00F000
00F000
00F000
ENDCHAR
STARTCHAR Zacute
ENCODING 377
SWIDTH 395 0
DWIDTH 22 0
BBX 18 51 2 0
BITMAP
001C00
003800
007800
007000
00E000
00E000
01C000
01C000
000000
000000
000000
FFFFC0
FFFFC0
FFFFC0
FFFFC0
000780
000780
000F80
000F00
000F00
001E00
001E00
003E00
003C00
007C00
007800
007800
00F800
00F000
01F000
01E000
01E000
03C000
03C000
07C000
078000
0F8000
0F0000
0F0000
1F0000
1E0000
3E0000
3C0000
3C0000
780000
780000
F80000
FFFF80
FFFFC0
FFFFC0
FFFFC0
ENDCHAR
STARTCHAR zacute
ENCODING 378
SWIDTH 361 0
DWIDTH 20 0
BBX 16 40 2 0
BITMAP
0030
0078
0070
00E0
01E0
01C0
0380
0380
0000
0000
0000
FFFF
FFFF
FFFF
7FFF
001F
003E
003E
007C
007C
00F8
00F8
01F0
01F0
03E0
03C0
07C0
0780
0F80
0F00
1F00
1E00
3E00
7C00
7C00
F800
FFFF
FFFF
FFFF
FFFF
ENDCHAR
STARTCHAR Zdotaccent
ENCODING 379
SWIDTH 395 0
DWIDTH 22 0
BBX 18 51 2 0
BITMAP
01E000
03F000
03F000
03F000
03F000
01E000
000000
000000
000000
000000
000000
FFFFC0
FFFFC0
FFFFC0
FFFFC0
000780
000780
000F80
000F00
000F00
001E00
001E00
003E00
003C00
007C00
007800
007800
00F800
00F000
01F000
01E000
01E000
03C000
03C000
07C000
078000
0F8000
0F0000
0F0000
1F0000
1E0000
3E0000
3C0000
3C0000
780000
780000
F80000
FFFF80
FFFFC0
FFFFC0
FFFFC0
ENDCHAR
STARTCHAR zdotaccent
ENCODING 380
SWIDTH 361 0
DWIDTH 20 0
BBX 16 40 2 0
BITMAP
03C0
07E0
07E0
07E0
07E0
03C0
0000
0000
0000
0000
0000
FFFF
FFFF
FFFF
7FFF
001F
003E
003E
007C
007C
00F8
00F8
01F0
01F0
03E0
03C0
07C0
0780
0F80
0F00
1F00
1E00
3E00
7C00
7C00
F800
FFFF
FFFF
FFFF
FFFF
ENDCHAR
STARTCHAR Zcaron
ENCODING 381
SWIDTH 395 0
DWIDTH 22 0
BBX 18 51 2 0
BITMAP
1E0E00
0E1E00
0F1C00
073800
07F800
03F000
01F000
000000
000000
000000
000000
FFFFC0
FFFFC0
FFFFC0
FFFFC0
000780
000780
000F80
000F00
000F00
001E00
001E00
003E00
003C00
007C00
007800
007800
00F800
00F000
01F000
01E000
01E000
03C000
03C000
07C000
078000
0F8000
0F0000
0F0000
1F0000
1E0000
3E0000
3C0000
3C0000
780000
780000
F80000
FFFF80
FFFFC0
FFFFC0
FFFFC0
ENDCHAR
STARTCHAR zcaron
ENCODING 382
SWIDTH 361 0
DWIDTH 20 0
BBX 16 40 2 0
BITMAP
3C1E
1C3C
1E38
0F78
0770
07E0
03E0
0000
0000
0000
0000
FFFF
FFFF
FFFF
7FFF
001F
003E
003E
007C
007C
00F8
00F8
01F0
01F0
03E0
03C0
07C0
0780
0F80
0F00
1F00
1E00
3E00
7C00
7C00
F800
FFFF
FFFF
FFFF
FFFF
ENDCHAR
STARTCHAR uni018F
ENCODING 399
SWIDTH 519 0
DWIDTH 29 0
BBX 23 40 3 0
BITMAP
00FE00
07FF80
0FFFE0
1FFFF0
3F01F8
7C00F8
78007C
F8003C
F8003E
F0001E
00001E
00001E
00001E
00001E
00001E
00001E
00001E
00001E
FFFFFE
FFFFFE
FFFFFE
FFFFFE
F0001E
F0001E
F0001E
F0001E
F0001E
F0001E
F0001E
F0001E
F0001E
F0003E
F8003C
78007C
7C00F8
3F01F8
1FFFF0
0FFFE0
07FF80
00FE00
ENDCHAR
STARTCHAR florin
ENCODING 402
SWIDTH 467 0
DWIDTH 26 0
BBX 22 51 2 -11
BITMAP
00007C
0001FC
0003FC
0007FC
0007C0
000F80
000F00
000F00
000F00
001F00
001E00
001E00
001E00
001E00
001E00
003E00
003C00
03FFE0
03FFE0
03FFE0
03FFE0
007C00
007800
007800
007800
007800
007800
007800
00F000
00F000
00F000
00F000
00F000
00F000
01F000
01E000
01E000
01E000
01E000
01E000
03E000
03C000
03C000
03C000
03C000
078000
0F8000
FF8000
FF0000
FE0000
F80000
ENDCHAR
STARTCHAR Ohorn
ENCODING 416
SWIDTH 456 0
DWIDTH 26 0
BBX 19 45 3 0
BITMAP
000040
0000E0
0000E0
0000C0
0001C0
03FF80
0FFF00
1FFF80
3FFFC0
7C07C0
7803E0
F801E0
F001E0
F001E0
F001E0
F001E0
F001E0
F001E0
F001E0
F001E0
F001E0
F001E0
F001E0
F001E0
F001E0
F001E0
F001E0
F001E0
F001E0
F001E0
F001E0
F001E0
F001E0
F001E0
F001E0
F001E0
F001E0
F001E0
F801E0
7803E0
7C07C0
3FFF80
1FFF80
0FFE00
03F800
ENDCHAR
STARTCHAR ohorn
ENCODING 417
SWIDTH 414 0
DWIDTH 23 0
BBX 18 34 3 0
BITMAP
000080
0001C0
000180
000180
000380
07FF00
1FFE00
3FFE00
7FFF00
7C0F80
F80F80
F00780
F00780
F00780
F00780
F00780
F00780
F00780
F00780
F00780
F00780
F00780
F00780
F00780
F00780
F00780
F00780
F00780
F80780
7C0F80
7FFF00
3FFE00
1FFC00
07F000
ENDCHAR
STARTCHAR Uhorn
ENCODING 431
SWIDTH 476 0
DWIDTH 27 0
BBX 23 45 4 0
BITMAP
000006
000006
000006
00000E
00001C
F001FC
F001F8
F001E0
F001E0
F001E0
F001E0
F001E0
F001E0
F001E0
F001E0
F001E0
F001E0
F001E0
F001E0
F001E0
F001E0
F001E0
F001E0
F001E0
F001E0
F001E0
F001E0
F001E0
F001E0
F001E0
F001E0
F001E0
F001E0
F001E0
F001E0
F001E0
F001E0
F001E0
F803C0
7807C0
7C0F80
3FFF80
1FFF00
0FFE00
03F800
ENDCHAR
STARTCHAR uhorn
ENCODING 432
SWIDTH 424 0
DWIDTH 24 0
BBX 22 34 3 0
BITMAP
000008
00001C
000018
000038
000078
F007F0
F007E0
F00780
F00780
F00780
F00780
F00780
F00780
F00780
F00780
F00780
F00780
F00780
F00780
F00780
F00780
F00780
F00780
F00780
F00780
F00780
F00780
F00780
F80F80
7C1F80
7FFF80
3FFF80
1FF780
07C780
ENDCHAR
STARTCHAR uni01CD
ENCODING 461
SWIDTH 410 0
DWIDTH 23 0
BBX 21 51 1 0
BITMAP
0F0780
078F00
038E00
03DE00
01DC00
01FC00
00F800
000000
000000
000000
000000
00F800
00F800
00F800
01F800
01FC00
01FC00
01FC00
01DC00
03DC00
03DE00
03DE00
038E00
038E00
078F00
078F00
078F00
070700
0F0700
0F0780
0F0780
0F0780
0E0380
1E03C0
1E03C0
1E03C0
1E03C0
3C01C0
3C01E0
3C01E0
3FFFE0
3FFFE0
7FFFF0
7FFFF0
7800F0
7800F0
7800F0
F00078
F00078
F00078
F00078
ENDCHAR
STARTCHAR uni01CE
ENCODING 462
SWIDTH 411 0
DWIDTH 23 0
BBX 18 40 2 0
BITMAP
1E0F00
0F0E00
071E00
07BC00
03B800
03F800
01F000
000000
000000
000000
000000
03F800
0FFE00
1FFF00
3FFF80
3E0F80
7C07C0
7803C0
7803C0
0003C0
0003C0
0003C0
003FC0
07FFC0
1FFFC0
3FFFC0
7E03C0
7C03C0
7803C0
F803C0
F003C0
F003C0
F003C0
F803C0
F807C0
7C0FC0
7FFFC0
3FFFC0
1FFBC0
07E3C0
ENDCHAR
STARTCHAR uni01D4
ENCODING 468
SWIDTH 424 0
DWIDTH 24 0
BBX 17 40 3 0
BITMAP
1C1E00
1E1C00
0E3C00
0F3800
07F000
03F000
03E000
000000
000000
000000
000000
F00780
F00780
F00780
F00780
F00780
F00780
F00780
F00780
F00780
F00780
F00780
F00780
F00780
F00780
F00780
F00780
F00780
F00780
F00780
F00780
F00780
F00780
F00780
F80F80
7C1F80
7FFF80
3FFF80
1FF780
07C780
ENDCHAR
STARTCHAR uni01E5
ENCODING 485
SWIDTH 421 0
DWIDTH 24 0
BBX 20 40 3 -11
BITMAP
07C780
1FF780
3FFF80
7FFF80
FC1F80
F80F80
F00780
F00780
F00780
F00780
F00780
F00780
F00780
F0FFF0
F0FFF0
F0FFF0
F00780
F00780
F00780
F00780
F00780
F00780
F00780
F80F80
7C1F80
7FFF80
3FFF80
1FF780
07C780
000780
000780
000780
000780
000F00
001F00
003F00
07FE00
07FC00
07F000
07C000
ENDCHAR
STARTCHAR gcaron
ENCODING 487
SWIDTH 413 0
DWIDTH 23 0
BBX 17 51 3 -11
BITMAP
1C1E00
1E1C00
0E3C00
0F3800
077000
03F000
03E000
000000
000000
000000
000000
07C780
1FF780
3FFF80
7FFF80
FC1F80
F80F80
F00780
F00780
F00780
F00780
F00780
F00780
F00780
F00780
F00780
F00780
F00780
F00780
F00780
F00780
F00780
F00780
F00780
F80F80
7C1F80
7FFF80
3FFF80
1FF780
07C780
000780
000780
000780
000780
000F00
001F00
003F00
07FE00
07FC00
07F800
07C000
ENDCHAR
STARTCHAR uni01E9
ENCODING 489
SWIDTH 405 0
DWIDTH 23 0
BBX 18 51 3 0
BITMAP
1C1E00
1E1C00
0E3C00
0F3800
077000
03F000
03E000
000000
000000
000000
000000
F00000
F00000
F00000
F00000
F00000
F00000
F00000
F00000
F00000
F00000
F00000
F00780
F00F00
F00F00
F01E00
F03C00
F03C00
F07800
F0F000
F0F000
F1E000
F3F000
F3F000
F7F000
FF7800
FE7800
FE3C00
FC3C00
F83C00
F81E00
F01E00
F01E00
F00F00
F00F00
F00F00
F00780
F00780
F00780
F003C0
F003C0
ENDCHAR
STARTCHAR uni01EF
ENCODING 495
SWIDTH 439 0
DWIDTH 25 0
BBX 19 51 3 -11
BITMAP
1E0F00
0E1E00
0F1C00
07BC00
03B800
03F000
01F000
000000
000000
000000
000000
7FFF80
7FFF80
7FFF80
7FFF80
001F00
003E00
007E00
00FC00
00F800
01F000
03E000
07C000
0F8000
1F0000
3E0000
7FF000
3FFC00
3FFE00
003F00
000F80
0007C0
0003C0
0003E0
0001E0
0001E0
0001E0
0001E0
0001E0
0001E0
0001E0
0001E0
0003E0
0003C0
0007C0
000F80
003F00
FFFE00
FFFC00
FFF000
7F8000
ENDCHAR
STARTCHAR oslashacute
ENCODING 511
SWIDTH 414 0
DWIDTH 23 0
BBX 18 42 3 -2
BITMAP
003800
007800
007000
00F000
00E000
01C000
01C000
038000
000000
000380
0003C0
03F780
1FFF80
3FFF00
7FFF00
7C1F80
F81F80
F01F80
F03F80
F03F80
F07BC0
F07BC0
F0F3C0
F0F3C0
F0E3C0
F1E3C0
F1C3C0
F3C3C0
F383C0
F783C0
F783C0
FF07C0
FF0780
FE0780
FE0780
7C0F80
7FFF00
3FFE00
7FFC00
77F000
F00000
600000
ENDCHAR
STARTCHAR uni0218
ENCODING 536
SWIDTH 416 0
DWIDTH 23 0
BBX 19 51 2 -11
BITMAP
03F800
0FFE00
1FFF00
3FFF80
7C0F80
7807C0
7803C0
F003C0
F001E0
F001E0
F001E0
F001E0
780000
780000
7C0000
3E0000
1F0000
0FC000
07E000
03F000
01FC00
007E00
003F00
001F80
000FC0
0007C0
0003E0
0001E0
F001E0
F001E0
F001E0
F001E0
7801E0
7803E0
7C03C0
3E07C0
3FFF80
1FFF00
0FFE00
03F800
000000
000000
000000
001800
003C00
003800
007000
007000
00E000
01E000
01C000
ENDCHAR
STARTCHAR uni0219
ENCODING 537
SWIDTH 375 0
DWIDTH 21 0
BBX 17 40 2 -11
BITMAP
07F000
1FFC00
3FFE00
3FFF00
7C0F00
780780
780780
700780
700780
780000
780000
7E0000
3F8000
1FE000
07F800
01FC00
007E00
001F00
000F80
000780
700780
F00780
F00780
780780
7C0F80
7FFF00
3FFE00
1FFC00
07F000
000000
000000
000000
003800
007800
007000
00F000
00E000
01C000
01C000
038000
ENDCHAR
STARTCHAR uni021A
ENCODING 538
SWIDTH 423 0
DWIDTH 24 0
BBX 20 51 2 -11
BITMAP
FFFFF0
FFFFF0
FFFFF0
FFFFE0
00F000
00F000
00F000
00F000
00F000
00F000
00F000
00F000
00F000
00F000
00F000
00F000
00F000
00F000
00F000
00F000
00F000
00F000
00F000
00F000
00F000
00F000
00F000
00F000
00F000
00F000
00F000
00F000
00F000
00F000
00F000
00F000
00F000
00F000
00F000
00F000
000000
000000
000000
00C000
01C000
03C000
038000
070000
070000
0E0000
1E0000
ENDCHAR
STARTCHAR uni021B
ENCODING 539
SWIDTH 267 0
DWIDTH 15 0
BBX 12 46 1 -10
BITMAP
1E00
1E00
1E00
1E00
1E00
1E00
1E00
FFF0
FFF0
FFF0
7FF0
1E00
1E00
1E00
1E00
1E00
1E00
1E00
1E00
1E00
1E00
1E00
1E00
1E00
1E00
1E00
1E00
1E00
1E00
1F00
1F00
0F00
0FF0
0FF0
07F0
01F0
0000
0000
0070
00F0
00E0
01E0
01C0
0380
0380
0700
ENDCHAR
STARTCHAR uni021F
ENCODING 543
SWIDTH 424 0
DWIDTH 24 0
BBX 18 51 3 0
BITMAP
1E0E00
0E1E00
0F1C00
07BC00
03B800
03F000
01F000
000000
000000
000000
000000
F00000
F00000
F00000
F00000
F00000
F00000
F00000
F00000
F00000
F00000
F00000
F0F800
F3FE00
F7FF00
FFFF80
FC0F80
F80780
F80780
F803C0
F003C0
F003C0
F003C0
F003C0
F003C0
F003C0
F003C0
F003C0
F003C0
F003C0
F003C0
F003C0
F003C0
F003C0
F003C0
F003C0
F003C0
F003C0
F003C0
F003C0
F003C0
ENDCHAR
STARTCHAR uni0228
ENCODING 552
SWIDTH 429 0
DWIDTH 24 0
BBX 18 50 4 -10
BITMAP
FFFFC0
FFFFC0
FFFFC0
FFFF80
F00000
F00000
F00000
F00000
F00000
F00000
F00000
F00000
F00000
F00000
F00000
F00000
F00000
F00000
FFF000
FFF800
FFF800
FFF800
F00000
F00000
F00000
F00000
F00000
F00000
F00000
F00000
F00000
F00000
F00000
F00000
F00000
F00000
FFFF80
FFFFC0
FFFFC0
FFFFC0
00E000
006000
007000
003000
003800
003800
007800
02F000
03F000
03C000
ENDCHAR
STARTCHAR uni0229
ENCODING 553
SWIDTH 408 0
DWIDTH 23 0
BBX 17 39 3 -10
BITMAP
07F000
1FFC00
3FFE00
7FFF00
7C1F00
F80F80
F00780
F00780
F00780
F00780
F00780
F00780
F00780
FFFF80
FFFF80
FFFF80
FFFF80
F00000
F00000
F00000
F00000
F00000
F00780
F00780
F80F80
7C1F00
3FFF00
1FFE00
0FF800
01E000
00E000
007000
007000
003000
003000
007000
00F000
03E000
03C000
ENDCHAR
STARTCHAR uni0237
ENCODING 567
SWIDTH 198 0
DWIDTH 11 0
BBX 9 40 -2 -11
BITMAP
0780
0780
0780
0780
0780
0780
0780
0780
0780
0780
0780
0780
0780
0780
0780
0780
0780
0780
0780
0780
0780
0780
0780
0780
0780
0780
0780
0780
0780
0780
0780
0780
0780
0780
0780
0F80
7F00
FF00
FE00
F800
ENDCHAR
STARTCHAR uni0259
ENCODING 601
SWIDTH 408 0
DWIDTH 23 0
BBX 18 29 2 0
BITMAP
03F800
0FFE00
1FFF00
3FFF80
7C0F80
7807C0
7803C0
7003C0
0003C0
0003C0
0003C0
0003C0
7FFFC0
FFFFC0
FFFFC0
FFFFC0
F003C0
F003C0
F003C0
F003C0
F003C0
7803C0
7803C0
7807C0
7C0F80
3FFF80
1FFF00
0FFE00
03F000
ENDCHAR
STARTCHAR uni0292
ENCODING 658
SWIDTH 439 0
DWIDTH 25 0
BBX 19 40 3 -11
BITMAP
7FFF80
7FFF80
7FFF80
7FFF80
001F00
003E00
007E00
00FC00
00F800
01F000
03E000
07C000
0F8000
1F0000
3E0000
7FF000
3FFC00
3FFE00
003F00
000F80
0007C0
0003C0
0003E0
0001E0
0001E0
0001E0
0001E0
0001E0
0001E0
0001E0
0001E0
0003E0
0003C0
0007C0
000F80
003F00
FFFE00
FFFC00
FFF000
7F8000
ENDCHAR
STARTCHAR uni02BB
ENCODING 699
SWIDTH 123 0
DWIDTH 7 0
BBX 7 12 0 28
BITMAP
F0
F0
78
78
78
38
3C
3C
1C
1C
1E
0E
ENDCHAR
STARTCHAR uni02BC
ENCODING 700
SWIDTH 123 0
DWIDTH 7 0
BBX 7 12 0 28
BITMAP
1E
3C
3C
3C
38
38
78
78
70
70
F0
E0
ENDCHAR
STARTCHAR circumflex
ENCODING 710
SWIDTH 232 0
DWIDTH 13 0
BBX 12 7 2 33
BITMAP
1F00
1F80
3F80
7BC0
71E0
F0E0
E0F0
ENDCHAR
STARTCHAR caron
ENCODING 711
SWIDTH 276 0
DWIDTH 15 0
BBX 12 7 2 33
BITMAP
E0F0
F0E0
71E0
79C0
3F80
1F80
1F00
ENDCHAR
STARTCHAR uni02C9
ENCODING 713
SWIDTH 203 0
DWIDTH 11 0
BBX 11 4 0 37
BITMAP
7FE0
FFE0
FFE0
FFE0
ENDCHAR
STARTCHAR breve
ENCODING 728
SWIDTH 254 0
DWIDTH 14 0
BBX 12 6 1 32
BITMAP
E030
E070
6070
78E0
3FC0
0F80
ENDCHAR
STARTCHAR dotaccent
ENCODING 729
SWIDTH 156 0
DWIDTH 9 0
BBX 7 6 1 34
BITMAP
38
7C
FE
FE
7C
38
ENDCHAR
STARTCHAR ring
ENCODING 730
SWIDTH 256 0
DWIDTH 14 0
BBX 12 12 1 33
BITMAP
1F80
3FC0
70E0
6070
E070
E030
E030
E070
7070
78E0
3FC0
0F80
ENDCHAR
STARTCHAR ogonek
ENCODING 731
SWIDTH 121 0
DWIDTH 7 0
BBX 7 11 0 -10
BITMAP
18
38
70
60
E0
E0
E0
E0
F4
7C
3E
ENDCHAR
STARTCHAR tilde
ENCODING 732
SWIDTH 311 0
DWIDTH 17 0
BBX 15 5 1 35
BITMAP
1E04
7F8E
7FFE
E1FC
2070
ENDCHAR
STARTCHAR hungarumlaut
ENCODING 733
SWIDTH 304 0
DWIDTH 17 0
BBX 15 8 1 33
BITMAP
070E
0E1C
1E3C
1C38
3870
3870
70E0
F1E0
ENDCHAR
STARTCHAR gravecomb
ENCODING 768
SWIDTH 0 0
DWIDTH 0 0
BBX 7 8 -7 32
BITMAP
C0
E0
F0
70
38
38
1C
0E
ENDCHAR
STARTCHAR acutecomb
ENCODING 769
SWIDTH 0 0
DWIDTH 0 0
BBX 7 8 -8 32
BITMAP
06
0E
1E
1C
38
38
70
F0
ENDCHAR
STARTCHAR uni0302
ENCODING 770
SWIDTH 0 0
DWIDTH 0 0
BBX 12 7 -14 33
BITMAP
0F80
1F80
1FC0
3DE0
78E0
70F0
F070
ENDCHAR
STARTCHAR tildecomb
ENCODING 771
SWIDTH 0 0
DWIDTH 0 0
BBX 15 5 -15 35
BITMAP
1E04
7F0E
7FFC
E1FC
40F0
ENDCHAR
STARTCHAR uni0304
ENCODING 772
SWIDTH 0 0
DWIDTH 0 0
BBX 11 4 -11 35
BITMAP
FFE0
FFE0
FFE0
FFE0
ENDCHAR
STARTCHAR uni0306
ENCODING 774
SWIDTH 0 0
DWIDTH 0 0
BBX 12 6 -13 33
BITMAP
C070
E070
E060
71E0
3FC0
1F00
ENDCHAR
STARTCHAR uni0307
ENCODING 775
SWIDTH 0 0
DWIDTH 0 0
BBX 7 6 -7 34
BITMAP
38
7C
7E
FE
7C
38
ENDCHAR
STARTCHAR uni0308
ENCODING 776
SWIDTH 0 0
DWIDTH 0 0
BBX 15 6 -15 34
BITMAP
383C
7C7E
FE7E
FE7E
7C7E
383C
ENDCHAR
STARTCHAR hookabovecomb
ENCODING 777
SWIDTH 0 0
DWIDTH 0 0
BBX 10 10 -23 31
BITMAP
1F00
3F80
71C0
E0C0
00C0
01C0
0180
0380
0700
0E00
ENDCHAR
STARTCHAR uni030A
ENCODING 778
SWIDTH 0 0
DWIDTH 0 0
BBX 11 12 -11 33
BITMAP
1F00
7FC0
71C0
E0E0
C060
C060
C060
C060
E0E0
71C0
7F80
1F00
ENDCHAR
STARTCHAR uni030B
ENCODING 779
SWIDTH 0 0
DWIDTH 0 0
BBX 13 8 -15 32
BITMAP
0C18
1C38
3C78
3870
78F0
70E0
F1E0
E1C0
ENDCHAR
STARTCHAR uni030C
ENCODING 780
SWIDTH 0 0
DWIDTH 0 0
BBX 12 7 -14 33
BITMAP
F070
70F0
78E0
39E0
1DC0
1F80
0F80
ENDCHAR
STARTCHAR uni0312
ENCODING 786
SWIDTH 0 0
DWIDTH 0 0
BBX 7 8 -9 32
BITMAP
06
0E
0E
1C
3C
38
78
F0
ENDCHAR
STARTCHAR uni0313
ENCODING 787
SWIDTH 0 0
DWIDTH 0 0
BBX 7 8 -8 32
BITMAP
06
0E
1E
1C
38
38
70
F0
ENDCHAR
STARTCHAR uni031B
ENCODING 795
SWIDTH 0 0
DWIDTH 0 0
BBX 6 7 -7 27
BITMAP
0C
0C
1C
1C
38
F0
C0
ENDCHAR
STARTCHAR dotbelowcomb
ENCODING 803
SWIDTH 0 0
DWIDTH 0 0
BBX 6 6 -6 -11
BITMAP
70
F8
FC
FC
F8
70
ENDCHAR
STARTCHAR uni0326
ENCODING 806
SWIDTH 0 0
DWIDTH 0 0
BBX 7 8 -9 -11
BITMAP
0E
1E
1C
3C
38
70
70
E0
ENDCHAR
STARTCHAR uni0327
ENCODING 807
SWIDTH 0 0
DWIDTH 0 0
BBX 6 10 -6 -10
BITMAP
70
38
38
1C
1C
1C
1C
3C
F8
F0
ENDCHAR
STARTCHAR uni0328
ENCODING 808
SWIDTH 0 0
DWIDTH 0 0
BBX 7 11 -7 -10
BITMAP
1C
38
70
70
E0
E0
E0
E0
7A
7E
3E
ENDCHAR
STARTCHAR uni0335
ENCODING 821
SWIDTH 0 0
DWIDTH 0 0
BBX 15 3 -15 32
BITMAP
FFFE
FFFE
FFFE
ENDCHAR
STARTCHAR uni0336
ENCODING 822
SWIDTH 0 0
DWIDTH 0 0
BBX 24 3 -24 29
BITMAP
FFFFFF
FFFFFF
FFFFFF
ENDCHAR
STARTCHAR uni0337
ENCODING 823
SWIDTH 0 0
DWIDTH 0 0
BBX 22 16 -18 8
BITMAP
000038
00007C
0000F8
0003F0
0007C0
001F80
003F00
007C00
01F800
03E000
07C000
1F8000
3E0000
FC0000
F80000
600000
ENDCHAR
STARTCHAR uni0338
ENCODING 824
SWIDTH 0 0
DWIDTH 0 0
BBX 21 45 -21 -2
BITMAP
000030
000038
000070
000070
0000E0
0000E0
0000E0
0001C0
0001C0
000380
000380
000300
000700
000700
000E00
000E00
001C00
001C00
001C00
003800
003800
007000
007000
007000
00E000
00E000
01C000
01C000
018000
038000
038000
070000
070000
0E0000
0E0000
0E0000
1C0000
1C0000
380000
380000
380000
700000
700000
E00000
E00000
ENDCHAR
STARTCHAR uni0394
ENCODING 916
SWIDTH 499 0
DWIDTH 28 0
BBX 26 39 1 0
BITMAP
001E0000
001E0000
001E0000
003F0000
003F0000
003F0000
007F8000
00738000
00738000
00F3C000
00E1C000
00E1C000
01E1E000
01C0E000
01C0E000
03C0F000
0380F000
03807000
07807800
07807800
07003800
0F003C00
0F003C00
0E001C00
1E001E00
1E001E00
1C000E00
3C000F00
3C000F00
38000F00
78000780
78000780
78000780
F00003C0
F00003C0
F00003C0
FFFFFFC0
FFFFFFC0
FFFFFFC0
ENDCHAR
STARTCHAR uni03A9
ENCODING 937
SWIDTH 481 0
DWIDTH 27 0
BBX 21 39 3 0
BITMAP
01FC00
07FF00
0FFF80
1F07C0
3E03E0
3C01E0
7800F0
7800F0
7800F0
7800F0
7800F0
7800F0
7800F0
7800F0
7800F0
7800F0
7800F0
7800F0
7800F0
7800F0
7800F0
7800F0
7800F0
7800F0
7800F0
7800F0
7800F0
7800F0
7800F0
7800F0
7800F0
7800F0
3800F0
3C01E0
1E01C0
0F8780
FF8FF8
FF8FF8
FF8FF8
ENDCHAR
STARTCHAR uni03BC
ENCODING 956
SWIDTH 429 0
DWIDTH 24 0
BBX 18 40 3 -11
BITMAP
F003C0
F003C0
F003C0
F003C0
F003C0
F003C0
F003C0
F003C0
F003C0
F003C0
F003C0
F003C0
F003C0
F003C0
F003C0
F003C0
F003C0
F003C0
F003C0
F003C0
F003C0
F807C0
F807C0
F807C0
FC0FC0
FFFFC0
FFFBC0
FFF3C0
FFE3C0
F00000
F00000
F00000
F00000
F00000
F00000
F00000
F00000
F00000
F00000
F00000
ENDCHAR
STARTCHAR pi
ENCODING 960
SWIDTH 508 0
DWIDTH 28 0
BBX 25 28 2 0
BITMAP
FFFFFF80
FFFFFF80
FFFFFF80
0F007800
0F007800
0F007800
0F007800
0F007800
0F007800
0F007800
0F007800
0F007800
0F007800
0F007800
0F007800
0F007800
0F007800
0F007800
0F007800
0F007800
0F007800
0F007800
0F007800
0F007C00
0F007F00
0F007F00
0F003F00
0F001F00
ENDCHAR
STARTCHAR Wgrave
ENCODING 7808
SWIDTH 619 0
DWIDTH 35 0
BBX 31 51 2 0
BITMAP
00380000
003C0000
001C0000
001E0000
000E0000
000F0000
00070000
00038000
00000000
00000000
00000000
F003801E
F003C01E
F007C01E
F007C01E
F007C01E
7807C03C
7807C03C
7807E03C
7807E03C
780EE03C
780EE03C
3C0EE078
3C0EE078
3C0EE078
3C0EF078
3C1E7078
1E1C7070
1E1C70F0
1E1C70F0
1E1C70F0
1E1C78F0
0E1C38F0
0F3838E0
0F3838E0
0F3839E0
0F3839E0
07383DE0
07381DC0
07B81DC0
07F01DC0
07F01FC0
07F01FC0
03F01FC0
03F01F80
03F00F80
03E00F80
03E00F80
01E00F80
01E00F80
01E00F00
ENDCHAR
STARTCHAR wgrave
ENCODING 7809
SWIDTH 554 0
DWIDTH 31 0
BBX 29 40 1 0
BITMAP
00700000
00780000
00380000
003C0000
001C0000
001E0000
000E0000
00070000
00000000
00000000
00000000
F0070078
F00F8078
780F80F0
780F80F0
780F80F0
780F80F0
381F80E0
381FC0E0
3C1DC1E0
3C1DC1E0
3C1DC1E0
1C1DC1C0
1C39E1C0
1E38E3C0
1E38E3C0
1E38E3C0
0E38E380
0E70F380
0F707780
0F707780
07707700
07707700
07E07F00
07E03F00
07E03F00
03E03E00
03E03E00
03E03E00
03C01E00
ENDCHAR
STARTCHAR Wacute
ENCODING 7810
SWIDTH 619 0
DWIDTH 35 0
BBX 31 51 2 0
BITMAP
00007000
0000F000
0000E000
0001C000
0001C000
00038000
00078000
00070000
00000000
00000000
00000000
F003801E
F003C01E
F007C01E
F007C01E
F007C01E
7807C03C
7807C03C
7807E03C
7807E03C
780EE03C
780EE03C
3C0EE078
3C0EE078
3C0EE078
3C0EF078
3C1E7078
1E1C7070
1E1C70F0
1E1C70F0
1E1C70F0
1E1C78F0
0E1C38F0
0F3838E0
0F3838E0
0F3839E0
0F3839E0
07383DE0
07381DC0
07B81DC0
07F01DC0
07F01FC0
07F01FC0
03F01FC0
03F01F80
03F00F80
03E00F80
03E00F80
01E00F80
01E00F80
01E00F00
ENDCHAR
STARTCHAR wacute
ENCODING 7811
SWIDTH 554 0
DWIDTH 31 0
BBX 29 40 1 0
BITMAP
0000E000
0001E000
0001C000
0003C000
00038000
00070000
00070000
000E0000
00000000
00000000
00000000
F0070078
F00F8078
780F80F0
780F80F0
780F80F0
780F80F0
381F80E0
381FC0E0
3C1DC1E0
3C1DC1E0
3C1DC1E0
1C1DC1C0
1C39E1C0
1E38E3C0
1E38E3C0
1E38E3C0
0E38E380
0E70F380
0F707780
0F707780
07707700
07707700
07E07F00
07E03F00
07E03F00
03E03E00
03E03E00
03E03E00
03C01E00
ENDCHAR
STARTCHAR Wdieresis
ENCODING 7812
SWIDTH 619 0
DWIDTH 35 0
BBX 31 51 2 0
BITMAP
00783800
00FC7C00
00FCFE00
00FCFE00
00FC7C00
00783800
00000000
00000000
00000000
00000000
00000000
F003801E
F003C01E
F007C01E
F007C01E
F007C01E
7807C03C
7807C03C
7807E03C
7807E03C
780EE03C
780EE03C
3C0EE078
3C0EE078
3C0EE078
3C0EF078
3C1E7078
1E1C7070
1E1C70F0
1E1C70F0
1E1C70F0
1E1C78F0
0E1C38F0
0F3838E0
0F3838E0
0F3839E0
0F3839E0
07383DE0
07381DC0
07B81DC0
07F01DC0
07F01FC0
07F01FC0
03F01FC0
03F01F80
03F00F80
03E00F80
03E00F80
01E00F80
01E00F80
01E00F00
ENDCHAR
STARTCHAR wdieresis
ENCODING 7813
SWIDTH 554 0
DWIDTH 31 0
BBX 29 40 1 0
BITMAP
00F07000
01F8F800
01F8FC00
01F8FC00
00F8F800
00F07000
00000000
00000000
00000000
00000000
00000000
F0070078
F00F8078
780F80F0
780F80F0
780F80F0
780F80F0
381F80E0
381FC0E0
3C1DC1E0
3C1DC1E0
3C1DC1E0
1C1DC1C0
1C39E1C0
1E38E3C0
1E38E3C0
1E38E3C0
0E38E380
0E70F380
0F707780
0F707780
07707700
07707700
07E07F00
07E03F00
07E03F00
03E03E00
03E03E00
03E03E00
03C01E00
ENDCHAR
STARTCHAR uni1EA0
ENCODING 7840
SWIDTH 410 0
DWIDTH 23 0
BBX 21 51 1 -11
BITMAP
00F800
00F800
00F800
01F800
01FC00
01FC00
01FC00
01DC00
03DC00
03DE00
03DE00
038E00
038E00
078F00
078F00
078F00
070700
0F0700
0F0780
0F0780
0F0780
0E0380
1E03C0
1E03C0
1E03C0
1E03C0
3C01C0
3C01E0
3C01E0
3FFFE0
3FFFE0
7FFFF0
7FFFF0
7800F0
7800F0
7800F0
F00078
F00078
F00078
F00078
000000
000000
000000
000000
000000
007000
00F800
00F800
00FC00
00F800
007000
ENDCHAR
STARTCHAR uni1EA1
ENCODING 7841
SWIDTH 411 0
DWIDTH 23 0
BBX 18 40 2 -11
BITMAP
03F800
0FFE00
1FFF00
3FFF80
3E0F80
7C07C0
7803C0
7803C0
0003C0
0003C0
0003C0
003FC0
07FFC0
1FFFC0
3FFFC0
7E03C0
7C03C0
7803C0
F803C0
F003C0
F003C0
F003C0
F803C0
F807C0
7C0FC0
7FFFC0
3FFFC0
1FFBC0
07E3C0
000000
000000
000000
000000
000000
00E000
01F000
01F000
01F800
01F000
00E000
ENDCHAR
STARTCHAR uni1EA2
ENCODING 7842
SWIDTH 410 0
DWIDTH 23 0
BBX 21 52 1 0
BITMAP
00F800
01FE00
038E00
030600
000600
000600
000E00
001C00
003800
003000
000000
000000
00F800
00F800
00F800
01F800
01FC00
01FC00
01FC00
01DC00
03DC00
03DE00
03DE00
038E00
038E00
078F00
078F00
078F00
070700
0F0700
0F0780
0F0780
0F0780
0E0380
1E03C0
1E03C0
1E03C0
1E03C0
3C01C0
3C01E0
3C01E0
3FFFE0
3FFFE0
7FFFF0
7FFFF0
7800F0
7800F0
7800F0
F00078
F00078
F00078
F00078
ENDCHAR
STARTCHAR uni1EA3
ENCODING 7843
SWIDTH 411 0
DWIDTH 23 0
BBX 18 41 2 0
BITMAP
01F800
03FC00
071C00
060C00
000C00
000C00
001C00
003800
007000
006000
000000
000000
03F800
0FFE00
1FFF00
3FFF80
3E0F80
7C07C0
7803C0
7803C0
0003C0
0003C0
0003C0
003FC0
07FFC0
1FFFC0
3FFFC0
7E03C0
7C03C0
7803C0
F803C0
F003C0
F003C0
F003C0
F803C0
F807C0
7C0FC0
7FFFC0
3FFFC0
1FFBC0
07E3C0
ENDCHAR
STARTCHAR uni1EA4
ENCODING 7844
SWIDTH 410 0
DWIDTH 23 0
BBX 24 55 1 0
BITMAP
000007
00000E
00001E
00001C
00F838
01F838
01DC70
03DE70
078E00
070F00
0F0780
000000
000000
000000
000000
00F800
00F800
00F800
01F800
01FC00
01FC00
01FC00
01DC00
03DC00
03DE00
03DE00
038E00
038E00
078F00
078F00
078F00
070700
0F0700
0F0780
0F0780
0F0780
0E0380
1E03C0
1E03C0
1E03C0
1E03C0
3C01C0
3C01E0
3C01E0
3FFFE0
3FFFE0
7FFFF0
7FFFF0
7800F0
7800F0
7800F0
F00078
F00078
F00078
F00078
ENDCHAR
STARTCHAR uni1EA5
ENCODING 7845
SWIDTH 411 0
DWIDTH 23 0
BBX 23 44 2 0
BITMAP
00000E
00001C
00003C
000038
01F078
03F070
03B8E0
07BCE0
071C00
0F1E00
1E0F00
000000
000000
000000
000000
03F800
0FFE00
1FFF00
3FFF80
3E0F80
7C07C0
7803C0
7803C0
0003C0
0003C0
0003C0
003FC0
07FFC0
1FFFC0
3FFFC0
7E03C0
7C03C0
7803C0
F803C0
F003C0
F003C0
F003C0
F803C0
F807C0
7C0FC0
7FFFC0
3FFFC0
1FFBC0
07E3C0
ENDCHAR
STARTCHAR uni1EA6
ENCODING 7846
SWIDTH 410 0
DWIDTH 23 0
BBX 21 58 1 0
BITMAP
000700
000700
000380
0003C0
0001C0
0001E0
0000E0
00F870
01F800
01DC00
03DE00
078E00
070F00
0F0780
000000
000000
000000
000000
00F800
00F800
00F800
01F800
01FC00
01FC00
01FC00
01DC00
03DC00
03DE00
03DE00
038E00
038E00
078F00
078F00
078F00
070700
0F0700
0F0780
0F0780
0F0780
0E0380
1E03C0
1E03C0
1E03C0
1E03C0
3C01C0
3C01E0
3C01E0
3FFFE0
3FFFE0
7FFFF0
7FFFF0
7800F0
7800F0
7800F0
F00078
F00078
F00078
F00078
ENDCHAR
STARTCHAR uni1EA7
ENCODING 7847
SWIDTH 411 0
DWIDTH 23 0
BBX 19 47 2 0
BITMAP
000E00
000F00
000700
000780
000380
0003C0
0001C0
01F0E0
03F000
03B800
07BC00
071C00
0F1E00
1E0F00
000000
000000
000000
000000
03F800
0FFE00
1FFF00
3FFF80
3E0F80
7C07C0
7803C0
7803C0
0003C0
0003C0
0003C0
003FC0
07FFC0
1FFFC0
3FFFC0
7E03C0
7C03C0
7803C0
F803C0
F003C0
F003C0
F003C0
F803C0
F807C0
7C0FC0
7FFFC0
3FFFC0
1FFBC0
07E3C0
ENDCHAR
STARTCHAR uni1EA8
ENCODING 7848
SWIDTH 410 0
DWIDTH 23 0
BBX 22 59 1 0
BITMAP
0001F0
0003F8
00071C
00060C
00000C
00001C
000038
000070
00F860
01F8E0
01DC00
03DE00
078E00
070F00
0F0780
000000
000000
000000
000000
00F800
00F800
00F800
01F800
01FC00
01FC00
01FC00
01DC00
03DC00
03DE00
03DE00
038E00
038E00
078F00
078F00
078F00
070700
0F0700
0F0780
0F0780
0F0780
0E0380
1E03C0
1E03C0
1E03C0
1E03C0
3C01C0
3C01E0
3C01E0
3FFFE0
3FFFE0
7FFFF0
7FFFF0
7800F0
7800F0
7800F0
F00078
F00078
F00078
F00078
ENDCHAR
STARTCHAR uni1EA9
ENCODING 7849
SWIDTH 411 0
DWIDTH 23 0
BBX 21 48 2 0
BITMAP
0003E0
0007F0
000E38
000C18
000018
000038
000070
0000E0
01F0C0
03F1C0
03B800
07BC00
071C00
0F1E00
1E0F00
000000
000000
000000
000000
03F800
0FFE00
1FFF00
3FFF80
3E0F80
7C07C0
7803C0
7803C0
0003C0
0003C0
0003C0
003FC0
07FFC0
1FFFC0
3FFFC0
7E03C0
7C03C0
7803C0
F803C0
F003C0
F003C0
F003C0
F803C0
F807C0
7C0FC0
7FFFC0
3FFFC0
1FFBC0
07E3C0
ENDCHAR
STARTCHAR uni1EAA
ENCODING 7850
SWIDTH 410 0
DWIDTH 23 0
BBX 21 58 1 0
BITMAP
03C080
0FF1C0
0FFFC0
1C3F80
040E00
000000
000000
00F800
01F800
01DC00
03DE00
078E00
070F00
0F0780
000000
000000
000000
000000
00F800
00F800
00F800
01F800
01FC00
01FC00
01FC00
01DC00
03DC00
03DE00
03DE00
038E00
038E00
078F00
078F00
078F00
070700
0F0700
0F0780
0F0780
0F0780
0E0380
1E03C0
1E03C0
1E03C0
1E03C0
3C01C0
3C01E0
3C01E0
3FFFE0
3FFFE0
7FFFF0
7FFFF0
7800F0
7800F0
7800F0
F00078
F00078
F00078
F00078
ENDCHAR
STARTCHAR uni1EAB
ENCODING 7851
SWIDTH 411 0
DWIDTH 23 0
BBX 18 47 2 0
BITMAP
078100
0FE380
1FFF80
387F00
081C00
000000
000000
01F000
03F000
03B800
07BC00
071C00
0F1E00
1E0F00
000000
000000
000000
000000
03F800
0FFE00
1FFF00
3FFF80
3E0F80
7C07C0
7803C0
7803C0
0003C0
0003C0
0003C0
003FC0
07FFC0
1FFFC0
3FFFC0
7E03C0
7C03C0
7803C0
F803C0
F003C0
F003C0
F003C0
F803C0
F807C0
7C0FC0
7FFFC0
3FFFC0
1FFBC0
07E3C0
ENDCHAR
STARTCHAR uni1EAC
ENCODING 7852
SWIDTH 410 0
DWIDTH 23 0
BBX 21 62 1 -11
BITMAP
00F800
01F800
01DC00
03DE00
078E00
070F00
0F0780
000000
000000
000000
000000
00F800
00F800
00F800
01F800
01FC00
01FC00
01FC00
01DC00
03DC00
03DE00
03DE00
038E00
038E00
078F00
078F00
078F00
070700
0F0700
0F0780
0F0780
0F0780
0E0380
1E03C0
1E03C0
1E03C0
1E03C0
3C01C0
3C01E0
3C01E0
3FFFE0
3FFFE0
7FFFF0
7FFFF0
7800F0
7800F0
7800F0
F00078
F00078
F00078
F00078
000000
000000
000000
000000
000000
007000
00F800
00F800
00FC00
00F800
007000
ENDCHAR
STARTCHAR uni1EAD
ENCODING 7853
SWIDTH 411 0
DWIDTH 23 0
BBX 18 51 2 -11
BITMAP
01F000
03F000
03B800
07BC00
071C00
0F1E00
1E0F00
000000
000000
000000
000000
03F800
0FFE00
1FFF00
3FFF80
3E0F80
7C07C0
7803C0
7803C0
0003C0
0003C0
0003C0
003FC0
07FFC0
1FFFC0
3FFFC0
7E03C0
7C03C0
7803C0
F803C0
F003C0
F003C0
F003C0
F803C0
F807C0
7C0FC0
7FFFC0
3FFFC0
1FFBC0
07E3C0
000000
000000
000000
000000
000000
00E000
01F000
01F000
01F800
01F000
00E000
ENDCHAR
STARTCHAR uni1EAE
ENCODING 7854
SWIDTH 410 0
DWIDTH 23 0
BBX 21 60 1 0
BITMAP
000E00
001E00
001C00
003C00
003800
007000
007000
00E000
000000
000000
060300
060300
070700
038E00
03FC00
00F800
000000
000000
000000
000000
00F800
00F800
00F800
01F800
01FC00
01FC00
01FC00
01DC00
03DC00
03DE00
03DE00
038E00
038E00
078F00
078F00
078F00
070700
0F0700
0F0780
0F0780
0F0780
0E0380
1E03C0
1E03C0
1E03C0
1E03C0
3C01C0
3C01E0
3C01E0
3FFFE0
3FFFE0
7FFFF0
7FFFF0
7800F0
7800F0
7800F0
F00078
F00078
F00078
F00078
ENDCHAR
STARTCHAR uni1EAF
ENCODING 7855
SWIDTH 411 0
DWIDTH 23 0
BBX 18 49 2 0
BITMAP
001C00
003C00
003800
007800
007000
00E000
00E000
01C000
000000
000000
0C0600
0C0600
0E0E00
071C00
03FC00
01F000
000000
000000
000000
000000
03F800
0FFE00
1FFF00
3FFF80
3E0F80
7C07C0
7803C0
7803C0
0003C0
0003C0
0003C0
003FC0
07FFC0
1FFFC0
3FFFC0
7E03C0
7C03C0
7803C0
F803C0
F003C0
F003C0
F003C0
F803C0
F807C0
7C0FC0
7FFFC0
3FFFC0
1FFBC0
07E3C0
ENDCHAR
STARTCHAR uni1EB0
ENCODING 7856
SWIDTH 410 0
DWIDTH 23 0
BBX 21 60 1 0
BITMAP
070000
078000
038000
03C000
01C000
00E000
00E000
007000
000000
000000
060300
060300
070700
038E00
03FC00
00F800
000000
000000
000000
000000
00F800
00F800
00F800
01F800
01FC00
01FC00
01FC00
01DC00
03DC00
03DE00
03DE00
038E00
038E00
078F00
078F00
078F00
070700
0F0700
0F0780
0F0780
0F0780
0E0380
1E03C0
1E03C0
1E03C0
1E03C0
3C01C0
3C01E0
3C01E0
3FFFE0
3FFFE0
7FFFF0
7FFFF0
7800F0
7800F0
7800F0
F00078
F00078
F00078
F00078
ENDCHAR
STARTCHAR uni1EB1
ENCODING 7857
SWIDTH 411 0
DWIDTH 23 0
BBX 18 49 2 0
BITMAP
0E0000
0F0000
070000
078000
038000
01C000
01C000
00E000
000000
000000
0C0600
0C0600
0E0E00
071C00
03FC00
01F000
000000
000000
000000
000000
03F800
0FFE00
1FFF00
3FFF80
3E0F80
7C07C0
7803C0
7803C0
0003C0
0003C0
0003C0
003FC0
07FFC0
1FFFC0
3FFFC0
7E03C0
7C03C0
7803C0
F803C0
F003C0
F003C0
F003C0
F803C0
F807C0
7C0FC0
7FFFC0
3FFFC0
1FFBC0
07E3C0
ENDCHAR
STARTCHAR uni1EB2
ENCODING 7858
SWIDTH 410 0
DWIDTH 23 0
BBX 21 61 1 0
BITMAP
00F800
01FC00
038E00
030600
000600
000E00
000C00
001C00
003800
003000
000000
060300
060300
070700
038E00
03FE00
00F800
000000
000000
000000
000000
00F800
00F800
00F800
01F800
01FC00
01FC00
01FC00
01DC00
03DC00
03DE00
03DE00
038E00
038E00
078F00
078F00
078F00
070700
0F0700
0F0780
0F0780
0F0780
0E0380
1E03C0
1E03C0
1E03C0
1E03C0
3C01C0
3C01E0
3C01E0
3FFFE0
3FFFE0
7FFFF0
7FFFF0
7800F0
7800F0
7800F0
F00078
F00078
F00078
F00078
ENDCHAR
STARTCHAR uni1EB3
ENCODING 7859
SWIDTH 411 0
DWIDTH 23 0
BBX 18 50 2 0
BITMAP
00F000
03F800
071C00
060C00
000C00
000C00
001800
003800
007000
006000
000000
0C0600
0C0600
0E0E00
071C00
03FC00
01F000
000000
000000
000000
000000
03F800
0FFE00
1FFF00
3FFF80
3E0F80
7C07C0
7803C0
7803C0
0003C0
0003C0
0003C0
003FC0
07FFC0
1FFFC0
3FFFC0
7E03C0
7C03C0
7803C0
F803C0
F003C0
F003C0
F003C0
F803C0
F807C0
7C0FC0
7FFFC0
3FFFC0
1FFBC0
07E3C0
ENDCHAR
STARTCHAR uni1EB4
ENCODING 7860
SWIDTH 410 0
DWIDTH 23 0
BBX 21 58 1 0
BITMAP
03C080
0FE1C0
0FFF80
1C3F80
080E00
000000
000000
000000
060300
060300
070700
038E00
03FC00
00F800
000000
000000
000000
000000
00F800
00F800
00F800
01F800
01FC00
01FC00
01FC00
01DC00
03DC00
03DE00
03DE00
038E00
038E00
078F00
078F00
078F00
070700
0F0700
0F0780
0F0780
0F0780
0E0380
1E03C0
1E03C0
1E03C0
1E03C0
3C01C0
3C01E0
3C01E0
3FFFE0
3FFFE0
7FFFF0
7FFFF0
7800F0
7800F0
7800F0
F00078
F00078
F00078
F00078
ENDCHAR
STARTCHAR uni1EB5
ENCODING 7861
SWIDTH 411 0
DWIDTH 23 0
BBX 18 47 2 0
BITMAP
078100
1FE380
1FFF80
387F00
101C00
000000
000000
000000
0C0600
0C0600
0E0E00
071C00
03FC00
01F000
000000
000000
000000
000000
03F800
0FFE00
1FFF00
3FFF80
3E0F80
7C07C0
7803C0
7803C0
0003C0
0003C0
0003C0
003FC0
07FFC0
1FFFC0
3FFFC0
7E03C0
7C03C0
7803C0
F803C0
F003C0
F003C0
F003C0
F803C0
F807C0
7C0FC0
7FFFC0
3FFFC0
1FFBC0
07E3C0
ENDCHAR
STARTCHAR uni1EB6
ENCODING 7862
SWIDTH 410 0
DWIDTH 23 0
BBX 21 61 1 -11
BITMAP
060300
060300
070700
038E00
03FC00
00F800
000000
000000
000000
000000
00F800
00F800
00F800
01F800
01FC00
01FC00
01FC00
01DC00
03DC00
03DE00
03DE00
038E00
038E00
078F00
078F00
078F00
070700
0F0700
0F0780
0F0780
0F0780
0E0380
1E03C0
1E03C0
1E03C0
1E03C0
3C01C0
3C01E0
3C01E0
3FFFE0
3FFFE0
7FFFF0
7FFFF0
7800F0
7800F0
7800F0
F00078
F00078
F00078
F00078
000000
000000
000000
000000
000000
007000
00F800
00F800
00FC00
00F800
007000
ENDCHAR
STARTCHAR uni1EB7
ENCODING 7863
SWIDTH 411 0
DWIDTH 23 0
BBX 18 50 2 -11
BITMAP
0C0600
0C0600
0E0E00
071C00
03FC00
01F000
000000
000000
000000
000000
03F800
0FFE00
1FFF00
3FFF80
3E0F80
7C07C0
7803C0
7803C0
0003C0
0003C0
0003C0
003FC0
07FFC0
1FFFC0
3FFFC0
7E03C0
7C03C0
7803C0
F803C0
F003C0
F003C0
F003C0
F803C0
F807C0
7C0FC0
7FFFC0
3FFFC0
1FFBC0
07E3C0
000000
000000
000000
000000
000000
00E000
01F000
01F000
01F800
01F000
00E000
ENDCHAR
STARTCHAR uni1EB8
ENCODING 7864
SWIDTH 429 0
DWIDTH 24 0
BBX 18 51 4 -11
BITMAP
FFFFC0
FFFFC0
FFFFC0
FFFF80
F00000
F00000
F00000
F00000
F00000
F00000
F00000
F00000
F00000
F00000
F00000
F00000
F00000
F00000
FFF000
FFF800
FFF800
FFF800
F00000
F00000
F00000
F00000
F00000
F00000
F00000
F00000
F00000
F00000
F00000
F00000
F00000
F00000
FFFF80
FFFFC0
FFFFC0
FFFFC0
000000
000000
000000
000000
000000
01C000
03E000
03F000
03F000
03E000
01C000
ENDCHAR
STARTCHAR uni1EB9
ENCODING 7865
SWIDTH 408 0
DWIDTH 23 0
BBX 17 40 3 -11
BITMAP
07F000
1FFC00
3FFE00
7FFF00
7C0F00
F80F80
F00780
F00780
F00780
F00780
F00780
F00780
FFFF80
FFFF80
FFFF80
FFFF80
F00000
F00000
F00000
F00000
F00000
F00780
F00780
F80F80
7C1F00
7FFF00
3FFE00
1FFC00
07F000
000000
000000
000000
000000
000000
01C000
03E000
03E000
03E000
03E000
01C000
ENDCHAR
STARTCHAR uni1EBA
ENCODING 7866
SWIDTH 429 0
DWIDTH 24 0
BBX 18 52 4 0
BITMAP
03F000
07F800
0E1C00
0C1C00
001C00
001C00
003800
007000
00E000
00C000
000000
000000
FFFFC0
FFFFC0
FFFFC0
FFFF80
F00000
F00000
F00000
F00000
F00000
F00000
F00000
F00000
F00000
F00000
F00000
F00000
F00000
F00000
FFF000
FFF800
FFF800
FFF800
F00000
F00000
F00000
F00000
F00000
F00000
F00000
F00000
F00000
F00000
F00000
F00000
F00000
F00000
FFFF80
FFFFC0
FFFFC0
FFFFC0
ENDCHAR
STARTCHAR uni1EBB
ENCODING 7867
SWIDTH 408 0
DWIDTH 23 0
BBX 17 41 3 0
BITMAP
03E000
07F800
0E3800
0C1800
001800
001800
003800
007000
00E000
00C000
000000
000000
07F000
1FFC00
3FFE00
7FFF00
7C0F00
F80F80
F00780
F00780
F00780
F00780
F00780
F00780
FFFF80
FFFF80
FFFF80
FFFF80
F00000
F00000
F00000
F00000
F00000
F00780
F00780
F80F80
7C1F00
7FFF00
3FFE00
1FFC00
07F000
ENDCHAR
STARTCHAR uni1EBC
ENCODING 7868
SWIDTH 429 0
DWIDTH 24 0
BBX 18 51 4 0
BITMAP
078100
1FC380
1FFF00
387F00
101C00
000000
000000
000000
000000
000000
000000
FFFFC0
FFFFC0
FFFFC0
FFFF80
F00000
F00000
F00000
F00000
F00000
F00000
F00000
F00000
F00000
F00000
F00000
F00000
F00000
F00000
FFF000
FFF800
FFF800
FFF800
F00000
F00000
F00000
F00000
F00000
F00000
F00000
F00000
F00000
F00000
F00000
F00000
F00000
F00000
FFFF80
FFFFC0
FFFFC0
FFFFC0
ENDCHAR
STARTCHAR uni1EBD
ENCODING 7869
SWIDTH 408 0
DWIDTH 23 0
BBX 17 40 3 0
BITMAP
0F0200
1FC300
3FFF00
38FE00
103C00
000000
000000
000000
000000
000000
000000
07F000
1FFC00
3FFE00
7FFF00
7C0F00
F80F80
F00780
F00780
F00780
F00780
F00780
F00780
FFFF80
FFFF80
FFFF80
FFFF80
F00000
F00000
F00000
F00000
F00000
F00780
F00780
F80F80
7C1F00
7FFF00
3FFE00
1FFC00
07F000
ENDCHAR
STARTCHAR uni1EBE
ENCODING 7870
SWIDTH 429 0
DWIDTH 24 0
BBX 22 55 4 0
BITMAP
00001C
00003C
000038
000078
03E070
03F0E0
07F8E0
0739C0
0F3C00
1E1C00
1C1E00
000000
000000
000000
000000
FFFFC0
FFFFC0
FFFFC0
FFFF80
F00000
F00000
F00000
F00000
F00000
F00000
F00000
F00000
F00000
F00000
F00000
F00000
F00000
F00000
FFF000
FFF800
FFF800
FFF800
F00000
F00000
F00000
F00000
F00000
F00000
F00000
F00000
F00000
F00000
F00000
F00000
F00000
F00000
FFFF80
FFFFC0
FFFFC0
FFFFC0
ENDCHAR
STARTCHAR uni1EBF
ENCODING 7871
SWIDTH 408 0
DWIDTH 23 0
BBX 22 44 3 0
BITMAP
00001C
000038
000078
000070
03E0E0
07E0E0
0771C0
0F79C0
1E3800
1C3C00
3C1E00
000000
000000
000000
000000
07F000
1FFC00
3FFE00
7FFF00
7C0F00
F80F80
F00780
F00780
F00780
F00780
F00780
F00780
FFFF80
FFFF80
FFFF80
FFFF80
F00000
F00000
F00000
F00000
F00000
F00780
F00780
F80F80
7C1F00
7FFF00
3FFE00
1FFC00
07F000
ENDCHAR
STARTCHAR uni1EC0
ENCODING 7872
SWIDTH 429 0
DWIDTH 24 0
BBX 18 58 4 0
BITMAP
000C00
001E00
000E00
000700
000780
000380
0003C0
03E1C0
03F000
07F800
073800
0F3C00
1E1C00
1C1E00
000000
000000
000000
000000
FFFFC0
FFFFC0
FFFFC0
FFFF80
F00000
F00000
F00000
F00000
F00000
F00000
F00000
F00000
F00000
F00000
F00000
F00000
F00000
F00000
FFF000
FFF800
FFF800
FFF800
F00000
F00000
F00000
F00000
F00000
F00000
F00000
F00000
F00000
F00000
F00000
F00000
F00000
F00000
FFFF80
FFFFC0
FFFFC0
FFFFC0
ENDCHAR
STARTCHAR uni1EC1
ENCODING 7873
SWIDTH 408 0
DWIDTH 23 0
BBX 18 47 3 0
BITMAP
001800
001C00
001E00
000E00
000700
000780
000380
03E1C0
07E000
077000
0F7800
1E3800
1C3C00
3C1E00
000000
000000
000000
000000
07F000
1FFC00
3FFE00
7FFF00
7C0F00
F80F80
F00780
F00780
F00780
F00780
F00780
F00780
FFFF80
FFFF80
FFFF80
FFFF80
F00000
F00000
F00000
F00000
F00000
F00780
F00780
F80F80
7C1F00
7FFF00
3FFE00
1FFC00
07F000
ENDCHAR
STARTCHAR uni1EC2
ENCODING 7874
SWIDTH 429 0
DWIDTH 24 0
BBX 21 59 4 0
BITMAP
0007E0
000FF0
001C70
001838
000030
000030
000070
0000E0
03E1C0
03F180
07F800
073800
0F3C00
1E1C00
1C1E00
000000
000000
000000
000000
FFFFC0
FFFFC0
FFFFC0
FFFF80
F00000
F00000
F00000
F00000
F00000
F00000
F00000
F00000
F00000
F00000
F00000
F00000
F00000
F00000
FFF000
FFF800
FFF800
FFF800
F00000
F00000
F00000
F00000
F00000
F00000
F00000
F00000
F00000
F00000
F00000
F00000
F00000
F00000
FFFF80
FFFFC0
FFFFC0
FFFFC0
ENDCHAR
STARTCHAR uni1EC3
ENCODING 7875
SWIDTH 408 0
DWIDTH 23 0
BBX 20 48 3 0
BITMAP
0007C0
000FE0
001C70
003830
000030
000070
0000E0
0001C0
03E180
07E380
077000
0F7800
1E3800
1C3C00
3C1E00
000000
000000
000000
000000
07F000
1FFC00
3FFE00
7FFF00
7C0F00
F80F80
F00780
F00780
F00780
F00780
F00780
F00780
FFFF80
FFFF80
FFFF80
FFFF80
F00000
F00000
F00000
F00000
F00000
F00780
F00780
F80F80
7C1F00
7FFF00
3FFE00
1FFC00
07F000
ENDCHAR
STARTCHAR uni1EC4
ENCODING 7876
SWIDTH 429 0
DWIDTH 24 0
BBX 18 58 4 0
BITMAP
0F0200
1FC300
3FFF00
38FE00
103C00
000000
000000
03E000
03F000
07F800
073800
0F3C00
1E1C00
1C1E00
000000
000000
000000
000000
FFFFC0
FFFFC0
FFFFC0
FFFF80
F00000
F00000
F00000
F00000
F00000
F00000
F00000
F00000
F00000
F00000
F00000
F00000
F00000
F00000
FFF000
FFF800
FFF800
FFF800
F00000
F00000
F00000
F00000
F00000
F00000
F00000
F00000
F00000
F00000
F00000
F00000
F00000
F00000
FFFF80
FFFFC0
FFFFC0
FFFFC0
ENDCHAR
STARTCHAR uni1EC5
ENCODING 7877
SWIDTH 408 0
DWIDTH 23 0
BBX 17 47 3 0
BITMAP
0F0200
3FC700
3FFE00
70FE00
203800
000000
000000
03E000
07E000
077000
0F7800
1E3800
1C3C00
3C1E00
000000
000000
000000
000000
07F000
1FFC00
3FFE00
7FFF00
7C0F00
F80F80
F00780
F00780
F00780
F00780
F00780
F00780
FFFF80
FFFF80
FFFF80
FFFF80
F00000
F00000
F00000
F00000
F00000
F00780
F00780
F80F80
7C1F00
7FFF00
3FFE00
1FFC00
07F000
ENDCHAR
STARTCHAR uni1EC6
ENCODING 7878
SWIDTH 429 0
DWIDTH 24 0
BBX 18 62 4 -11
BITMAP
03E000
03F000
07F800
073800
0F3C00
1E1C00
1C1E00
000000
000000
000000
000000
FFFFC0
FFFFC0
FFFFC0
FFFF80
F00000
F00000
F00000
F00000
F00000
F00000
F00000
F00000
F00000
F00000
F00000
F00000
F00000
F00000
FFF000
FFF800
FFF800
FFF800
F00000
F00000
F00000
F00000
F00000
F00000
F00000
F00000
F00000
F00000
F00000
F00000
F00000
F00000
FFFF80
FFFFC0
FFFFC0
FFFFC0
000000
000000
000000
000000
000000
01C000
03E000
03F000
03F000
03E000
01C000
ENDCHAR
STARTCHAR uni1EC7
ENCODING 7879
SWIDTH 408 0
DWIDTH 23 0
BBX 17 51 3 -11
BITMAP
03E000
07E000
077000
0F7800
1E3800
1C3C00
3C1E00
000000
000000
000000
000000
07F000
1FFC00
3FFE00
7FFF00
7C0F00
F80F80
F00780
F00780
F00780
F00780
F00780
F00780
FFFF80
FFFF80
FFFF80
FFFF80
F00000
F00000
F00000
F00000
F00000
F00780
F00780
F80F80
7C1F00
7FFF00
3FFE00
1FFC00
07F000
000000
000000
000000
000000
000000
01C000
03E000
03E000
03E000
03E000
01C000
ENDCHAR
STARTCHAR uni1EC8
ENCODING 7880
SWIDTH 215 0
DWIDTH 12 0
BBX 10 52 1 0
BITMAP
3F00
7F80
F1C0
E1C0
01C0
01C0
0380
0700
0600
0E00
0000
0000
1E00
1E00
1E00
1E00
1E00
1E00
1E00
1E00
1E00
1E00
1E00
1E00
1E00
1E00
1E00
1E00
1E00
1E00
1E00
1E00
1E00
1E00
1E00
1E00
1E00
1E00
1E00
1E00
1E00
1E00
1E00
1E00
1E00
1E00
1E00
1E00
1E00
1E00
1E00
1E00
ENDCHAR
STARTCHAR uni1EC9
ENCODING 7881
SWIDTH 169 0
DWIDTH 9 0
BBX 10 41 0 0
BITMAP
3F00
7F80
E380
C1C0
01C0
0180
0380
0700
0E00
0C00
0000
0000
1E00
1E00
1E00
1E00
1E00
1E00
1E00
1E00
1E00
1E00
1E00
1E00
1E00
1E00
1E00
1E00
1E00
1E00
1E00
1E00
1E00
1E00
1E00
1E00
1E00
1E00
1E00
1E00
1E00
ENDCHAR
STARTCHAR uni1ECA
ENCODING 7882
SWIDTH 215 0
DWIDTH 12 0
BBX 6 51 3 -11
BITMAP
78
78
78
78
78
78
78
78
78
78
78
78
78
78
78
78
78
78
78
78
78
78
78
78
78
78
78
78
78
78
78
78
78
78
78
78
78
78
78
78
00
00
00
00
00
78
FC
FC
FC
FC
78
ENDCHAR
STARTCHAR uni1ECB
ENCODING 7883
SWIDTH 208 0
DWIDTH 12 0
BBX 6 51 3 -11
BITMAP
78
FC
FC
FC
FC
78
00
00
00
00
00
78
78
78
78
78
78
78
78
78
78
78
78
78
78
78
78
78
78
78
78
78
78
78
78
78
78
78
78
78
00
00
00
00
00
78
F8
FC
FC
F8
78
ENDCHAR
STARTCHAR uni1ECC
ENCODING 7884
SWIDTH 456 0
DWIDTH 26 0
BBX 19 51 3 -11
BITMAP
03F800
0FFE00
1FFF80
3FFF80
7C07C0
7803E0
F801E0
F001E0
F001E0
F001E0
F001E0
F001E0
F001E0
F001E0
F001E0
F001E0
F001E0
F001E0
F001E0
F001E0
F001E0
F001E0
F001E0
F001E0
F001E0
F001E0
F001E0
F001E0
F001E0
F001E0
F001E0
F001E0
F001E0
F801E0
7803E0
7C07C0
3FFF80
1FFF80
0FFE00
03F800
000000
000000
000000
000000
000000
00F000
01F000
01F800
01F800
01F000
00F000
ENDCHAR
STARTCHAR uni1ECD
ENCODING 7885
SWIDTH 414 0
DWIDTH 23 0
BBX 17 40 3 -11
BITMAP
07F000
1FFC00
3FFE00
7FFF00
7C0F80
F80F80
F00780
F00780
F00780
F00780
F00780
F00780
F00780
F00780
F00780
F00780
F00780
F00780
F00780
F00780
F00780
F00780
F00780
F80780
7C0F80
7FFF00
3FFE00
1FFC00
07F000
000000
000000
000000
000000
000000
01C000
03E000
03F000
03F000
03E000
01C000
ENDCHAR
STARTCHAR uni1ECE
ENCODING 7886
SWIDTH 456 0
DWIDTH 26 0
BBX 19 52 3 0
BITMAP
01F800
03FC00
071C00
060E00
000E00
000C00
001C00
003800
007000
006000
000000
000000
03F800
0FFE00
1FFF80
3FFF80
7C07C0
7803E0
F801E0
F001E0
F001E0
F001E0
F001E0
F001E0
F001E0
F001E0
F001E0
F001E0
F001E0
F001E0
F001E0
F001E0
F001E0
F001E0
F001E0
F001E0
F001E0
F001E0
F001E0
F001E0
F001E0
F001E0
F001E0
F001E0
F001E0
F801E0
7803E0
7C07C0
3FFF80
1FFF80
0FFE00
03F800
ENDCHAR
STARTCHAR uni1ECF
ENCODING 7887
SWIDTH 414 0
DWIDTH 23 0
BBX 17 41 3 0
BITMAP
03F000
07F800
0E3800
0C1800
001C00
001800
003800
007000
00E000
00C000
000000
000000
07F000
1FFC00
3FFE00
7FFF00
7C0F80
F80F80
F00780
F00780
F00780
F00780
F00780
F00780
F00780
F00780
F00780
F00780
F00780
F00780
F00780
F00780
F00780
F00780
F00780
F80780
7C0F80
7FFF00
3FFE00
1FFC00
07F000
ENDCHAR
STARTCHAR uni1ED0
ENCODING 7888
SWIDTH 456 0
DWIDTH 26 0
BBX 23 55 3 0
BITMAP
00000C
00001E
00001C
000038
01F078
01F870
03B8E0
07BCE0
071E00
0F0E00
1E0F00
000000
000000
000000
000000
03F800
0FFE00
1FFF80
3FFF80
7C07C0
7803E0
F801E0
F001E0
F001E0
F001E0
F001E0
F001E0
F001E0
F001E0
F001E0
F001E0
F001E0
F001E0
F001E0
F001E0
F001E0
F001E0
F001E0
F001E0
F001E0
F001E0
F001E0
F001E0
F001E0
F001E0
F001E0
F001E0
F001E0
F801E0
7803E0
7C07C0
3FFF80
1FFF80
0FFE00
03F800
ENDCHAR
STARTCHAR uni1ED1
ENCODING 7889
SWIDTH 414 0
DWIDTH 23 0
BBX 22 44 3 0
BITMAP
00001C
000038
000078
000070
03E0F0
07F0E0
0771C0
0F79C0
0E3800
1E3C00
3C1E00
000000
000000
000000
000000
07F000
1FFC00
3FFE00
7FFF00
7C0F80
F80F80
F00780
F00780
F00780
F00780
F00780
F00780
F00780
F00780
F00780
F00780
F00780
F00780
F00780
F00780
F00780
F00780
F00780
F80780
7C0F80
7FFF00
3FFE00
1FFC00
07F000
ENDCHAR
STARTCHAR uni1ED2
ENCODING 7890
SWIDTH 456 0
DWIDTH 26 0
BBX 19 58 3 0
BITMAP
000E00
000F00
000700
000780
000380
0001C0
0001C0
01F0E0
01F800
03B800
07BC00
071E00
0F0E00
1E0F00
000000
000000
000000
000000
03F800
0FFE00
1FFF80
3FFF80
7C07C0
7803E0
F801E0
F001E0
F001E0
F001E0
F001E0
F001E0
F001E0
F001E0
F001E0
F001E0
F001E0
F001E0
F001E0
F001E0
F001E0
F001E0
F001E0
F001E0
F001E0
F001E0
F001E0
F001E0
F001E0
F001E0
F001E0
F001E0
F001E0
F801E0
7803E0
7C07C0
3FFF80
1FFF80
0FFE00
03F800
ENDCHAR
STARTCHAR uni1ED3
ENCODING 7891
SWIDTH 414 0
DWIDTH 23 0
BBX 18 47 3 0
BITMAP
001C00
001E00
000E00
000F00
000700
000380
000380
03E1C0
07F000
077000
0F7800
0E3800
1E3C00
3C1E00
000000
000000
000000
000000
07F000
1FFC00
3FFE00
7FFF00
7C0F80
F80F80
F00780
F00780
F00780
F00780
F00780
F00780
F00780
F00780
F00780
F00780
F00780
F00780
F00780
F00780
F00780
F00780
F00780
F80780
7C0F80
7FFF00
3FFE00
1FFC00
07F000
ENDCHAR
STARTCHAR uni1ED4
ENCODING 7892
SWIDTH 456 0
DWIDTH 26 0
BBX 21 59 3 0
BITMAP
0003E0
0007F8
000E38
000C18
000018
000038
000030
000070
01F0E0
01F8C0
03B800
07BC00
071E00
0F0E00
1E0F00
000000
000000
000000
000000
03F800
0FFE00
1FFF80
3FFF80
7C07C0
7803E0
F801E0
F001E0
F001E0
F001E0
F001E0
F001E0
F001E0
F001E0
F001E0
F001E0
F001E0
F001E0
F001E0
F001E0
F001E0
F001E0
F001E0
F001E0
F001E0
F001E0
F001E0
F001E0
F001E0
F001E0
F001E0
F001E0
F001E0
F801E0
7803E0
7C07C0
3FFF80
1FFF80
0FFE00
03F800
ENDCHAR
STARTCHAR uni1ED5
ENCODING 7893
SWIDTH 414 0
DWIDTH 23 0
BBX 20 48 3 0
BITMAP
0007C0
000FE0
001C70
001830
000030
000070
0000E0
0000C0
03E180
07F180
077000
0F7800
0E3800
1E3C00
3C1E00
000000
000000
000000
000000
07F000
1FFC00
3FFE00
7FFF00
7C0F80
F80F80
F00780
F00780
F00780
F00780
F00780
F00780
F00780
F00780
F00780
F00780
F00780
F00780
F00780
F00780
F00780
F00780
F00780
F80780
7C0F80
7FFF00
3FFE00
1FFC00
07F000
ENDCHAR
STARTCHAR uni1ED6
ENCODING 7894
SWIDTH 456 0
DWIDTH 26 0
BBX 19 58 3 0
BITMAP
078100
0FE380
1FFF80
187F00
081E00
000000
000000
01F000
01F800
03B800
07BC00
071E00
0F0E00
1E0F00
000000
000000
000000
000000
03F800
0FFE00
1FFF80
3FFF80
7C07C0
7803E0
F801E0
F001E0
F001E0
F001E0
F001E0
F001E0
F001E0
F001E0
F001E0
F001E0
F001E0
F001E0
F001E0
F001E0
F001E0
F001E0
F001E0
F001E0
F001E0
F001E0
F001E0
F001E0
F001E0
F001E0
F001E0
F001E0
F001E0
F801E0
7803E0
7C07C0
3FFF80
1FFF80
0FFE00
03F800
ENDCHAR
STARTCHAR uni1ED7
ENCODING 7895
SWIDTH 414 0
DWIDTH 23 0
BBX 17 47 3 0
BITMAP
0F0200
1FC700
3FFF00
70FE00
103C00
000000
000000
03E000
07F000
077000
0F7800
0E3800
1E3C00
3C1E00
000000
000000
000000
000000
07F000
1FFC00
3FFE00
7FFF00
7C0F80
F80F80
F00780
F00780
F00780
F00780
F00780
F00780
F00780
F00780
F00780
F00780
F00780
F00780
F00780
F00780
F00780
F00780
F00780
F80780
7C0F80
7FFF00
3FFE00
1FFC00
07F000
ENDCHAR
STARTCHAR uni1ED8
ENCODING 7896
SWIDTH 456 0
DWIDTH 26 0
BBX 19 62 3 -11
BITMAP
01F000
01F800
03F800
07BC00
071E00
0F0E00
0E0F00
000000
000000
000000
000000
03F800
0FFE00
1FFF80
3FFF80
7C07C0
7803E0
F801E0
F001E0
F001E0
F001E0
F001E0
F001E0
F001E0
F001E0
F001E0
F001E0
F001E0
F001E0
F001E0
F001E0
F001E0
F001E0
F001E0
F001E0
F001E0
F001E0
F001E0
F001E0
F001E0
F001E0
F001E0
F001E0
F001E0
F801E0
7803E0
7C07C0
3FFF80
1FFF80
0FFE00
03F800
000000
000000
000000
000000
000000
00F000
01F000
01F800
01F800
01F000
00F000
ENDCHAR
STARTCHAR uni1ED9
ENCODING 7897
SWIDTH 414 0
DWIDTH 23 0
BBX 17 51 3 -11
BITMAP
03E000
07F000
077000
0F7800
0E3800
1E1C00
3C1E00
000000
000000
000000
000000
07F000
1FFC00
3FFE00
7FFF00
7C0F80
F80F80
F00780
F00780
F00780
F00780
F00780
F00780
F00780
F00780
F00780
F00780
F00780
F00780
F00780
F00780
F00780
F00780
F00780
F80780
7C0F80
7FFF00
3FFE00
1FFC00
07F000
000000
000000
000000
000000
000000
01C000
03E000
03F000
03F000
03E000
01C000
ENDCHAR
STARTCHAR uni1EDA
ENCODING 7898
SWIDTH 456 0
DWIDTH 26 0
BBX 19 51 3 0
BITMAP
000C00
001C00
003800
007800
007000
00F000
00E040
01C0E0
0000E0
0000C0
0001C0
03FF80
0FFF00
1FFF80
3FFFC0
7C07C0
7803E0
F801E0
F001E0
F001E0
F001E0
F001E0
F001E0
F001E0
F001E0
F001E0
F001E0
F001E0
F001E0
F001E0
F001E0
F001E0
F001E0
F001E0
F001E0
F001E0
F001E0
F001E0
F001E0
F001E0
F001E0
F001E0
F001E0
F001E0
F801E0
7803E0
7C07C0
3FFF80
1FFF80
0FFE00
03F800
ENDCHAR
STARTCHAR uni1EDB
ENCODING 7899
SWIDTH 414 0
DWIDTH 23 0
BBX 18 40 3 0
BITMAP
003800
007800
007000
00F000
00E000
01C000
01C080
0381C0
000180
000180
000380
07FF00
1FFE00
3FFE00
7FFF00
7C0F80
F80F80
F00780
F00780
F00780
F00780
F00780
F00780
F00780
F00780
F00780
F00780
F00780
F00780
F00780
F00780
F00780
F00780
F00780
F80780
7C0F80
7FFF00
3FFE00
1FFC00
07F000
ENDCHAR
STARTCHAR uni1EDC
ENCODING 7900
SWIDTH 456 0
DWIDTH 26 0
BBX 19 51 3 0
BITMAP
0E0000
0F0000
070000
038000
038000
01C000
01C040
00E0E0
0000E0
0000C0
0001C0
03FF80
0FFF00
1FFF80
3FFFC0
7C07C0
7803E0
F801E0
F001E0
F001E0
F001E0
F001E0
F001E0
F001E0
F001E0
F001E0
F001E0
F001E0
F001E0
F001E0
F001E0
F001E0
F001E0
F001E0
F001E0
F001E0
F001E0
F001E0
F001E0
F001E0
F001E0
F001E0
F001E0
F001E0
F801E0
7803E0
7C07C0
3FFF80
1FFF80
0FFE00
03F800
ENDCHAR
STARTCHAR uni1EDD
ENCODING 7901
SWIDTH 414 0
DWIDTH 23 0
BBX 18 40 3 0
BITMAP
1C0000
1E0000
0E0000
0F0000
070000
038000
038080
01C1C0
000180
000180
000380
07FF00
1FFE00
3FFE00
7FFF00
7C0F80
F80F80
F00780
F00780
F00780
F00780
F00780
F00780
F00780
F00780
F00780
F00780
F00780
F00780
F00780
F00780
F00780
F00780
F00780
F80780
7C0F80
7FFF00
3FFE00
1FFC00
07F000
ENDCHAR
STARTCHAR uni1EDE
ENCODING 7902
SWIDTH 456 0
DWIDTH 26 0
BBX 19 52 3 0
BITMAP
01F800
03FC00
071C00
060E00
000E00
000C00
001C00
003840
0070E0
0060E0
0000C0
0001C0
03FF80
0FFF00
1FFF80
3FFFC0
7C07C0
7803E0
F801E0
F001E0
F001E0
F001E0
F001E0
F001E0
F001E0
F001E0
F001E0
F001E0
F001E0
F001E0
F001E0
F001E0
F001E0
F001E0
F001E0
F001E0
F001E0
F001E0
F001E0
F001E0
F001E0
F001E0
F001E0
F001E0
F001E0
F801E0
7803E0
7C07C0
3FFF80
1FFF80
0FFE00
03F800
ENDCHAR
STARTCHAR uni1EDF
ENCODING 7903
SWIDTH 414 0
DWIDTH 23 0
BBX 18 41 3 0
BITMAP
03F000
07F800
0E3800
0C1800
001C00
001800
003800
007080
00E1C0
00C180
000180
000380
07FF00
1FFE00
3FFE00
7FFF00
7C0F80
F80F80
F00780
F00780
F00780
F00780
F00780
F00780
F00780
F00780
F00780
F00780
F00780
F00780
F00780
F00780
F00780
F00780
F00780
F80780
7C0F80
7FFF00
3FFE00
1FFC00
07F000
ENDCHAR
STARTCHAR uni1EE0
ENCODING 7904
SWIDTH 456 0
DWIDTH 26 0
BBX 19 51 3 0
BITMAP
07C080
0FE1C0
1FFF80
1C3F80
081E00
000000
000040
0000E0
0000E0
0000C0
0001C0
03FF80
0FFF00
1FFF80
3FFFC0
7C07C0
7803E0
F801E0
F001E0
F001E0
F001E0
F001E0
F001E0
F001E0
F001E0
F001E0
F001E0
F001E0
F001E0
F001E0
F001E0
F001E0
F001E0
F001E0
F001E0
F001E0
F001E0
F001E0
F001E0
F001E0
F001E0
F001E0
F001E0
F001E0
F801E0
7803E0
7C07C0
3FFF80
1FFF80
0FFE00
03F800
ENDCHAR
STARTCHAR uni1EE1
ENCODING 7905
SWIDTH 414 0
DWIDTH 23 0
BBX 18 40 3 0
BITMAP
0F0200
3FC700
3FFE00
70FE00
203800
000000
000080
0001C0
000180
000180
000380
07FF00
1FFE00
3FFE00
7FFF00
7C0F80
F80F80
F00780
F00780
F00780
F00780
F00780
F00780
F00780
F00780
F00780
F00780
F00780
F00780
F00780
F00780
F00780
F00780
F00780
F80780
7C0F80
7FFF00
3FFE00
1FFC00
07F000
ENDCHAR
STARTCHAR uni1EE2
ENCODING 7906
SWIDTH 456 0
DWIDTH 26 0
BBX 19 56 3 -11
BITMAP
000040
0000E0
0000E0
0000C0
0001C0
03FF80
0FFF00
1FFF80
3FFFC0
7C07C0
7803E0
F801E0
F001E0
F001E0
F001E0
F001E0
F001E0
F001E0
F001E0
F001E0
F001E0
F001E0
F001E0
F001E0
F001E0
F001E0
F001E0
F001E0
F001E0
F001E0
F001E0
F001E0
F001E0
F001E0
F001E0
F001E0
F001E0
F001E0
F801E0
7803E0
7C07C0
3FFF80
1FFF80
0FFE00
03F800
000000
000000
000000
000000
000000
00F000
01F000
01F800
01F800
01F000
00F000
ENDCHAR
STARTCHAR uni1EE3
ENCODING 7907
SWIDTH 414 0
DWIDTH 23 0
BBX 18 45 3 -11
BITMAP
000080
0001C0
000180
000180
000380
07FF00
1FFE00
3FFE00
7FFF00
7C0F80
F80F80
F00780
F00780
F00780
F00780
F00780
F00780
F00780
F00780
F00780
F00780
F00780
F00780
F00780
F00780
F00780
F00780
F00780
F80780
7C0F80
7FFF00
3FFE00
1FFC00
07F000
000000
000000
000000
000000
000000
01C000
03E000
03F000
03F000
03E000
01C000
ENDCHAR
STARTCHAR uni1EE4
ENCODING 7908
SWIDTH 476 0
DWIDTH 27 0
BBX 19 51 4 -11
BITMAP
F001E0
F001E0
F001E0
F001E0
F001E0
F001E0
F001E0
F001E0
F001E0
F001E0
F001E0
F001E0
F001E0
F001E0
F001E0
F001E0
F001E0
F001E0
F001E0
F001E0
F001E0
F001E0
F001E0
F001E0
F001E0
F001E0
F001E0
F001E0
F001E0
F001E0
F001E0
F001E0
F001E0
F803C0
7807C0
7C0F80
3FFF80
1FFF00
0FFE00
03F800
000000
000000
000000
000000
000000
00E000
01F000
03F000
03F000
01F000
00E000
ENDCHAR
STARTCHAR uni1EE5
ENCODING 7909
SWIDTH 424 0
DWIDTH 24 0
BBX 17 40 3 -11
BITMAP
F00780
F00780
F00780
F00780
F00780
F00780
F00780
F00780
F00780
F00780
F00780
F00780
F00780
F00780
F00780
F00780
F00780
F00780
F00780
F00780
F00780
F00780
F00780
F80F80
7C1F80
7FFF80
3FFF80
1FF780
07C780
000000
000000
000000
000000
000000
01C000
03E000
03F000
03F000
03E000
01C000
ENDCHAR
STARTCHAR uni1EE6
ENCODING 7910
SWIDTH 476 0
DWIDTH 27 0
BBX 19 52 4 0
BITMAP
01F000
03F800
071C00
0E0C00
000C00
001C00
001800
003800
007000
00E000
000000
000000
F001E0
F001E0
F001E0
F001E0
F001E0
F001E0
F001E0
F001E0
F001E0
F001E0
F001E0
F001E0
F001E0
F001E0
F001E0
F001E0
F001E0
F001E0
F001E0
F001E0
F001E0
F001E0
F001E0
F001E0
F001E0
F001E0
F001E0
F001E0
F001E0
F001E0
F001E0
F001E0
F001E0
F803C0
7807C0
7C0F80
3FFF80
1FFF00
0FFE00
03F800
ENDCHAR
STARTCHAR uni1EE7
ENCODING 7911
SWIDTH 424 0
DWIDTH 24 0
BBX 17 41 3 0
BITMAP
03F000
07F800
0E3800
0C1C00
001C00
001800
003800
007000
00E000
00C000
000000
000000
F00780
F00780
F00780
F00780
F00780
F00780
F00780
F00780
F00780
F00780
F00780
F00780
F00780
F00780
F00780
F00780
F00780
F00780
F00780
F00780
F00780
F00780
F00780
F80F80
7C1F80
7FFF80
3FFF80
1FF780
07C780
ENDCHAR
STARTCHAR uni1EE8
ENCODING 7912
SWIDTH 476 0
DWIDTH 27 0
BBX 23 51 4 0
BITMAP
001800
003C00
003800
007000
00F000
00E000
01E006
01C006
000006
00000E
00001C
F001FC
F001F8
F001E0
F001E0
F001E0
F001E0
F001E0
F001E0
F001E0
F001E0
F001E0
F001E0
F001E0
F001E0
F001E0
F001E0
F001E0
F001E0
F001E0
F001E0
F001E0
F001E0
F001E0
F001E0
F001E0
F001E0
F001E0
F001E0
F001E0
F001E0
F001E0
F001E0
F001E0
F803C0
7807C0
7C0F80
3FFF80
1FFF00
0FFE00
03F800
ENDCHAR
STARTCHAR uni1EE9
ENCODING 7913
SWIDTH 424 0
DWIDTH 24 0
BBX 22 40 3 0
BITMAP
003800
007800
007000
00F000
00E000
01E000
01C008
03801C
000018
000038
000078
F007F0
F007E0
F00780
F00780
F00780
F00780
F00780
F00780
F00780
F00780
F00780
F00780
F00780
F00780
F00780
F00780
F00780
F00780
F00780
F00780
F00780
F00780
F00780
F80F80
7C1F80
7FFF80
3FFF80
1FF780
07C780
ENDCHAR
STARTCHAR uni1EEA
ENCODING 7914
SWIDTH 476 0
DWIDTH 27 0
BBX 23 51 4 0
BITMAP
0C0000
0E0000
070000
070000
038000
03C000
01C006
00E006
000006
00000E
00001C
F001FC
F001F8
F001E0
F001E0
F001E0
F001E0
F001E0
F001E0
F001E0
F001E0
F001E0
F001E0
F001E0
F001E0
F001E0
F001E0
F001E0
F001E0
F001E0
F001E0
F001E0
F001E0
F001E0
F001E0
F001E0
F001E0
F001E0
F001E0
F001E0
F001E0
F001E0
F001E0
F001E0
F803C0
7807C0
7C0F80
3FFF80
1FFF00
0FFE00
03F800
ENDCHAR
STARTCHAR uni1EEB
ENCODING 7915
SWIDTH 424 0
DWIDTH 24 0
BBX 22 40 3 0
BITMAP
1C0000
1E0000
0E0000
0F0000
070000
038000
038008
01C01C
000018
000038
000078
F007F0
F007E0
F00780
F00780
F00780
F00780
F00780
F00780
F00780
F00780
F00780
F00780
F00780
F00780
F00780
F00780
F00780
F00780
F00780
F00780
F00780
F00780
F00780
F80F80
7C1F80
7FFF80
3FFF80
1FF780
07C780
ENDCHAR
STARTCHAR uni1EEC
ENCODING 7916
SWIDTH 476 0
DWIDTH 27 0
BBX 23 52 4 0
BITMAP
01F000
03F800
071C00
0E0C00
000C00
001C00
001800
003806
007006
00E006
00000E
00001C
F001FC
F001F8
F001E0
F001E0
F001E0
F001E0
F001E0
F001E0
F001E0
F001E0
F001E0
F001E0
F001E0
F001E0
F001E0
F001E0
F001E0
F001E0
F001E0
F001E0
F001E0
F001E0
F001E0
F001E0
F001E0
F001E0
F001E0
F001E0
F001E0
F001E0
F001E0
F001E0
F001E0
F803C0
7807C0
7C0F80
3FFF80
1FFF00
0FFE00
03F800
ENDCHAR
STARTCHAR uni1EED
ENCODING 7917
SWIDTH 424 0
DWIDTH 24 0
BBX 22 41 3 0
BITMAP
03F000
07F800
0E3800
0C1C00
001C00
001800
003800
007008
00E01C
00C018
000038
000078
F007F0
F007E0
F00780
F00780
F00780
F00780
F00780
F00780
F00780
F00780
F00780
F00780
F00780
F00780
F00780
F00780
F00780
F00780
F00780
F00780
F00780
F00780
F00780
F80F80
7C1F80
7FFF80
3FFF80
1FF780
07C780
ENDCHAR
STARTCHAR uni1EEE
ENCODING 7918
SWIDTH 476 0
DWIDTH 27 0
BBX 23 51 4 0
BITMAP
078100
0FE180
1FFF80
187F00
081E00
000000
000006
000006
000006
00000E
00001C
F001FC
F001F8
F001E0
F001E0
F001E0
F001E0
F001E0
F001E0
F001E0
F001E0
F001E0
F001E0
F001E0
F001E0
F001E0
F001E0
F001E0
F001E0
F001E0
F001E0
F001E0
F001E0
F001E0
F001E0
F001E0
F001E0
F001E0
F001E0
F001E0
F001E0
F001E0
F001E0
F001E0
F803C0
7807C0
7C0F80
3FFF80
1FFF00
0FFE00
03F800
ENDCHAR
STARTCHAR uni1EEF
ENCODING 7919
SWIDTH 424 0
DWIDTH 24 0
BBX 22 40 3 0
BITMAP
0F0100
1FC380
3FFF00
387F00
103C00
000000
000008
00001C
000018
000038
000078
F007F0
F007E0
F00780
F00780
F00780
F00780
F00780
F00780
F00780
F00780
F00780
F00780
F00780
F00780
F00780
F00780
F00780
F00780
F00780
F00780
F00780
F00780
F00780
F80F80
7C1F80
7FFF80
3FFF80
1FF780
07C780
ENDCHAR
STARTCHAR uni1EF0
ENCODING 7920
SWIDTH 476 0
DWIDTH 27 0
BBX 23 56 4 -11
BITMAP
000006
000006
000006
00000E
00001C
F001FC
F001F8
F001E0
F001E0
F001E0
F001E0
F001E0
F001E0
F001E0
F001E0
F001E0
F001E0
F001E0
F001E0
F001E0
F001E0
F001E0
F001E0
F001E0
F001E0
F001E0
F001E0
F001E0
F001E0
F001E0
F001E0
F001E0
F001E0
F001E0
F001E0
F001E0
F001E0
F001E0
F803C0
7807C0
7C0F80
3FFF80
1FFF00
0FFE00
03F800
000000
000000
000000
000000
000000
00E000
01F000
03F000
03F000
01F000
00E000
ENDCHAR
STARTCHAR uni1EF1
ENCODING 7921
SWIDTH 424 0
DWIDTH 24 0
BBX 22 45 3 -11
BITMAP
000008
00001C
000018
000038
000078
F007F0
F007E0
F00780
F00780
F00780
F00780
F00780
F00780
F00780
F00780
F00780
F00780
F00780
F00780
F00780
F00780
F00780
F00780
F00780
F00780
F00780
F00780
F00780
F80F80
7C1F80
7FFF80
3FFF80
1FF780
07C780
000000
000000
000000
000000
000000
01C000
03E000
03F000
03F000
03E000
01C000
ENDCHAR
STARTCHAR Ygrave
ENCODING 7922
SWIDTH 424 0
DWIDTH 24 0
BBX 20 51 2 0
BITMAP
060000
0F0000
078000
038000
03C000
01C000
00E000
00E000
000000
000000
000000
F000F0
F801E0
7801E0
7801E0
7C03C0
3C03C0
3C03C0
1C0780
1E0780
1E0780
0E0F00
0F0F00
0F0E00
071E00
079E00
079C00
03BC00
03FC00
01F800
01F800
01F800
00F000
00F000
00F000
00F000
00F000
00F000
00F000
00F000
00F000
00F000
00F000
00F000
00F000
00F000
00F000
00F000
00F000
00F000
00F000
ENDCHAR
STARTCHAR ygrave
ENCODING 7923
SWIDTH 367 0
DWIDTH 21 0
BBX 18 51 1 -11
BITMAP
0C0000
0E0000
0F0000
070000
038000
03C000
01C000
00E000
000000
000000
000000
F003C0
F003C0
7803C0
7803C0
7807C0
780780
3C0780
3C0780
3C0700
3C0F00
1C0F00
1E0F00
1E0E00
1E1E00
0E1E00
0F1E00
0F1C00
0F1C00
073C00
073C00
07B800
07B800
03B800
03F800
03F000
03F000
01F000
01F000
01E000
01E000
01E000
01E000
03C000
03C000
03C000
078000
3F8000
7F0000
7E0000
7C0000
ENDCHAR
STARTCHAR uni1EF4
ENCODING 7924
SWIDTH 424 0
DWIDTH 24 0
BBX 20 51 2 -11
BITMAP
F000F0
F801E0
7801E0
7801E0
7C03C0
3C03C0
3C03C0
1C0780
1E0780
1E0780
0E0F00
0F0F00
0F0E00
071E00
079E00
079C00
03BC00
03FC00
01F800
01F800
01F800
00F000
00F000
00F000
00F000
00F000
00F000
00F000
00F000
00F000
00F000
00F000
00F000
00F000
00F000
00F000
00F000
00F000
00F000
00F000
000000
000000
000000
000000
000000
00F000
01F800
01F800
01F800
01F800
00F000
ENDCHAR
STARTCHAR uni1EF5
ENCODING 7925
SWIDTH 367 0
DWIDTH 21 0
BBX 19 40 1 -11
BITMAP
F003C0
F003C0
7803C0
7803C0
7807C0
780780
3C0780
3C0780
3C0700
3C0F00
1C0F00
1E0F00
1E0E00
1E1E00
0E1E00
0F1E00
0F1C00
0F1C00
073C00
073C00
07B800
07B800
03B800
03F800
03F000
03F000
01F000
01F000
01E000
01E000
01E000
01E000
03C000
03C000
03C380
0787C0
3F87E0
7F07E0
7E07C0
7C0380
ENDCHAR
STARTCHAR uni1EF6
ENCODING 7926
SWIDTH 424 0
DWIDTH 24 0
BBX 20 52 2 0
BITMAP
01F800
03FC00
070E00
060E00
000E00
000E00
001C00
003800
007000
006000
000000
000000
F000F0
F801E0
7801E0
7801E0
7C03C0
3C03C0
3C03C0
1C0780
1E0780
1E0780
0E0F00
0F0F00
0F0E00
071E00
079E00
079C00
03BC00
03FC00
01F800
01F800
01F800
00F000
00F000
00F000
00F000
00F000
00F000
00F000
00F000
00F000
00F000
00F000
00F000
00F000
00F000
00F000
00F000
00F000
00F000
00F000
ENDCHAR
STARTCHAR uni1EF7
ENCODING 7927
SWIDTH 367 0
DWIDTH 21 0
BBX 18 52 1 -11
BITMAP
01F000
03F800
071C00
0E0C00
000C00
001C00
001800
003800
007000
00E000
000000
000000
F003C0
F003C0
7803C0
7803C0
7807C0
780780
3C0780
3C0780
3C0700
3C0F00
1C0F00
1E0F00
1E0E00
1E1E00
0E1E00
0F1E00
0F1C00
0F1C00
073C00
073C00
07B800
07B800
03B800
03F800
03F000
03F000
01F000
01F000
01E000
01E000
01E000
01E000
03C000
03C000
03C000
078000
3F8000
7F0000
7E0000
7C0000
ENDCHAR
STARTCHAR uni1EF8
ENCODING 7928
SWIDTH 424 0
DWIDTH 24 0
BBX 20 51 2 0
BITMAP
03C080
0FE1C0
0FFF80
1C3F80
080E00
000000
000000
000000
000000
000000
000000
F000F0
F801E0
7801E0
7801E0
7C03C0
3C03C0
3C03C0
1C0780
1E0780
1E0780
0E0F00
0F0F00
0F0E00
071E00
079E00
079C00
03BC00
03FC00
01F800
01F800
01F800
00F000
00F000
00F000
00F000
00F000
00F000
00F000
00F000
00F000
00F000
00F000
00F000
00F000
00F000
00F000
00F000
00F000
00F000
00F000
ENDCHAR
STARTCHAR uni1EF9
ENCODING 7929
SWIDTH 367 0
DWIDTH 21 0
BBX 18 51 1 -11
BITMAP
078100
0FE180
1FFF80
187F00
081E00
000000
000000
000000
000000
000000
000000
F003C0
F003C0
7803C0
7803C0
7807C0
780780
3C0780
3C0780
3C0700
3C0F00
1C0F00
1E0F00
1E0E00
1E1E00
0E1E00
0F1E00
0F1C00
0F1C00
073C00
073C00
07B800
07B800
03B800
03F800
03F000
03F000
01F000
01F000
01E000
01E000
01E000
01E000
03C000
03C000
03C000
078000
3F8000
7F0000
7E0000
7C0000
ENDCHAR
STARTCHAR uni2010
ENCODING 8208
SWIDTH 313 0
DWIDTH 18 0
BBX 14 4 2 16
BITMAP
FFF8
FFFC
FFFC
FFFC
ENDCHAR
STARTCHAR endash
ENCODING 8211
SWIDTH 372 0
DWIDTH 21 0
BBX 17 4 2 14
BITMAP
FFFF80
FFFF80
FFFF80
FFFF80
ENDCHAR
STARTCHAR emdash
ENCODING 8212
SWIDTH 592 0
DWIDTH 33 0
BBX 29 4 2 14
BITMAP
FFFFFFF8
FFFFFFF8
FFFFFFF8
FFFFFFF8
ENDCHAR
STARTCHAR quoteleft
ENCODING 8216
SWIDTH 123 0
DWIDTH 7 0
BBX 7 12 0 28
BITMAP
0E
1E
1C
1C
3C
3C
38
78
78
78
F0
F0
ENDCHAR
STARTCHAR quoteright
ENCODING 8217
SWIDTH 123 0
DWIDTH 7 0
BBX 7 12 0 28
BITMAP
1E
3C
3C
3C
38
38
78
78
70
70
F0
E0
ENDCHAR
STARTCHAR quotesinglbase
ENCODING 8218
SWIDTH 600 0
DWIDTH 34 0
BBX 5 13 2 -4
BITMAP
38
38
38
78
78
70
70
70
70
70
E0
E0
E0
ENDCHAR
STARTCHAR quotedblleft
ENCODING 8220
SWIDTH 250 0
DWIDTH 14 0
BBX 14 11 0 29
BITMAP
0E1C
1E3C
1C38
1C38
3C78
3C78
3870
78F0
78F0
78E0
F1E0
ENDCHAR
STARTCHAR quotedblright
ENCODING 8221
SWIDTH 250 0
DWIDTH 14 0
BBX 14 11 0 29
BITMAP
1E3C
1E38
3C78
3C78
3C70
3870
78F0
78E0
70E0
71E0
E1C0
ENDCHAR
STARTCHAR quotedblbase
ENCODING 8222
SWIDTH 238 0
DWIDTH 13 0
BBX 14 11 0 -3
BITMAP
1E3C
1E38
3C78
3C78
3C70
3870
78F0
78E0
70E0
71E0
E1C0
ENDCHAR
STARTCHAR dagger
ENCODING 8224
SWIDTH 337 0
DWIDTH 19 0
BBX 15 51 2 -11
BITMAP
0780
0780
0780
0780
0780
0780
0780
0780
0780
0780
0780
0780
0780
FFFE
FFFE
FFFE
FFFE
0780
0780
0780
0780
0780
0780
0780
0780
0780
0780
0780
0780
0780
0780
0780
0780
0780
0780
0780
0780
0780
0780
0780
0780
0780
0780
0780
0780
0780
0780
0780
0780
0780
0780
ENDCHAR
STARTCHAR daggerdbl
ENCODING 8225
SWIDTH 337 0
DWIDTH 19 0
BBX 15 51 2 -11
BITMAP
0780
0780
0780
0780
0780
0780
0780
0780
0780
0780
0780
0780
0780
FFFE
FFFE
FFFE
FFFE
0780
0780
0780
0780
0780
0780
0780
0780
0780
0780
0780
0780
0780
0780
0780
0780
0780
FFFE
FFFE
FFFE
FFFE
0780
0780
0780
0780
0780
0780
0780
0780
0780
0780
0780
0780
0780
ENDCHAR
STARTCHAR bullet
ENCODING 8226
SWIDTH 295 0
DWIDTH 17 0
BBX 13 13 2 9
BITMAP
0F80
3FC0
7FE0
FFF0
FFF0
FFF8
FFF8
FFF8
FFF0
7FF0
7FE0
3FC0
0F80
ENDCHAR
STARTCHAR ellipsis
ENCODING 8230
SWIDTH 625 0
DWIDTH 35 0
BBX 31 6 2 1
BITMAP
78038038
7C07C07C
FC0FE07E
FC0FE07E
7C07C07C
78038038
ENDCHAR
STARTCHAR perthousand
ENCODING 8240
SWIDTH 1008 0
DWIDTH 56 0
BBX 53 41 2 0
BITMAP
0E000000000000
3F800007000000
7FC00007000000
F1E0000E000000
E0E0000E000000
E0E0001C000000
C0600038000000
C0600038000000
C0600070000000
C06000F0000000
C06000E0000000
C06001C0000000
C06001C0000000
C0600380000000
C0600700000000
C0600700000000
C0600E03C00780
C0600E0FF01FE0
C0601C1FF83FF0
C0E0381C383870
E0E038381C7038
F1E070381C7038
7FC0E0381C7038
7F80E0381C7038
1F01C0381C7038
0001C0381C7038
000380381C7038
000700381C7038
000700381C7038
000E00381C7038
001E00381C7038
001C00381C7038
003800381C7038
003800381C7038
007000381C7038
00E000381C7038
00E000381C7038
01C0001C383870
03C0001FF83FF0
0380000FF01FE0
07000007E00FC0
ENDCHAR
STARTCHAR minute
ENCODING 8242
SWIDTH 232 0
DWIDTH 13 0
BBX 7 12 0 28
BITMAP
1E
3C
3C
3C
3C
38
78
78
70
70
F0
E0
ENDCHAR
STARTCHAR second
ENCODING 8243
SWIDTH 295 0
DWIDTH 17 0
BBX 14 12 1 28
BITMAP
1E3C
1E3C
1E38
3C78
3C78
3C70
3870
78F0
78E0
70E0
70E0
F1C0
ENDCHAR
STARTCHAR guilsinglleft
ENCODING 8249
SWIDTH 309 0
DWIDTH 17 0
BBX 10 20 3 6
BITMAP
03C0
0780
0780
0F00
0E00
1E00
3C00
3800
7800
F000
F000
7800
3800
3C00
1E00
0E00
0F00
0780
0780
03C0
ENDCHAR
STARTCHAR guilsinglright
ENCODING 8250
SWIDTH 327 0
DWIDTH 18 0
BBX 10 20 4 6
BITMAP
F000
7800
3800
3C00
1E00
0E00
0F00
0780
0780
03C0
03C0
0380
0780
0F00
0E00
1E00
3C00
3800
7800
F000
ENDCHAR
STARTCHAR fraction
ENCODING 8260
SWIDTH 226 0
DWIDTH 13 0
BBX 27 40 -7 0
BITMAP
000000E0
000001C0
000001C0
00000380
00000380
00000700
00000E00
00000E00
00001C00
00003C00
00003800
00007000
00007000
0000E000
0001C000
0001C000
00038000
00038000
00070000
000E0000
000E0000
001C0000
00380000
00380000
00700000
00700000
00E00000
01C00000
01C00000
03800000
07800000
07000000
0E000000
0E000000
1C000000
38000000
38000000
70000000
F0000000
E0000000
ENDCHAR
STARTCHAR uni2074
ENCODING 8308
SWIDTH 250 0
DWIDTH 14 0
BBX 12 24 1 25
BITMAP
0700
0E00
0E00
0E00
1C00
1C00
1C00
3800
3800
3800
70E0
70E0
70E0
E0E0
E0E0
FFF0
FFF0
FFF0
00E0
00E0
00E0
00E0
00E0
00E0
ENDCHAR
STARTCHAR uni2075
ENCODING 8309
SWIDTH 238 0
DWIDTH 13 0
BBX 11 24 1 25
BITMAP
FFE0
FFE0
FFE0
E000
E000
E000
E000
E000
E000
EF80
FFC0
FFC0
F1E0
E0E0
00E0
00E0
00E0
E0E0
E0E0
E0E0
71E0
7FC0
3FC0
1F00
ENDCHAR
STARTCHAR uni2076
ENCODING 8310
SWIDTH 250 0
DWIDTH 14 0
BBX 11 25 2 25
BITMAP
1E00
7F80
7F80
F3C0
E1C0
E1C0
C0C0
C000
C000
C000
CF00
FF80
F1C0
E1C0
E0E0
E0E0
E0E0
C0E0
E0E0
E0E0
E1E0
F1C0
7FC0
7F80
1F00
ENDCHAR
STARTCHAR uni2077
ENCODING 8311
SWIDTH 221 0
DWIDTH 12 0
BBX 12 24 0 25
BITMAP
7FF0
7FF0
7FF0
E070
E0E0
00E0
00E0
00E0
01C0
01C0
01C0
0380
0380
0380
0380
0700
0700
0700
0F00
0E00
0E00
0E00
1C00
1C00
ENDCHAR
STARTCHAR uni2078
ENCODING 8312
SWIDTH 256 0
DWIDTH 14 0
BBX 11 25 2 25
BITMAP
1E00
7F80
7FC0
F1C0
E1C0
E0E0
C0E0
C0E0
E0E0
E1C0
71C0
3F80
3F00
73C0
E1C0
E0C0
C0E0
C0E0
C0E0
C0E0
E1C0
E1C0
7FC0
3F80
1E00
ENDCHAR
STARTCHAR uni2079
ENCODING 8313
SWIDTH 250 0
DWIDTH 14 0
BBX 11 25 1 25
BITMAP
0F00
3F80
7FC0
71E0
70E0
E0E0
E0E0
E0E0
E0E0
E0E0
E0E0
60E0
70E0
79E0
3FE0
1E60
0060
0060
6060
60E0
70E0
70E0
7FC0
3FC0
1F00
ENDCHAR
STARTCHAR franc
ENCODING 8355
SWIDTH 473 0
DWIDTH 26 0
BBX 22 40 4 0
BITMAP
0FFFFC
0FFFFC
0FFFFC
0FFFF8
0F0000
0F0000
0F0000
0F0000
0F0000
0F0000
0F0000
0F0000
0F0000
0F0000
0F0000
0F0000
0F0000
0F0000
0FFF00
0FFF80
0FFF80
0FFF80
0F0000
0F0000
0F0000
0F0000
0F0000
0F0000
0F0000
FFFE00
FFFE00
FFFE00
0F0000
0F0000
0F0000
0F0000
0F0000
0F0000
0F0000
0F0000
ENDCHAR
STARTCHAR Euro
ENCODING 8364
SWIDTH 486 0
DWIDTH 27 0
BBX 21 40 3 0
BITMAP
007F00
01FFC0
03FFE0
07FFF0
07C0F0
0780F8
0F0078
0F0078
0F0078
0F0000
0F0000
0F0000
0F0000
0F0000
0F0000
FFFFC0
FFFFC0
FFFFC0
0F0000
0F0000
0F0000
0F0000
FFFF00
FFFF00
FFFF00
0F0000
0F0000
0F0000
0F0000
0F0000
0F0000
0F0078
0F0078
0F0078
0780F8
07C0F0
03FFF0
03FFE0
00FFC0
003F00
ENDCHAR
STARTCHAR uni20BA
ENCODING 8378
SWIDTH 561 0
DWIDTH 31 0
BBX 26 40 3 0
BITMAP
03C00000
03C00000
03C00000
03C00000
03C00000
03C00000
03C00000
03C00000
03C00000
03C04000
03C7C000
03FFE000
03FF0000
0FF00000
7FC00000
FFC00000
63C1C000
03CFE000
03FF8000
07FC0000
3FE00000
FFC00000
F3C00000
03C00000
03C00000
03C003C0
03C003C0
03C00780
03C00780
03C00780
03C00F80
03C00F00
03C01F00
03C03E00
03C07C00
03C1F800
03FFF000
03FFE000
03FF8000
03F80000
ENDCHAR
STARTCHAR uni20BD
ENCODING 8381
SWIDTH 511 0
DWIDTH 29 0
BBX 23 40 4 0
BITMAP
0FFF80
0FFFE0
0FFFF0
0FFFF8
0F00F8
0F007C
0F003C
0F003C
0F001E
0F001E
0F001E
0F001E
0F001E
0F001E
0F003C
0F003C
0F007C
0F00F8
7FFFF8
FFFFF0
FFFFE0
FFFF80
0F0000
0F0000
0F0000
0F0000
0F0000
FFFFC0
FFFFC0
FFFFC0
0F0000
0F0000
0F0000
0F0000
0F0000
0F0000
0F0000
0F0000
0F0000
0F0000
ENDCHAR
STARTCHAR uni2113
ENCODING 8467
SWIDTH 422 0
DWIDTH 24 0
BBX 17 40 3 0
BITMAP
007C00
00FE00
01FF00
038780
078380
070380
0F0380
0F0380
0E0380
0E0380
0E0380
0E0780
0E0700
0E0F00
0E0E00
0E1E00
0E3C00
0E7800
0EF000
0FE000
0FC000
0F8000
1F0000
3E0000
7E0000
FE0000
6E0000
4E0000
0E0000
0E0000
0E0000
0E0000
0E0000
0E0000
0F0000
0F0100
078380
07FF80
03FF00
00FC00
ENDCHAR
STARTCHAR trademark
ENCODING 8482
SWIDTH 515 0
DWIDTH 29 0
BBX 26 19 1 20
BITMAP
FFE381C0
FFE381C0
0E03C3C0
0E03C3C0
0E03E7C0
0E03E7C0
0E03BDC0
0E03BDC0
0E0399C0
0E0399C0
0E0381C0
0E0381C0
0E0381C0
0E0381C0
0E0381C0
0E0381C0
0E0381C0
0E0381C0
0E0381C0
ENDCHAR
STARTCHAR uni2126
ENCODING 8486
SWIDTH 481 0
DWIDTH 27 0
BBX 21 39 3 0
BITMAP
01FC00
07FF00
0FFF80
1F07C0
3E03E0
3C01E0
7800F0
7800F0
7800F0
7800F0
7800F0
7800F0
7800F0
7800F0
7800F0
7800F0
7800F0
7800F0
7800F0
7800F0
7800F0
7800F0
7800F0
7800F0
7800F0
7800F0
7800F0
7800F0
7800F0
7800F0
7800F0
7800F0
3800F0
3C01E0
1E01C0
0F8780
FF8FF8
FF8FF8
FF8FF8
ENDCHAR
STARTCHAR estimated
ENCODING 8494
SWIDTH 841 0
DWIDTH 47 0
BBX 41 40 3 0
BITMAP
0000FF800000
000FFFF80000
003E003E0000
007000070000
01C00001C000
03800000E000
070000007000
0E0000003800
0C0000001800
180000000C00
380000000E00
380000000E00
780000000F00
780000000F00
780000000F00
780000000F00
F80000000F80
F80000000F80
F80000000F80
FFFFFFFFFF80
FFFFFFFFFF80
F80000000000
F80000000000
F80000000000
F80000000000
780000000000
780000000000
780000000000
380000000000
380000000600
180000000C00
180000001C00
0C0000001800
060000003000
03800000E000
01C00001C000
00F000070000
003E003E0000
000FFFF80000
0001FF800000
ENDCHAR
STARTCHAR oneeighth
ENCODING 8539
SWIDTH 683 0
DWIDTH 38 0
BBX 36 40 1 0
BITMAP
3800001C00
F800003800
F800003800
1800007000
180000E000
180000E000
180001C000
180001C000
1800038000
1800070000
1800070000
18000E0000
18001E0000
18001C0000
1800380000
1800380F00
1800703FC0
1800E03FE0
1800E078E0
1801C070E0
1801C06070
180380E070
1807006070
1807006060
000E0070E0
001C0038E0
001C003FC0
0038001F80
00380039C0
00700070E0
00E0006060
00E0006070
01C0006070
03C0006070
0380006070
07000070E0
07000070E0
0E00003FE0
1C00003FC0
1C00000F00
ENDCHAR
STARTCHAR threeeighths
ENCODING 8540
SWIDTH 752 0
DWIDTH 42 0
BBX 40 40 1 0
BITMAP
7FF00001C0
7FF0000380
7FF0000380
00E0000700
01C0000E00
03C0000E00
0380001C00
0700003C00
0F00003800
0F80007000
0FC0007000
00E000E000
00E001C000
006001C000
0070038000
00700780F0
60700703FC
E0700E07FC
E0700E071E
70E01C070E
70E0380E06
7FE0380E07
3FC0700E06
0F8070060E
0000E0070E
0001C0071C
0001C003FC
00038001F8
000700039C
000700070E
000E00060E
000E000E06
001C000E06
0038000E07
0038000E06
007000070E
00F000070E
00E00003FC
01C00003FC
01C00000F0
ENDCHAR
STARTCHAR fiveeighths
ENCODING 8541
SWIDTH 706 0
DWIDTH 40 0
BBX 37 40 1 0
BITMAP
FFE0000E00
FFE0000E00
FFE0001C00
E000003800
E000003800
E000007000
E00000F000
E00000E000
E00001C000
EF8001C000
FFC0038000
FFC0070000
F1E0070000
E0E00E0000
00E00E0000
00E01C0780
00E0380FE0
E0E0381FF0
E0E0703C70
E0E0E03838
71E0E03838
7FC1C03838
3FC1C03838
1F03803838
0007003830
0007001C70
000E000FE0
001E000FE0
001C001C70
0038003870
0038003838
0070003838
00E0003838
00E0003838
01C0003838
01C0003838
0380003C70
0700001FF0
0700000FE0
0E000007C0
ENDCHAR
STARTCHAR seveneighths
ENCODING 8542
SWIDTH 671 0
DWIDTH 38 0
BBX 36 40 0 0
BITMAP
7FF0001C00
7FF0001C00
7FF0003800
E070007000
E0E0007000
00E000E000
00E000E000
00E001C000
01C0038000
01C0038000
01C0070000
03800E0000
03800E0000
03801C0000
03801C0000
0700380F00
0700701FC0
0700703FE0
0F00E078E0
0E01E07070
0E01C07070
0E03807070
1C03807070
1C07007070
000E007060
000E0038E0
001C001FC0
003C001FC0
00380038E0
0070007060
0070007070
00E0007070
01C0007070
01C0007070
0380007070
0380007070
07000078E0
0E00003FE0
0E00001FC0
1C00000F80
ENDCHAR
STARTCHAR partialdiff
ENCODING 8706
SWIDTH 533 0
DWIDTH 30 0
BBX 23 40 3 0
BITMAP
01FC00
0FFF00
1FFF80
1FFFC0
0E07E0
0803F0
0001F0
0000F8
000078
00007C
00003C
00003C
00003C
00001E
00001E
00001E
00FE1E
07FF9E
0FFFDE
1F83FE
3E00FE
7C007E
78003E
F8001E
F0001E
F0001E
F0001E
F0001E
F0001E
F0001C
F0001C
F0003C
F80038
780078
7C0078
3E00F0
1F83E0
0FFFC0
07FF80
01FE00
ENDCHAR
STARTCHAR uni2206
ENCODING 8710
SWIDTH 499 0
DWIDTH 28 0
BBX 26 39 1 0
BITMAP
001E0000
001E0000
001E0000
003F0000
003F0000
003F0000
007F8000
00738000
00738000
00F3C000
00E1C000
00E1C000
01E1E000
01C0E000
01C0E000
03C0F000
0380F000
03807000
07807800
07007800
07003800
0F003C00
0F003C00
0E001C00
1E001E00
1E001E00
1C000E00
3C000F00
3C000F00
38000700
78000780
78000780
70000380
F00003C0
F00003C0
F00003C0
FFFFFFC0
FFFFFFC0
FFFFFFC0
ENDCHAR
STARTCHAR product
ENCODING 8719
SWIDTH 473 0
DWIDTH 26 0
BBX 18 56 4 -11
BITMAP
FFFFC0
FFFFC0
FFFFC0
FFFFC0
F003C0
F003C0
F003C0
F003C0
F003C0
F003C0
F003C0
F003C0
F003C0
F003C0
F003C0
F003C0
F003C0
F003C0
F003C0
F003C0
F003C0
F003C0
F003C0
F003C0
F003C0
F003C0
F003C0
F003C0
F003C0
F003C0
F003C0
F003C0
F003C0
F003C0
F003C0
F003C0
F003C0
F003C0
F003C0
F003C0
F003C0
F003C0
F003C0
F003C0
F003C0
F003C0
F003C0
F003C0
F003C0
F003C0
F003C0
F003C0
F003C0
F003C0
F003C0
F003C0
ENDCHAR
STARTCHAR summation
ENCODING 8721
SWIDTH 510 0
DWIDTH 29 0
BBX 22 52 4 -11
BITMAP
FFFFFC
FFFFFC
FFFFFC
F00000
780000
780000
3C0000
3C0000
1E0000
0F0000
0F0000
078000
078000
03C000
01E000
01E000
00F000
00F000
007800
007800
003C00
001E00
001E00
000F00
000F00
001E00
001E00
003C00
003C00
007800
007800
00F000
00F000
01E000
01E000
03C000
03C000
078000
078000
0F0000
0F0000
0E0000
1E0000
1E0000
3C0000
3C0000
780000
780000
FFFFFC
FFFFFC
FFFFFC
FFFFFC
ENDCHAR
STARTCHAR minus
ENCODING 8722
SWIDTH 442 0
DWIDTH 25 0
BBX 21 3 2 16
BITMAP
FFFFF8
FFFFF8
FFFFF8
ENDCHAR
STARTCHAR uni2215
ENCODING 8725
SWIDTH 444 0
DWIDTH 25 0
BBX 20 39 2 0
BITMAP
0000F0
0001E0
0001E0
0001C0
0003C0
000380
000780
000780
000F00
000F00
000E00
001E00
001C00
003C00
003C00
007800
007800
00F000
00F000
00E000
01E000
01E000
03C000
03C000
078000
078000
070000
0F0000
0E0000
1E0000
1E0000
3C0000
3C0000
380000
780000
700000
F00000
F00000
E00000
ENDCHAR
STARTCHAR uni2219
ENCODING 8729
SWIDTH 295 0
DWIDTH 17 0
BBX 13 13 2 11
BITMAP
0F80
3FC0
7FE0
FFF0
FFF0
FFF8
FFF8
FFF8
FFF0
7FF0
7FE0
3FC0
0F80
ENDCHAR
STARTCHAR radical
ENCODING 8730
SWIDTH 649 0
DWIDTH 36 0
BBX 32 55 1 -11
BITMAP
00000FFF
00000FFF
00001FFF
00001E00
00001E00
00001E00
00001C00
00003C00
00003C00
00003C00
00003800
00007800
00007800
00007800
00007800
0000F000
0000F000
0000F000
0000F000
0000E000
0001E000
0001E000
0001E000
0001C000
0003C000
0003C000
0003C000
00038000
00078000
00078000
00078000
00078000
00070000
100F0000
F00F0000
780F0000
780E0000
781E0000
3C1E0000
3C1E0000
3C1C0000
1E3C0000
1E3C0000
1E3C0000
0E3C0000
0F380000
0F780000
07780000
07F80000
07F00000
03F00000
03F00000
03F00000
01E00000
01E00000
ENDCHAR
STARTCHAR infinity
ENCODING 8734
SWIDTH 639 0
DWIDTH 36 0
BBX 32 18 2 9
BITMAP
07C003E0
1FF00FF8
3FF81FFC
7C7C3C3C
703C781E
F01EF00E
E00FE00F
E007C007
E007C007
E007C007
E007C007
E00FE00F
F01EF00E
703C781E
7C7C7C3C
3FF83FFC
1FF00FF8
07C007E0
ENDCHAR
STARTCHAR integral
ENCODING 8747
SWIDTH 323 0
DWIDTH 18 0
BBX 14 51 2 -12
BITMAP
007C
01FC
03FC
03FC
07C0
07C0
0780
0780
0780
0780
0780
0780
0780
0780
0780
0780
0780
0780
0780
0780
0780
0780
0780
0780
0780
0780
0780
0780
0780
0780
0780
0780
0780
0780
0780
0780
0780
0780
0780
0780
0780
0780
0780
0780
0F80
0F80
0F00
FF00
FE00
FE00
F000
ENDCHAR
STARTCHAR approxequal
ENCODING 8776
SWIDTH 461 0
DWIDTH 26 0
BBX 22 18 2 9
BITMAP
0F8000
3FE018
7FF03C
FFFFF8
F03FF8
601FF0
0007C0
000000
000000
000000
000000
0F8000
3FE018
7FF03C
FFFFF8
F03FF8
601FF0
0007C0
ENDCHAR
STARTCHAR notequal
ENCODING 8800
SWIDTH 442 0
DWIDTH 25 0
BBX 21 25 2 6
BITMAP
000380
000380
000700
000700
000E00
FFFFF8
FFFFF8
FFFFF8
003800
003800
007000
007000
006000
00E000
00C000
01C000
01C000
FFFFF8
FFFFF8
FFFFF8
070000
0E0000
0E0000
1C0000
1C0000
ENDCHAR
STARTCHAR lessequal
ENCODING 8804
SWIDTH 442 0
DWIDTH 25 0
BBX 21 29 2 2
BITMAP
000008
000038
0000F8
0003F8
000FF0
003FC0
00FF00
03FC00
0FF000
3F8000
FE0000
F80000
F00000
FC0000
7F0000
1FC000
07F000
01FE00
007F80
001FE0
0007F8
0001F8
000078
000018
000000
000000
FFFFF8
FFFFF8
FFFFF8
ENDCHAR
STARTCHAR greaterequal
ENCODING 8805
SWIDTH 442 0
DWIDTH 25 0
BBX 21 29 2 1
BITMAP
C00000
F00000
FC0000
FF0000
3FC000
0FF000
01FC00
007F00
001FC0
0007F8
0001F8
000078
0001F8
0007F8
001FE0
007F80
01FE00
07F800
1FE000
FF0000
FC0000
F00000
C00000
800000
000000
000000
FFFFF8
FFFFF8
FFFFF8
ENDCHAR
STARTCHAR lozenge
ENCODING 9674
SWIDTH 403 0
DWIDTH 23 0
BBX 19 45 2 -3
BITMAP
00C000
01E000
01F000
01F000
03F000
03B800
03B800
073800
071C00
071C00
0E1C00
0E0E00
1E0E00
1C0E00
1C0700
3C0700
380780
380380
780380
7003C0
7001C0
F001C0
E001E0
E001E0
F001C0
7001C0
700380
780380
380380
380700
1C0700
1C0700
1C0E00
0E0E00
0E0E00
0E1C00
071C00
071C00
073800
03B800
03B000
03F000
01F000
01E000
00E000
ENDCHAR
STARTCHAR uni27E9
ENCODING 10217
SWIDTH 323 0
DWIDTH 18 0
BBX 10 42 4 -5
BITMAP
F000
7000
7000
7800
7800
3800
3C00
3C00
1C00
1C00
1E00
0E00
0E00
0F00
0700
0700
0780
0380
0380
03C0
01C0
01C0
03C0
0380
0380
0780
0700
0700
0F00
0E00
0E00
1E00
1C00
1C00
3C00
3C00
3800
7800
7800
7000
7000
F000
ENDCHAR
STARTCHAR fi
ENCODING 64257
SWIDTH 484 0
DWIDTH 27 0
BBX 22 40 2 0
BITMAP
01F078
07F0FC
0FF0FC
0FE0FC
1F00FC
1E0078
1E0000
1E0000
1E0000
1E0000
1E0000
FFF078
FFF078
FFF078
FFE078
1E0078
1E0078
1E0078
1E0078
1E0078
1E0078
1E0078
1E0078
1E0078
1E0078
1E0078
1E0078
1E0078
1E0078
1E0078
1E0078
1E0078
1E0078
1E0078
1E0078
1E0078
1E0078
1E0078
1E0078
1E0078
ENDCHAR
STARTCHAR fl
ENCODING 64258
SWIDTH 458 0
DWIDTH 26 0
BBX 21 40 2 0
BITMAP
01F070
07F078
0FF078
0FE078
1F0078
1E0078
1E0078
1E0078
1E0078
1E0078
1E0078
FFF078
FFF078
FFF078
FFE078
1E0078
1E0078
1E0078
1E0078
1E0078
1E0078
1E0078
1E0078
1E0078
1E0078
1E0078
1E0078
1E0078
1E0078
1E0078
1E0078
1E0078
1E0078
1E0078
1E0078
1E0078
1E0078
1E0078
1E0078
1E0078
ENDCHAR
STARTCHAR .notdef
ENCODING -1
SWIDTH 341 0
DWIDTH 19 0
BBX 19 39 0 0
BITMAP
FFFFE0
FFFFE0
FFFFE0
FFFFE0
FFFFE0
FF0FE0
FC03E0
F801E0
F0F1E0
F1F0E0
F1F8E0
E3F8E0
E3F8E0
F3F8E0
FFF8E0
FFF0E0
FFF1E0
FFE3E0
FFC3E0
FF87E0
FF0FE0
FF1FE0
FF1FE0
FF1FE0
FF1FE0
FF1FE0
FFFFE0
FFFFE0
FFFFE0
FF1FE0
FE1FE0
FE1FE0
FE1FE0
FF3FE0
FFFFE0
FFFFE0
FFFFE0
FFFFE0
FFFFE0
ENDCHAR
STARTCHAR i.loclTRK
ENCODING -1
SWIDTH 169 0
DWIDTH 9 0
BBX 6 40 2 0
BITMAP
78
FC
FC
FC
FC
78
00
00
00
00
00
78
78
78
78
78
78
78
78
78
78
78
78
78
78
78
78
78
78
78
78
78
78
78
78
78
78
78
78
78
ENDCHAR
STARTCHAR I_J.liga
ENCODING -1
SWIDTH 640 0
DWIDTH 36 0
BBX 28 40 4 0
BITMAP
F00000F0
F00000F0
F00000F0
F00000F0
F00000F0
F00000F0
F00000F0
F00000F0
F00000F0
F00000F0
F00000F0
F00000F0
F00000F0
F00000F0
F00000F0
F00000F0
F00000F0
F00000F0
F00000F0
F00000F0
F00000F0
F00000F0
F00000F0
F00000F0
F00000F0
F07800F0
F07800F0
F07800F0
F07800F0
F07800F0
F07800F0
F07800F0
F07800F0
F03C01E0
F03C01E0
F03E03E0
F01FFFC0
F00FFF80
F007FF00
F001FC00
ENDCHAR
STARTCHAR f_f_i.liga
ENCODING -1
SWIDTH 745 0
DWIDTH 42 0
BBX 37 40 2 0
BITMAP
01F003C0F0
07000C01F8
0E001C01F8
1E003C01F8
1E003C01F8
1E003800F0
1E00780000
1E00780000
1E00780000
1E00780000
1E00780000
FFFFFFC0F0
FFFFFFC0F0
FFFFFFC0F0
FFFFFFC0F0
1E007800F0
1E007800F0
1E007800F0
1E007800F0
1E007800F0
1E007800F0
1E007800F0
1E007800F0
1E007800F0
1E007800F0
1E007800F0
1E007800F0
1E007800F0
1E007800F0
1E007800F0
1E007800F0
1E007800F0
1E007800F0
1E007800F0
1E007800F0
1E007800F0
1E007800F0
1E007800F0
1E007800F0
1E007800F0
ENDCHAR
STARTCHAR f_f_l.liga
ENCODING -1
SWIDTH 723 0
DWIDTH 40 0
BBX 35 40 2 0
BITMAP
01F003C1E0
07F00FC1E0
0FF01FC1E0
0FE03FC1E0
1F003E01E0
1E003C01E0
1E003C01E0
1E007801E0
1E007801E0
1E007801E0
1E007801E0
FFFFFFC1E0
FFFFFFE1E0
FFFFFFE1E0
FFFFFFC1E0
1E007801E0
1E007801E0
1E007801E0
1E007801E0
1E007801E0
1E007801E0
1E007801E0
1E007801E0
1E007801E0
1E007801E0
1E007801E0
1E007801E0
1E007801E0
1E007801E0
1E007801E0
1E007801E0
1E007801E0
1E007801E0
1E007801E0
1E007801E0
1E007801E0
1E007801E0
1E007801E0
1E007801E0
1E007801E0
ENDCHAR
STARTCHAR g_j.liga
ENCODING -1
SWIDTH 612 0
DWIDTH 34 0
BBX 29 52 3 -11
BITMAP
000000E0
000001F0
000003F8
000003F8
000001F0
000000E0
00000000
00000000
00000000
00000000
00000000
00000000
07E780E0
1FF780E0
3FFF80E0
7FFF80E0
FC1F80E0
F80F80E0
F00780E0
F00780E0
F00780E0
F00780E0
F00780E0
F00780E0
F00780E0
F00780E0
F00780E0
F00780E0
F00780E0
F00780E0
F00780E0
F00780E0
F00780E0
F00780E0
F00780E0
F80F80E0
7C1F80E0
7FFF80E0
3FFF80E0
1FF780E0
07C780E0
000780E0
000780E0
000781E0
000781E0
000F01E0
001F01E0
003F03E0
07FE1FC0
07FC1FC0
07F81F80
07C01E00
ENDCHAR
STARTCHAR i_j.liga
ENCODING -1
SWIDTH 403 0
DWIDTH 23 0
BBX 17 52 3 -11
BITMAP
780F00
FC1F80
FC1F80
FC1F80
FC1F80
780F00
000000
000000
000000
000000
000000
000000
780F00
780F00
780F00
780F00
780F00
780F00
780F00
780F00
780F00
780F00
780F00
780F00
780F00
780F00
780F00
780F00
780F00
780F00
780F00
780F00
780F00
780F00
780F00
780F00
780F00
780F00
780F00
780F00
780F00
000F00
000F00
000F00
000F00
001F00
001E00
003E00
01FE00
01FC00
01F800
01E000
ENDCHAR
STARTCHAR a.sc
ENCODING -1
SWIDTH 409 0
DWIDTH 23 0
BBX 19 32 2 0
BITMAP
01F000
01F000
01F000
03F000
03F800
03F800
03B800
07B800
07BC00
07BC00
071C00
0F1C00
0F1E00
0F1E00
0E1E00
0E0E00
1E0F00
1E0F00
1E0F00
1C0700
3C0780
3C0780
3C0780
3FFF80
7FFFC0
7FFFC0
7803C0
7803C0
F003C0
F001E0
F001E0
F001E0
ENDCHAR
STARTCHAR aacute.sc
ENCODING -1
SWIDTH 409 0
DWIDTH 23 0
BBX 19 44 2 0
BITMAP
001C00
003C00
003800
007000
007000
00E000
00E000
01C000
000000
000000
000000
000000
01F000
01F000
01F000
03F000
03F800
03F800
03B800
07B800
07BC00
07BC00
071C00
0F1C00
0F1E00
0F1E00
0E1E00
0E0E00
1E0F00
1E0F00
1E0F00
1C0700
3C0780
3C0780
3C0780
3FFF80
7FFFC0
7FFFC0
7803C0
7803C0
F003C0
F001E0
F001E0
F001E0
ENDCHAR
STARTCHAR abreve.sc
ENCODING -1
SWIDTH 409 0
DWIDTH 23 0
BBX 19 43 2 0
BITMAP
0C0600
0C0600
0E0E00
071C00
07F800
01F000
000000
000000
000000
000000
000000
01F000
01F000
01F000
03F000
03F800
03F800
03B800
07B800
07BC00
07BC00
071C00
0F1C00
0F1E00
0F1E00
0E1E00
0E0E00
1E0F00
1E0F00
1E0F00
1C0700
3C0780
3C0780
3C0780
3FFF80
7FFFC0
7FFFC0
7803C0
7803C0
F003C0
F001E0
F001E0
F001E0
ENDCHAR
STARTCHAR uni01CE.sc
ENCODING -1
SWIDTH 409 0
DWIDTH 23 0
BBX 19 44 2 0
BITMAP
1E0F00
0E1E00
071C00
07BC00
03B800
03F000
01F000
000000
000000
000000
000000
000000
01F000
01F000
01F000
03F000
03F800
03F800
03B800
07B800
07BC00
07BC00
071C00
0F1C00
0F1E00
0F1E00
0E1E00
0E0E00
1E0F00
1E0F00
1E0F00
1C0700
3C0780
3C0780
3C0780
3FFF80
7FFFC0
7FFFC0
7803C0
7803C0
F003C0
F001E0
F001E0
F001E0
ENDCHAR
STARTCHAR acircumflex.sc
ENCODING -1
SWIDTH 409 0
DWIDTH 23 0
BBX 19 44 2 0
BITMAP
01F000
03F000
03B800
07BC00
0F1C00
0E1E00
1E0F00
000000
000000
000000
000000
000000
01F000
01F000
01F000
03F000
03F800
03F800
03B800
07B800
07BC00
07BC00
071C00
0F1C00
0F1E00
0F1E00
0E1E00
0E0E00
1E0F00
1E0F00
1E0F00
1C0700
3C0780
3C0780
3C0780
3FFF80
7FFFC0
7FFFC0
7803C0
7803C0
F003C0
F001E0
F001E0
F001E0
ENDCHAR
STARTCHAR adieresis.sc
ENCODING -1
SWIDTH 409 0
DWIDTH 23 0
BBX 19 44 2 0
BITMAP
1E0E00
3F1F00
3F3F80
3F1F80
3F1F00
1E0E00
000000
000000
000000
000000
000000
000000
01F000
01F000
01F000
03F000
03F800
03F800
03B800
07B800
07BC00
07BC00
071C00
0F1C00
0F1E00
0F1E00
0E1E00
0E0E00
1E0F00
1E0F00
1E0F00
1C0700
3C0780
3C0780
3C0780
3FFF80
7FFFC0
7FFFC0
7803C0
7803C0
F003C0
F001E0
F001E0
F001E0
ENDCHAR
STARTCHAR agrave.sc
ENCODING -1
SWIDTH 409 0
DWIDTH 23 0
BBX 19 44 2 0
BITMAP
0E0000
0F0000
070000
078000
038000
03C000
01C000
00E000
000000
000000
000000
000000
01F000
01F000
01F000
03F000
03F800
03F800
03B800
07B800
07BC00
07BC00
071C00
0F1C00
0F1E00
0F1E00
0E1E00
0E0E00
1E0F00
1E0F00
1E0F00
1C0700
3C0780
3C0780
3C0780
3FFF80
7FFFC0
7FFFC0
7803C0
7803C0
F003C0
F001E0
F001E0
F001E0
ENDCHAR
STARTCHAR amacron.sc
ENCODING -1
SWIDTH 409 0
DWIDTH 23 0
BBX 19 43 2 0
BITMAP
0FFE00
0FFE00
0FFE00
0FFE00
000000
000000
000000
000000
000000
000000
000000
01F000
01F000
01F000
03F000
03F800
03F800
03B800
07B800
07BC00
07BC00
071C00
0F1C00
0F1E00
0F1E00
0E1E00
0E0E00
1E0F00
1E0F00
1E0F00
1C0700
3C0780
3C0780
3C0780
3FFF80
7FFFC0
7FFFC0
7803C0
7803C0
F003C0
F001E0
F001E0
F001E0
ENDCHAR
STARTCHAR aogonek.sc
ENCODING -1
SWIDTH 409 0
DWIDTH 23 0
BBX 20 42 2 -10
BITMAP
01F000
01F000
01F000
03F000
03F800
03F800
03B800
07B800
07BC00
07BC00
071C00
0F1C00
0F1E00
0F1E00
0E1E00
0E0E00
1E0F00
1E0F00
1E0F00
1C0700
3C0780
3C0780
3C0780
3FFF80
7FFFC0
7FFFC0
7803C0
7803C0
F003C0
F001E0
F001E0
F001E0
0001C0
0001C0
000380
000380
000300
000700
000380
0003D0
0003F0
0000F0
ENDCHAR
STARTCHAR aring.sc
ENCODING -1
SWIDTH 409 0
DWIDTH 23 0
BBX 19 49 2 0
BITMAP
01F000
07FC00
0F1C00
0E0E00
0C0600
1C0600
1C0600
0C0600
0E0E00
071C00
07F800
01F000
000000
000000
000000
000000
000000
01F000
01F000
01F000
03F000
03F800
03F800
03B800
07B800
07BC00
07BC00
071C00
0F1C00
0F1E00
0F1E00
0E1E00
0E0E00
1E0F00
1E0F00
1E0F00
1C0700
3C0780
3C0780
3C0780
3FFF80
7FFFC0
7FFFC0
7803C0
7803C0
F003C0
F001E0
F001E0
F001E0
ENDCHAR
STARTCHAR atilde.sc
ENCODING -1
SWIDTH 409 0
DWIDTH 23 0
BBX 19 44 2 0
BITMAP
078100
0FE180
1FFF80
1C7F00
081E00
000000
000000
000000
000000
000000
000000
000000
01F000
01F000
01F000
03F000
03F800
03F800
03B800
07B800
07BC00
07BC00
071C00
0F1C00
0F1E00
0F1E00
0E1E00
0E0E00
1E0F00
1E0F00
1E0F00
1C0700
3C0780
3C0780
3C0780
3FFF80
7FFFC0
7FFFC0
7803C0
7803C0
F003C0
F001E0
F001E0
F001E0
ENDCHAR
STARTCHAR ae.sc
ENCODING -1
SWIDTH 644 0
DWIDTH 36 0
BBX 32 32 2 0
BITMAP
0003FFFF
0003FFFF
0007FFFF
0007F000
0007F000
000FF000
000FF000
001EF000
001EF000
003CF000
003CF000
0078F000
0078F000
00F0F000
00F0FFF0
01E0FFF0
01E0FFF0
03C0F000
03C0F000
07C0F000
0780F000
0F80F000
0F00F000
0FFFF000
1FFFF000
1FFFF000
3C00F000
3C00F000
7800F000
7800FFFF
F000FFFF
F000FFFF
ENDCHAR
STARTCHAR b.sc
ENCODING -1
SWIDTH 399 0
DWIDTH 22 0
BBX 18 32 3 0
BITMAP
FFF000
FFFC00
FFFE00
F8FF00
F00F80
F00780
F00780
F00380
F003C0
F00380
F00780
F00780
F00F80
F0FF00
FFFE00
FFF800
FFFE00
F01F00
F00F80
F00780
F00780
F003C0
F003C0
F003C0
F003C0
F007C0
F00780
F00F80
F07F00
FFFE00
FFFC00
FFF000
ENDCHAR
STARTCHAR c.sc
ENCODING -1
SWIDTH 398 0
DWIDTH 22 0
BBX 17 32 3 0
BITMAP
07F000
1FFC00
3FFE00
7FFF00
F81F00
F00F80
F00780
F00780
F00780
F00780
F00000
F00000
F00000
F00000
F00000
F00000
F00000
F00000
F00000
F00000
F00000
F00000
F00780
F00780
F00780
F00780
F00F00
F81F00
7FFF00
3FFE00
1FFC00
07F000
ENDCHAR
STARTCHAR cacute.sc
ENCODING -1
SWIDTH 398 0
DWIDTH 22 0
BBX 17 44 3 0
BITMAP
003000
007800
00F000
00E000
01E000
01C000
038000
038000
000000
000000
000000
000000
07F000
1FFC00
3FFE00
7FFF00
F81F00
F00F80
F00780
F00780
F00780
F00780
F00000
F00000
F00000
F00000
F00000
F00000
F00000
F00000
F00000
F00000
F00000
F00000
F00780
F00780
F00780
F00780
F00F00
F81F00
7FFF00
3FFE00
1FFC00
07F000
ENDCHAR
STARTCHAR ccaron.sc
ENCODING -1
SWIDTH 398 0
DWIDTH 22 0
BBX 17 44 3 0
BITMAP
3C1C00
1C3C00
1E3800
0F7800
077000
07E000
03E000
000000
000000
000000
000000
000000
07F000
1FFC00
3FFE00
7FFF00
F81F00
F00F80
F00780
F00780
F00780
F00780
F00000
F00000
F00000
F00000
F00000
F00000
F00000
F00000
F00000
F00000
F00000
F00000
F00780
F00780
F00780
F00780
F00F00
F81F00
7FFF00
3FFE00
1FFC00
07F000
ENDCHAR
STARTCHAR ccedilla.sc
ENCODING -1
SWIDTH 398 0
DWIDTH 22 0
BBX 17 43 3 -11
BITMAP
07F000
1FFC00
3FFE00
7FFF00
F81F00
F00F00
F00780
F00780
F00780
F00780
F00000
F00000
F00000
F00000
F00000
F00000
F00000
F00000
F00000
F00000
F00000
F00000
F00000
F00780
F00780
F00780
F00780
F00F80
F80F00
7C3F00
3FFE00
1FFC00
0FF800
01C000
00E000
006000
007000
007000
007000
007000
00F000
03E000
03C000
ENDCHAR
STARTCHAR cdotaccent.sc
ENCODING -1
SWIDTH 398 0
DWIDTH 22 0
BBX 17 44 3 0
BITMAP
03C000
07E000
07E000
07E000
07E000
03C000
000000
000000
000000
000000
000000
000000
07F000
1FFC00
3FFE00
7FFF00
F81F00
F00F80
F00780
F00780
F00780
F00780
F00000
F00000
F00000
F00000
F00000
F00000
F00000
F00000
F00000
F00000
F00000
F00000
F00780
F00780
F00780
F00780
F00F00
F81F00
7FFF00
3FFE00
1FFC00
07F000
ENDCHAR
STARTCHAR d.sc
ENCODING -1
SWIDTH 411 0
DWIDTH 23 0
BBX 17 32 3 0
BITMAP
FFF000
FFFC00
FFFE00
F87F00
F00F00
F00F80
F00780
F00780
F00780
F00780
F00780
F00780
F00780
F00780
F00780
F00780
F00780
F00780
F00780
F00780
F00780
F00780
F00780
F00780
F00780
F00780
F00F80
F00F00
F07F00
FFFE00
FFFC00
FFF000
ENDCHAR
STARTCHAR eth.sc
ENCODING -1
SWIDTH 447 0
DWIDTH 25 0
BBX 19 32 3 0
BITMAP
3FFC00
3FFF00
3FFF80
3E1FC0
3C03C0
3C03E0
3C01E0
3C01E0
3C01E0
3C01E0
3C01E0
3C01E0
3C01E0
3C01E0
FFE1E0
FFE1E0
3C01E0
3C01E0
3C01E0
3C01E0
3C01E0
3C01E0
3C01E0
3C01E0
3C01E0
3C01E0
3C03E0
3C03C0
3C1FC0
3FFF80
3FFF00
3FFC00
ENDCHAR
STARTCHAR dcaron.sc
ENCODING -1
SWIDTH 411 0
DWIDTH 23 0
BBX 17 44 3 0
BITMAP
3C1C00
1C3C00
1E3800
0E7800
07F000
07E000
03E000
000000
000000
000000
000000
000000
FFF000
FFFC00
FFFE00
F87F00
F00F00
F00F80
F00780
F00780
F00780
F00780
F00780
F00780
F00780
F00780
F00780
F00780
F00780
F00780
F00780
F00780
F00780
F00780
F00780
F00780
F00780
F00780
F00F80
F00F00
F07F00
FFFE00
FFFC00
FFF000
ENDCHAR
STARTCHAR dcroat.sc
ENCODING -1
SWIDTH 447 0
DWIDTH 25 0
BBX 19 32 3 0
BITMAP
3FFC00
3FFF00
3FFF80
3E1FC0
3C03C0
3C03E0
3C01E0
3C01E0
3C01E0
3C01E0
3C01E0
3C01E0
3C01E0
3C01E0
FFE1E0
FFE1E0
3C01E0
3C01E0
3C01E0
3C01E0
3C01E0
3C01E0
3C01E0
3C01E0
3C01E0
3C01E0
3C03E0
3C03C0
3C1FC0
3FFF80
3FFF00
3FFC00
ENDCHAR
STARTCHAR e.sc
ENCODING -1
SWIDTH 380 0
DWIDTH 21 0
BBX 16 32 3 0
BITMAP
FFFF
FFFF
FFFF
F800
F000
F000
F000
F000
F000
F000
F000
F000
F000
F000
FFF0
FFF0
FFF0
F800
F000
F000
F000
F000
F000
F000
F000
F000
F000
F000
F000
FFFF
FFFF
FFFF
ENDCHAR
STARTCHAR eacute.sc
ENCODING -1
SWIDTH 380 0
DWIDTH 21 0
BBX 16 44 3 0
BITMAP
0030
0078
0070
00E0
00E0
01C0
03C0
0380
0000
0000
0000
0000
FFFF
FFFF
FFFF
F800
F000
F000
F000
F000
F000
F000
F000
F000
F000
F000
FFF0
FFF0
FFF0
F800
F000
F000
F000
F000
F000
F000
F000
F000
F000
F000
F000
FFFF
FFFF
FFFF
ENDCHAR
STARTCHAR ecaron.sc
ENCODING -1
SWIDTH 380 0
DWIDTH 21 0
BBX 16 44 3 0
BITMAP
3C1E
1C3C
1E38
0F78
0770
07E0
03E0
0000
0000
0000
0000
0000
FFFF
FFFF
FFFF
F800
F000
F000
F000
F000
F000
F000
F000
F000
F000
F000
FFF0
FFF0
FFF0
F800
F000
F000
F000
F000
F000
F000
F000
F000
F000
F000
F000
FFFF
FFFF
FFFF
ENDCHAR
STARTCHAR uni0229.sc
ENCODING -1
SWIDTH 380 0
DWIDTH 21 0
BBX 16 42 3 -10
BITMAP
FFFF
FFFF
FFFF
F800
F000
F000
F000
F000
F000
F000
F000
F000
F000
F000
FFF0
FFF0
FFF0
F800
F000
F000
F000
F000
F000
F000
F000
F000
F000
F000
F000
FFFF
FFFF
FFFF
01C0
00E0
0060
0070
0070
0070
0070
02F0
03E0
07C0
ENDCHAR
STARTCHAR ecircumflex.sc
ENCODING -1
SWIDTH 380 0
DWIDTH 21 0
BBX 16 44 3 0
BITMAP
03E0
07E0
07F0
0F78
1E38
1C3C
3C1C
0000
0000
0000
0000
0000
FFFF
FFFF
FFFF
F800
F000
F000
F000
F000
F000
F000
F000
F000
F000
F000
FFF0
FFF0
FFF0
F800
F000
F000
F000
F000
F000
F000
F000
F000
F000
F000
F000
FFFF
FFFF
FFFF
ENDCHAR
STARTCHAR edieresis.sc
ENCODING -1
SWIDTH 380 0
DWIDTH 21 0
BBX 16 44 3 0
BITMAP
3C1C
7E3E
7E7F
7E7F
7E3E
3C1C
0000
0000
0000
0000
0000
0000
FFFF
FFFF
FFFF
F800
F000
F000
F000
F000
F000
F000
F000
F000
F000
F000
FFF0
FFF0
FFF0
F800
F000
F000
F000
F000
F000
F000
F000
F000
F000
F000
F000
FFFF
FFFF
FFFF
ENDCHAR
STARTCHAR edotaccent.sc
ENCODING -1
SWIDTH 380 0
DWIDTH 21 0
BBX 16 44 3 0
BITMAP
01C0
03E0
07F0
07E0
03E0
01C0
0000
0000
0000
0000
0000
0000
FFFF
FFFF
FFFF
F800
F000
F000
F000
F000
F000
F000
F000
F000
F000
F000
FFF0
FFF0
FFF0
F800
F000
F000
F000
F000
F000
F000
F000
F000
F000
F000
F000
FFFF
FFFF
FFFF
ENDCHAR
STARTCHAR egrave.sc
ENCODING -1
SWIDTH 380 0
DWIDTH 21 0
BBX 16 44 3 0
BITMAP
1800
1C00
1E00
0E00
0700
0780
0380
01C0
0000
0000
0000
0000
FFFF
FFFF
FFFF
F800
F000
F000
F000
F000
F000
F000
F000
F000
F000
F000
FFF0
FFF0
FFF0
F800
F000
F000
F000
F000
F000
F000
F000
F000
F000
F000
F000
FFFF
FFFF
FFFF
ENDCHAR
STARTCHAR emacron.sc
ENCODING -1
SWIDTH 380 0
DWIDTH 21 0
BBX 16 43 3 0
BITMAP
1FF8
1FFC
1FFC
1FFC
0000
0000
0000
0000
0000
0000
0000
FFFF
FFFF
FFFF
F800
F000
F000
F000
F000
F000
F000
F000
F000
F000
F000
FFF0
FFF0
FFF0
F800
F000
F000
F000
F000
F000
F000
F000
F000
F000
F000
F000
FFFF
FFFF
FFFF
ENDCHAR
STARTCHAR eogonek.sc
ENCODING -1
SWIDTH 380 0
DWIDTH 21 0
BBX 16 42 3 -10
BITMAP
FFFF
FFFF
FFFF
F800
F000
F000
F000
F000
F000
F000
F000
F000
F000
F000
FFF0
FFF0
FFF0
F800
F000
F000
F000
F000
F000
F000
F000
F000
F000
F000
F000
FFFF
FFFF
FFFF
0380
0700
0700
0E00
0E00
0E00
0E00
0F00
07E0
03E0
ENDCHAR
STARTCHAR f.sc
ENCODING -1
SWIDTH 359 0
DWIDTH 20 0
BBX 16 32 3 0
BITMAP
FFFF
FFFF
FFFF
F800
F000
F000
F000
F000
F000
F000
F000
F000
F000
F000
FFF0
FFF0
FFF0
F800
F000
F000
F000
F000
F000
F000
F000
F000
F000
F000
F000
F000
F000
F000
ENDCHAR
STARTCHAR g.sc
ENCODING -1
SWIDTH 397 0
DWIDTH 22 0
BBX 17 32 3 0
BITMAP
07F000
1FFC00
3FFE00
7FFF00
F81F00
F00F80
F00780
F00780
F00780
F00780
F00000
F00000
F00000
F00000
F00000
F07F80
F07F80
F07F80
F00780
F00780
F00780
F00780
F00780
F00780
F00780
F00780
F00F00
F81F00
7FFF00
3FFE00
1FFC00
07E000
ENDCHAR
STARTCHAR gbreve.sc
ENCODING -1
SWIDTH 397 0
DWIDTH 22 0
BBX 17 43 3 0
BITMAP
380C00
181C00
1C1C00
1E3800
0FF000
03E000
000000
000000
000000
000000
000000
07F000
1FFC00
3FFE00
7FFF00
F81F00
F00F80
F00780
F00780
F00780
F00780
F00000
F00000
F00000
F00000
F00000
F07F80
F07F80
F07F80
F00780
F00780
F00780
F00780
F00780
F00780
F00780
F00780
F00F00
F81F00
7FFF00
3FFE00
1FFC00
07E000
ENDCHAR
STARTCHAR gdotaccent.sc
ENCODING -1
SWIDTH 397 0
DWIDTH 22 0
BBX 17 44 3 0
BITMAP
03C000
07E000
07E000
07E000
07E000
03C000
000000
000000
000000
000000
000000
000000
07F000
1FFC00
3FFE00
7FFF00
F81F00
F00F80
F00780
F00780
F00780
F00780
F00000
F00000
F00000
F00000
F00000
F07F80
F07F80
F07F80
F00780
F00780
F00780
F00780
F00780
F00780
F00780
F00780
F00F00
F81F00
7FFF00
3FFE00
1FFC00
07E000
ENDCHAR
STARTCHAR h.sc
ENCODING -1
SWIDTH 417 0
DWIDTH 23 0
BBX 17 32 3 0
BITMAP
F00780
F00780
F00780
F00780
F00780
F00780
F00780
F00780
F00780
F00780
F00780
F00780
F00780
F00780
FFFF80
FFFF80
FFFF80
F80780
F00780
F00780
F00780
F00780
F00780
F00780
F00780
F00780
F00780
F00780
F00780
F00780
F00780
F00780
ENDCHAR
STARTCHAR hbar.sc
ENCODING -1
SWIDTH 417 0
DWIDTH 23 0
BBX 24 32 0 0
BITMAP
1E00F0
1E00F0
1E00F0
1E00F0
1E00F0
1E00F0
FFFFFF
FFFFFF
FFFFFF
1E00F0
1E00F0
1E00F0
1E00F0
1E00F0
1FFFF0
1FFFF0
1FFFF0
1F00F0
1E00F0
1E00F0
1E00F0
1E00F0
1E00F0
1E00F0
1E00F0
1E00F0
1E00F0
1E00F0
1E00F0
1E00F0
1E00F0
1E00F0
ENDCHAR
STARTCHAR i.sc
ENCODING -1
SWIDTH 191 0
DWIDTH 11 0
BBX 4 32 3 0
BITMAP
F0
F0
F0
F0
F0
F0
F0
F0
F0
F0
F0
F0
F0
F0
F0
F0
F0
F0
F0
F0
F0
F0
F0
F0
F0
F0
F0
F0
F0
F0
F0
F0
ENDCHAR
STARTCHAR iacute.sc
ENCODING -1
SWIDTH 191 0
DWIDTH 11 0
BBX 7 44 3 0
BITMAP
0E
1E
1C
38
38
70
F0
E0
00
00
00
00
F0
F0
F0
F0
F0
F0
F0
F0
F0
F0
F0
F0
F0
F0
F0
F0
F0
F0
F0
F0
F0
F0
F0
F0
F0
F0
F0
F0
F0
F0
F0
F0
ENDCHAR
STARTCHAR icircumflex.sc
ENCODING -1
SWIDTH 191 0
DWIDTH 11 0
BBX 12 44 -1 0
BITMAP
0F80
1F80
1FC0
3DE0
78E0
70F0
F070
0000
0000
0000
0000
0000
0F00
0F00
0F00
0F00
0F00
0F00
0F00
0F00
0F00
0F00
0F00
0F00
0F00
0F00
0F00
0F00
0F00
0F00
0F00
0F00
0F00
0F00
0F00
0F00
0F00
0F00
0F00
0F00
0F00
0F00
0F00
0F00
ENDCHAR
STARTCHAR idieresis.sc
ENCODING -1
SWIDTH 191 0
DWIDTH 11 0
BBX 15 44 -2 0
BITMAP
7838
FC7C
FCFE
FCFE
FC7C
7838
0000
0000
0000
0000
0000
0000
0780
0780
0780
0780
0780
0780
0780
0780
0780
0780
0780
0780
0780
0780
0780
0780
0780
0780
0780
0780
0780
0780
0780
0780
0780
0780
0780
0780
0780
0780
0780
0780
ENDCHAR
STARTCHAR i.sc.loclTRK
ENCODING -1
SWIDTH 191 0
DWIDTH 11 0
BBX 7 44 2 0
BITMAP
38
7C
FE
FC
7C
38
00
00
00
00
00
00
78
78
78
78
78
78
78
78
78
78
78
78
78
78
78
78
78
78
78
78
78
78
78
78
78
78
78
78
78
78
78
78
ENDCHAR
ENDFONT
